<svg xmlns="http://www.w3.org/2000/svg" viewBox="0 0 900 891.3" role="img" aria-label="Network map" preserveAspectRatio="xMidYMid meet"><path d="M732.7 80.2L736.0 78.6M548.7 307.2L549.5 323.2M647.2 205.7L652.8 222.8M810.1 629.1L837.6 613.8M225.5 473.6L227.1 471.5M219.5 467.3L227.1 471.5M756.3 582.3L766.9 572.9M646.3 741.5L654.2 767.0M495.6 606.6L497.1 604.1M481.5 644.7L487.9 648.8M481.5 644.7L484.6 645.6M477.3 856.2L477.2 857.7M767.6 568.1L775.5 556.3M799.6 567.7L810.2 561.6M288.6 254.2L299.2 257.8M121.9 526.1L125.7 524.2M647.1 483.4L637.5 439.0M810.1 629.1L793.9 651.3M505.7 518.4L538.4 451.9M112.3 594.2L127.6 594.8M528.3 768.7L521.3 791.9M779.9 664.3L793.9 651.3M518.3 163.7L520.0 173.9M501.3 649.8L500.2 648.8M738.2 89.7L739.5 93.6M660.0 355.5L666.0 334.1M750.8 670.9L754.3 659.1M568.0 795.1L569.7 798.2M541.4 818.3L539.5 825.3M285.1 503.7L285.6 494.9M426.6 591.0L440.8 581.8M560.9 689.9L553.6 719.1M560.9 689.9L563.9 686.7M637.1 534.0L629.4 533.7M506.2 630.5L509.0 633.2M426.6 591.0L445.4 576.2M219.5 467.3L213.8 466.0M667.9 96.6L688.8 104.9M723.7 357.0L740.1 340.1M732.3 291.6L729.0 279.3M758.9 281.1L756.2 304.5M40.0 588.5L45.3 592.4M798.2 121.7L802.8 119.9M395.7 687.4L403.2 689.3M500.6 642.4L510.3 639.2M740.1 340.1L765.0 319.1M746.0 679.4L744.4 678.6M593.2 121.0L603.9 131.2M635.7 407.6L660.0 355.5M811.1 127.1L802.8 119.9M630.7 424.3L635.4 408.5M637.5 439.0L630.7 424.3M635.4 408.5L635.7 407.6M767.6 568.1L766.9 572.9M853.9 599.3L856.4 602.3M853.9 599.3L856.4 602.3M450.1 27.6L445.8 24.0M216.5 477.0L225.5 473.6M798.3 126.6L798.2 121.7M719.4 138.6L724.3 136.3M509.0 633.2L510.3 639.2M835.5 141.5L835.7 138.6M371.5 238.9L344.5 248.0M738.9 637.5L754.3 659.1M669.2 316.5L708.3 310.0M477.5 688.3L483.0 675.7M486.7 643.4L487.1 645.5M434.0 654.6L434.0 653.5M643.0 305.8L646.9 303.7M309.4 673.5L312.5 666.0M312.5 666.0L311.2 665.5M310.9 659.8L312.4 664.6M312.4 664.6L341.7 673.0M305.5 665.5L341.7 673.0M305.0 669.9L307.7 669.0M307.7 669.0L305.5 665.5M305.0 669.9L309.4 673.5M219.5 467.3L228.1 466.8M219.5 467.3L244.8 456.4M219.5 467.3L238.4 426.6M200.2 475.2L213.8 466.0M200.2 475.2L214.3 469.3M214.3 469.3L215.8 467.9M215.8 467.9L219.5 467.3M217.4 542.9L220.7 557.3M274.4 227.1L283.3 233.6M264.1 217.6L274.4 227.1M395.0 703.1L397.6 694.6M298.2 59.2L299.4 64.1M200.2 475.2L216.5 477.0M489.3 638.3L490.0 637.1M487.2 638.8L489.3 638.3M489.3 638.3L489.4 639.8M487.2 638.8L489.4 639.8M484.8 634.2L486.1 635.8M489.4 639.8L492.1 642.5M490.2 643.9L492.1 642.5M661.2 327.6L666.0 334.1M661.2 327.6L666.0 334.1M658.9 327.4L661.2 327.6M658.9 327.4L661.2 327.6M646.7 335.2L655.4 328.6M646.7 335.2L653.8 328.6M653.8 328.6L655.4 328.6M653.8 328.6L656.8 326.6M656.8 326.6L661.2 327.6M654.6 325.6L656.8 326.6M654.6 325.6L656.4 323.2M696.1 96.9L699.5 95.4M696.1 96.9L699.5 95.4M693.8 91.3L694.3 89.2M693.8 91.3L693.8 92.7M693.2 94.4L699.5 95.4M691.7 95.4L693.2 94.4M689.9 98.5L690.9 102.4M689.9 98.5L691.7 95.4M691.7 95.4L691.9 92.4M691.9 92.4L693.8 92.7M491.3 631.1L491.4 632.7M491.3 631.1L491.9 629.0M491.4 632.7L491.9 629.0M491.4 632.7L491.9 629.0M492.6 635.5L493.2 637.8M491.4 632.7L492.6 635.5M500.7 630.3L503.2 634.0M496.1 631.7L500.7 630.3M491.9 629.0L496.1 631.7M491.4 632.7L494.3 630.5M491.9 629.0L494.3 630.5M802.8 119.9L809.2 119.9M799.5 117.0L802.8 119.9M811.1 127.1L815.0 132.5M732.7 80.2L736.0 78.6M736.0 78.6L744.9 78.1M622.0 141.2L624.4 143.5M622.0 141.2L638.7 140.3M622.0 141.2L638.7 140.3M603.9 131.2L622.0 141.2M590.6 118.4L593.2 121.0M593.2 121.0L592.1 123.5M580.0 121.8L589.0 119.6M589.0 119.6L590.6 118.4M589.0 119.6L590.1 122.2M590.1 122.2L592.1 123.5M588.5 125.8L592.1 123.5M580.0 121.8L588.5 125.8M523.3 586.0L527.8 591.2M523.3 586.0L527.8 591.2M458.9 683.5L470.6 691.7M739.3 254.1L739.9 256.8M652.5 308.8L654.7 322.3M660.1 337.3L666.0 334.1M648.2 351.3L658.2 342.9M756.5 360.4L754.2 370.9M754.2 370.9L767.0 382.7M649.0 187.5L670.0 162.2M668.5 151.5L670.0 162.2M670.2 144.2L668.5 151.5M641.4 162.5L646.8 167.0M641.4 162.5L646.8 167.0M641.4 162.5L646.8 167.0M646.8 167.0L655.2 157.9M655.2 157.9L654.7 156.8M654.7 156.8L657.1 154.0M657.1 154.0L658.7 146.5M658.7 146.5L657.2 146.1M649.3 142.9L659.3 139.2M659.3 139.2L673.7 128.3M664.7 111.5L665.9 110.3M665.9 110.3L673.7 128.3M638.7 140.3L649.3 142.9M540.9 793.7L551.8 789.2M521.3 791.9L540.9 793.7M526.8 803.0L536.3 798.8M536.3 798.8L540.9 793.7M521.3 791.9L525.1 789.8M521.3 791.9L525.1 789.8M522.4 805.0L521.3 791.9M526.8 803.0L536.8 813.5M522.4 805.0L526.8 803.0M521.1 809.3L522.0 810.5M522.0 810.5L527.3 814.0M522.4 805.0L536.8 813.5M518.1 803.0L522.4 805.0M498.5 784.1L518.1 803.0M521.1 809.3L522.4 805.0M568.0 795.1L572.8 793.4M565.8 788.3L572.8 793.4M554.4 788.9L565.8 788.3M586.8 776.4L590.0 779.6M590.0 779.6L592.3 752.5M590.0 779.6L602.6 746.5M551.8 789.2L590.0 779.6M590.0 779.6L594.4 783.2M572.8 793.4L594.4 783.2M559.0 653.6L597.5 675.6M559.0 653.6L590.5 659.0M413.2 139.5L417.6 157.3M368.2 123.5L413.2 139.5M413.2 139.5L424.0 126.8M413.2 139.5L424.0 126.8M422.3 114.7L424.6 116.5M426.7 122.3L429.6 122.9M414.7 121.2L422.3 114.7M413.2 139.5L414.7 121.2M527.3 814.0L531.0 821.4M540.4 830.8L543.2 830.0M540.4 830.8L541.5 834.2M540.4 830.8L541.5 834.2M534.0 827.1L536.2 826.6M534.0 827.1L536.2 826.6M539.5 825.3L540.7 826.7M539.5 825.3L540.7 826.7M535.9 821.2L539.5 821.9M535.9 821.2L539.5 821.9M539.5 825.3L545.6 829.6M539.5 825.3L545.6 829.6M536.8 813.5L541.4 818.3M541.4 818.3L539.5 821.9M539.5 821.9L539.5 825.3M539.5 821.9L539.5 825.3M539.5 825.3L540.4 830.8M539.5 825.3L540.4 830.8M523.2 821.4L540.4 830.8M534.0 827.1L540.4 830.8M523.2 821.4L534.0 827.1M531.0 821.4L534.0 827.1M520.7 811.0L521.1 809.3M520.7 811.0L521.1 809.3M523.2 821.4L524.6 827.6M523.2 821.4L524.6 827.6M534.6 812.9L536.8 813.5M534.6 812.9L536.8 813.5M743.8 472.0L758.8 440.0M728.3 424.8L743.8 472.0M738.3 475.3L743.8 472.0M743.8 472.0L781.3 483.4M734.8 475.5L738.3 475.3M734.8 475.5L738.3 475.3M467.9 629.5L473.8 629.7M460.5 627.9L467.9 629.5M460.5 627.9L467.9 629.5M454.0 632.9L460.5 627.9M559.7 689.1L560.9 689.9M553.2 688.0L563.9 686.7M597.5 675.6L599.4 678.1M597.5 675.6L599.4 678.1M605.1 679.3L614.7 674.4M605.1 679.3L614.7 674.4M737.5 196.9L738.7 201.2M738.9 637.5L744.0 627.0M779.9 664.3L794.4 671.5M794.4 671.5L805.2 660.1M805.2 660.1L807.5 661.0M146.9 514.9L195.3 482.3M181.7 482.4L195.3 482.3M195.3 482.3L200.2 475.2M179.6 477.7L181.7 482.4M656.6 105.4L664.7 111.5M656.6 105.4L656.7 106.7M656.6 105.4L656.7 106.7M656.6 105.4L661.1 110.4M656.6 105.4L661.1 110.4M655.6 106.1L656.6 105.4M655.6 106.1L656.6 105.4M651.2 727.7L653.1 728.9M651.2 727.7L653.1 728.9M649.1 729.4L653.1 728.9M649.1 729.4L653.1 728.9M450.1 27.6L452.4 32.6M568.7 529.7L572.7 529.6M572.7 529.6L581.7 534.9M572.7 529.6L581.7 534.9M708.5 621.2L729.0 619.5M661.1 110.4L667.9 96.6M666.4 104.1L667.3 105.4M667.3 105.4L668.5 101.2M661.1 110.4L668.5 101.2M668.5 101.2L690.9 102.4M667.9 96.6L668.5 101.2M618.7 291.6L624.7 296.5M621.0 307.6L626.9 298.2M624.7 296.5L626.9 298.2M621.0 307.6L626.9 298.2M615.2 324.3L621.0 307.6M321.2 472.0L359.1 441.5M359.1 441.5L367.5 433.4M332.9 322.6L334.4 321.2M200.4 427.2L238.4 426.6M477.4 646.1L482.8 640.2M449.2 855.8L446.6 851.9M449.2 855.8L446.6 851.9M449.2 855.8L446.6 851.9M488.5 627.9L488.7 625.1M488.5 627.9L488.7 625.1M487.9 633.3L488.1 630.5M653.2 283.2L655.6 286.0M270.2 347.2L286.9 326.2M286.9 326.2L284.8 318.8M592.4 217.6L598.3 204.2M575.5 251.3L580.2 233.9M580.2 233.9L592.4 217.6M575.5 251.3L580.2 233.9M580.2 233.9L614.8 225.4M704.4 285.3L705.9 285.0M665.9 634.8L666.8 617.9M640.8 622.3L665.9 634.8M744.4 678.6L746.0 679.4M746.0 679.4L746.7 680.5M743.7 682.2L746.7 680.5M735.4 673.2L743.7 682.2M519.9 584.7L523.3 586.0M519.9 584.7L523.3 586.0M723.7 357.0L722.3 359.9M821.6 131.5L823.9 135.2M44.2 596.7L52.7 602.1M521.9 37.5L526.3 36.6M520.5 42.1L519.5 36.1M520.5 42.1L519.5 36.1M520.5 42.1L521.9 37.5M726.6 279.2L729.0 279.3M726.6 279.2L729.0 279.3M655.2 157.9L657.6 157.6M343.9 700.8L345.9 700.0M343.1 702.3L343.9 700.8M343.1 702.3L343.9 700.8M186.3 491.8L191.7 484.3M191.7 484.3L200.2 475.2M191.7 484.3L200.2 475.2M470.6 691.7L477.5 688.3M259.5 545.0L274.7 554.2M553.6 719.1L576.4 735.3M576.4 735.3L592.3 752.5M766.9 115.6L772.1 90.3M766.9 115.6L772.1 90.3M568.0 795.1L569.7 798.2M554.4 788.9L568.0 795.1M475.9 625.0L477.4 622.4M473.5 623.4L477.4 622.4M152.1 464.1L191.7 484.3M191.7 484.3L152.1 464.1M473.2 154.6L499.3 160.2M499.3 160.2L518.3 163.7M498.9 636.2L498.9 637.3M498.9 636.2L498.9 637.3M498.9 636.2L498.9 637.3M493.5 640.3L496.2 639.4M496.2 639.4L498.0 638.0M498.0 638.0L498.9 637.3M654.7 322.3L656.4 323.2M481.6 663.6L490.8 653.6M296.3 380.3L283.5 360.4M296.3 380.3L318.8 371.3M289.9 103.3L299.0 94.8M252.6 367.6L279.8 349.1M477.2 619.2L481.8 629.4M481.4 630.5L481.8 629.4M477.2 619.2L481.8 629.4M480.5 627.8L482.0 633.8M477.2 619.2L480.5 627.8M480.5 627.8L482.0 633.8M477.2 619.2L480.5 627.8M480.5 627.8L482.0 633.8M477.2 619.2L481.4 630.5M481.4 630.5L482.0 633.8M488.8 642.0L490.2 643.9M486.7 643.4L488.8 642.0M486.0 641.9L486.7 643.4M517.2 161.6L580.5 153.8M517.7 133.6L517.2 161.6M518.3 163.7L517.2 161.6M518.3 163.7L517.2 161.6M479.2 210.0L517.2 161.6M662.3 253.1L665.5 254.4M752.7 203.3L772.5 233.8M743.9 213.6L769.2 213.8M539.7 328.1L544.8 331.8M395.7 687.4L396.6 689.4M722.7 109.5L732.7 80.2M340.6 702.5L347.0 708.4M347.0 708.4L346.6 745.1M346.6 745.1L347.0 708.4M299.1 384.5L314.2 365.9M314.2 365.9L334.4 321.2M653.0 286.8L655.6 286.0M517.7 133.6L529.7 133.0M477.2 857.7L481.6 857.6M481.6 857.6L482.7 863.1M488.4 92.1L490.2 85.2M490.2 85.2L508.2 85.8M665.9 634.8L683.1 648.2M683.1 648.2L684.0 649.2M104.2 531.3L121.9 526.1M538.0 794.8L540.9 793.7M538.0 794.8L540.9 793.7M490.9 637.5L492.6 635.5M658.2 342.9L666.0 334.1M294.8 698.3L309.4 673.5M309.4 673.5L294.8 698.3M655.0 264.3L662.3 253.1M493.7 676.3L499.9 699.5M499.9 699.5L494.4 701.2M512.7 718.7L518.0 723.3M348.4 700.5L362.4 702.8M362.4 702.8L365.7 701.1M660.6 322.8L662.6 326.2M660.6 322.8L662.7 318.8M475.0 864.4L477.3 856.2M477.3 856.2L475.0 864.4M407.8 774.3L413.5 753.8M521.3 791.9L533.3 793.2M156.9 635.6L162.3 600.5M530.3 83.8L546.3 99.8M546.3 99.8L549.1 98.3M546.3 99.8L549.1 98.3M851.4 630.4L854.7 632.6M851.4 630.4L854.7 632.6M708.5 621.2L736.1 646.0M558.1 773.8L565.8 788.3M430.1 124.7L441.3 121.6M429.6 122.9L430.1 124.7M714.3 271.1L712.4 263.4M660.1 337.3L660.3 338.9M181.7 482.4L183.8 479.3M646.8 167.0L647.5 173.2M765.0 319.1L763.9 326.2M500.3 651.8L500.2 648.8M500.2 648.8L502.9 652.2M629.7 427.8L630.7 424.3M498.6 645.4L500.2 648.8M656.8 108.1L661.1 110.4M656.6 105.4L658.0 103.5M458.5 369.6L476.6 345.9M476.6 345.9L488.0 291.7M693.8 454.6L697.0 458.5M748.5 657.5L749.0 666.9M744.6 675.9L750.8 670.9M517.0 638.8L517.9 636.0M490.9 637.5L493.2 637.8M226.7 114.9L230.8 110.6M519.9 584.7L523.3 586.0M519.9 584.7L523.3 586.0M523.3 586.0L530.4 588.1M340.9 541.0L344.1 540.0M340.9 541.0L344.1 540.0M209.7 562.0L213.0 559.7M209.7 562.0L213.0 559.7M448.1 537.5L451.5 559.7M448.1 537.5L451.5 559.7M440.6 396.2L504.7 381.7M321.2 472.0L338.0 473.5M296.1 497.2L321.2 472.0M296.1 497.2L321.2 472.0M296.1 497.2L321.2 472.0M228.1 466.8L264.5 475.3M712.4 263.4L718.6 242.5M712.4 263.4L716.8 261.9M725.0 237.9L716.8 261.9M714.3 271.1L714.5 272.7M704.1 369.8L723.7 357.0M698.2 370.4L704.1 369.8M647.1 483.4L671.0 483.9M544.8 331.8L548.0 334.1M544.8 331.8L548.0 334.1M549.5 323.2L548.0 334.1M513.1 232.9L531.7 243.4M548.7 307.2L575.5 251.3M761.9 320.6L765.0 319.1M738.3 475.3L781.3 483.4M738.3 475.3L781.3 483.4M728.3 424.8L743.8 437.9M293.6 495.9L296.1 497.2M274.7 554.2L291.1 624.1M274.7 554.2L293.1 502.9M293.1 502.9L296.1 497.2M190.8 611.8L209.7 562.0M190.8 611.8L241.3 608.1M162.3 600.5L190.8 611.8M241.3 608.1L291.1 624.1M66.6 585.0L112.3 594.2M112.3 594.2L98.1 622.7M140.9 598.9L162.3 600.5M133.1 595.2L140.9 598.9M98.1 622.7L127.6 594.8M127.6 594.8L133.1 595.2M133.1 595.2L140.9 598.9M723.7 357.0L741.2 354.4M741.2 354.4L756.5 360.4M756.5 360.4L772.6 358.2M501.3 521.2L497.1 520.2M501.3 521.2L497.1 520.2M427.5 343.2L450.5 331.1M427.5 343.2L440.6 396.2M320.0 431.3L355.1 409.1M320.0 431.3L326.1 428.6M355.1 409.1L373.2 398.5M355.1 409.1L373.2 398.5M712.4 263.4L717.9 268.6M712.4 263.4L717.9 268.6M305.5 665.5L310.9 659.8M305.5 665.5L310.9 659.8M291.1 624.1L305.5 665.5M41.6 595.8L44.2 596.7M41.6 595.8L44.2 596.7M44.2 596.7L45.3 592.4M45.3 592.4L45.8 590.6M45.8 590.6L54.0 550.7M44.2 596.7L66.6 585.0M66.3 602.5L66.6 585.0M104.2 531.3L107.4 537.5M54.0 550.7L64.9 538.3M64.9 538.3L104.2 531.3M54.0 550.7L104.2 531.3M24.0 592.2L44.2 596.7M24.0 592.2L41.6 595.8M482.7 865.6L482.7 863.1M446.6 851.9L459.9 851.5M439.4 829.3L456.4 842.3M456.4 842.3L459.9 851.5M439.4 829.3L446.6 851.9M666.0 334.1L723.7 357.0M745.7 514.0L781.3 483.4M787.1 490.8L792.0 499.4M686.5 541.2L714.9 524.8M714.9 524.8L745.7 514.0M719.3 683.0L750.8 670.9M688.7 106.8L688.8 104.9M732.7 80.2L738.2 89.7M732.7 80.2L738.2 89.7M688.7 106.8L688.8 104.9M673.7 128.3L692.9 130.1M673.7 128.3L674.7 124.4M475.8 278.1L488.0 291.7M475.8 278.1L488.0 291.7M488.0 291.7L497.6 293.5M488.0 291.7L497.6 293.5M719.4 138.6L723.3 144.8M719.4 138.6L729.5 151.5M719.4 138.6L734.8 165.9M738.7 201.2L743.9 213.6M724.7 127.7L724.3 136.3M724.3 136.3L729.5 151.5M733.2 171.8L737.3 171.9M737.3 171.9L734.8 165.9M729.3 178.9L734.8 182.4M734.8 182.4L752.7 203.3M729.3 178.9L734.8 182.4M734.8 182.4L729.5 151.5M488.0 291.7L513.1 232.9M488.0 291.7L513.1 232.9M513.1 232.9L513.9 237.5M745.3 139.1L778.5 139.0M778.5 139.0L815.0 132.5M815.0 132.5L815.1 143.0M815.0 132.5L815.1 143.0M665.5 254.4L663.4 253.7M647.2 205.7L650.1 190.8M647.2 205.7L649.0 187.5M647.2 205.7L652.8 222.8M662.0 245.9L663.4 245.8M663.4 245.8L663.4 253.7M663.4 253.7L662.3 253.1M661.2 237.6L662.2 237.2M652.8 222.8L658.8 226.0M658.8 226.0L663.2 225.2M725.0 237.9L739.3 254.1M725.0 237.9L728.4 236.3M711.8 249.1L713.3 250.4M711.8 249.1L713.3 250.4M711.8 249.1L713.3 250.4M711.8 249.1L713.3 250.4M711.8 249.1L712.4 263.4M648.2 351.3L660.0 355.5M748.5 657.5L754.3 659.1M766.9 115.6L784.2 106.2M766.9 115.6L784.2 106.2M536.8 813.5L551.8 789.2M521.8 733.9L528.8 721.6M758.9 281.1L760.0 279.8M766.9 274.0L774.2 270.9M774.2 270.9L785.4 274.7M666.0 334.1L684.6 333.1M765.0 319.1L762.4 314.6M758.9 281.1L763.5 311.8M763.5 311.8L765.0 319.1M104.2 531.3L146.9 514.9M200.2 475.2L205.2 484.3M186.3 491.8L200.2 475.2M448.1 537.5L451.5 559.7M440.6 396.2L479.5 460.6M230.8 110.6L270.8 161.1M270.8 161.1L269.4 143.5M269.4 143.5L289.9 103.3M270.8 161.1L289.9 103.3M340.6 702.5L347.0 708.4M347.0 708.4L384.1 698.8M340.6 702.5L348.4 700.5M365.7 701.1L378.0 689.3M516.3 604.7L523.3 586.0M483.0 675.7L493.7 676.3M483.0 675.7L493.7 676.3M508.2 638.2L510.3 639.2M750.8 670.9L779.9 664.3M724.7 127.7L766.9 115.6M670.2 144.2L673.7 128.3M638.7 140.3L642.8 142.4M638.7 140.3L642.8 142.4M636.7 144.2L638.7 140.3M636.7 144.2L638.7 140.3M723.7 357.0L723.9 339.4M772.6 358.2L798.9 355.4M783.7 342.2L788.2 313.5M772.6 358.2L783.7 342.2M477.2 619.2L482.8 622.6M477.2 619.2L488.5 627.9M477.2 619.2L488.5 627.9M551.8 789.2L554.4 788.9M551.8 789.2L554.4 788.9M551.8 789.2L554.4 788.9M655.6 286.0L659.0 275.8M659.0 275.8L662.3 253.1M652.5 308.8L662.7 318.8M652.5 308.8L662.7 318.8M662.7 318.8L666.0 334.1M655.6 286.0L662.7 318.8M655.6 286.0L662.0 304.0M662.0 304.0L662.7 318.8M762.4 314.6L767.7 303.4M765.0 319.1L772.1 301.3M767.7 303.4L772.1 301.3M765.0 319.1L788.2 313.5M772.1 301.3L788.2 313.5M788.2 313.5L797.2 302.3M662.7 318.8L668.7 327.2M662.7 318.8L684.6 333.1M666.0 334.1L668.7 327.2M704.4 285.3L712.4 263.4M662.7 318.8L704.4 285.3M708.3 310.0L711.3 311.3M711.3 311.3L727.9 310.6M727.9 310.6L737.0 301.6M666.9 474.1L697.0 458.5M647.1 483.4L671.0 483.9M647.1 483.4L666.9 474.1M681.1 373.1L698.2 370.4M681.1 373.1L711.2 388.9M711.2 388.9L723.7 357.0M697.0 458.5L704.9 418.2M704.9 418.2L711.2 388.9M645.2 413.6L657.5 425.3M645.2 413.6L657.5 425.3M657.5 425.3L697.0 458.5M640.7 407.7L645.2 413.6M604.4 410.1L630.7 424.3M815.0 132.5L816.3 128.5M815.0 132.5L816.3 128.5M815.0 132.5L819.3 130.9M815.0 132.5L823.9 135.2M815.1 143.0L823.9 135.2M815.1 143.0L823.9 135.2M823.9 135.2L835.5 141.5M602.9 575.5L608.5 586.8M602.9 575.5L629.4 533.7M629.4 533.7L636.8 505.1M636.8 505.1L647.1 483.4M488.5 627.9L491.9 629.0M494.0 625.9L506.2 630.5M523.3 586.0L550.4 558.6M550.4 558.6L581.7 534.9M581.7 534.9L592.4 530.9M592.4 530.9L595.8 528.8M595.8 528.8L605.1 515.5M581.7 534.9L598.2 533.1M598.2 533.1L599.9 534.1M581.7 534.9L587.8 540.6M581.7 534.9L587.8 540.6M605.1 515.5L647.1 483.4M624.7 296.5L626.6 293.5M626.6 293.5L632.5 296.3M632.5 296.3L646.9 303.7M591.4 512.7L595.8 528.8M510.3 639.2L517.0 638.8M517.9 636.0L539.0 629.5M479.2 210.0L513.1 232.9M450.5 331.1L475.8 278.1M440.6 396.2L488.0 291.7M440.6 396.2L458.5 369.6M510.4 572.8L523.3 586.0M510.4 572.8L510.5 549.6M510.5 549.6L512.3 548.3M543.7 446.5L575.5 483.0M537.3 451.9L538.4 451.9M538.4 451.9L543.7 446.5M575.5 483.0L593.8 498.3M591.4 512.7L593.8 498.3M531.5 327.6L536.0 339.6M536.0 339.6L552.6 374.7M563.5 365.9L603.0 356.1M552.6 374.7L556.0 402.8M519.4 380.3L552.6 374.7M504.7 381.7L519.4 380.3M531.5 327.6L548.7 307.2M252.6 367.6L270.2 347.2M288.6 254.2L334.4 321.2M313.6 273.3L334.4 321.2M334.4 321.2L374.8 267.5M238.4 426.6L244.8 456.4M232.8 412.6L238.4 426.6M291.7 373.8L299.1 384.5M291.7 373.8L296.3 380.3M291.7 373.8L296.3 380.3M292.7 343.3L292.1 342.5M292.1 342.5L334.4 321.2M252.6 367.6L291.7 373.8M232.8 412.6L252.6 367.6M264.5 475.3L271.1 477.1M267.4 454.6L284.0 424.1M244.8 456.4L267.4 454.6M200.4 427.2L238.4 426.6M267.4 454.6L321.2 472.0M284.0 424.1L299.1 384.5M486.7 643.4L490.8 653.6M486.7 643.4L490.8 653.6M488.5 627.9L494.0 625.9M491.9 629.0L494.0 625.9M575.5 251.3L585.7 258.2M384.7 202.5L417.6 157.3M580.5 153.8L611.2 171.9M611.2 171.9L641.4 162.5M611.2 171.9L641.4 162.5M622.5 188.6L646.4 184.5M646.4 184.5L649.0 187.5M646.4 184.5L649.0 187.5M650.1 190.8L649.0 187.5M371.5 238.9L384.7 202.5M371.5 238.9L374.8 267.5M513.1 232.9L533.8 263.6M550.6 233.9L575.5 251.3M575.5 251.3L610.4 277.3M270.2 347.2L279.8 349.1M279.8 349.1L291.7 373.8M284.7 279.6L288.6 254.2M299.2 257.8L313.6 273.3M384.9 171.1L417.6 157.3M366.6 180.4L384.9 171.1M299.2 257.8L312.7 236.0M312.7 236.0L322.5 226.5M338.0 210.9L338.9 212.5M338.9 212.5L366.6 180.4M461.1 150.0L473.2 154.6M502.2 147.1L518.3 163.7M441.3 121.6L480.5 126.2M480.5 126.2L480.9 123.5M441.3 121.6L461.1 150.0M475.0 864.4L477.3 856.2M475.0 864.4L477.3 856.2M477.3 856.2L475.0 864.4M564.1 101.5L579.3 107.0M546.3 99.8L564.1 101.5M519.4 123.9L527.5 118.6M527.5 118.6L546.3 99.8M508.2 85.8L546.3 99.8M508.2 85.8L530.3 83.8M490.2 85.2L508.2 85.8M580.0 121.8L589.0 119.6M580.0 121.8L589.0 119.6M580.0 121.8L589.0 119.6M579.3 107.0L589.0 119.6M562.5 122.0L580.0 121.8M562.5 122.0L580.0 121.8M654.2 236.9L662.3 253.1M658.3 250.1L662.3 253.1M614.8 225.4L624.5 213.3M624.5 213.3L647.2 205.7M366.1 624.7L445.0 646.5M340.9 541.0L344.1 540.0M325.5 626.2L366.1 624.7M291.1 624.1L325.5 626.2M341.7 673.0L378.0 689.3M341.7 673.0L378.0 689.3M378.0 689.3L388.2 680.3M366.1 624.7L383.7 654.5M335.6 587.0L353.9 581.1M353.9 581.1L357.6 580.7M357.6 580.7L366.1 624.7M355.1 409.1L367.5 433.4M367.5 433.4L440.6 396.2M464.4 268.3L465.5 268.6M465.5 268.6L474.5 275.1M474.5 275.1L476.3 276.0M476.3 276.0L475.8 278.1M504.9 195.5L512.5 199.4M512.5 199.4L513.1 232.9M427.7 245.7L460.4 250.6M427.7 245.7L431.5 274.4M520.5 342.8L536.0 339.6M717.9 134.0L719.4 138.6M209.7 562.0L216.6 563.0M216.6 563.0L219.6 562.4M219.6 562.4L220.9 561.2M220.9 561.2L220.7 557.3M124.9 569.1L133.1 595.2M258.2 550.4L259.5 545.0M344.1 540.0L377.8 540.6M436.5 467.8L479.5 460.6M440.6 396.2L445.3 430.1M445.3 430.1L460.8 451.2M460.8 451.2L479.5 460.6M459.0 528.1L479.5 460.6M440.6 396.2L445.1 477.9M792.1 118.5L799.5 117.0M784.2 106.2L792.1 118.5M422.3 114.7L441.3 121.6M429.6 122.9L441.3 121.6M422.3 114.7L439.5 76.7M422.3 114.7L436.6 51.8M436.6 51.8L439.5 76.7M289.9 103.3L329.2 49.1M329.2 49.1L355.0 76.0M355.0 76.0L364.5 79.2M355.0 76.0L364.5 79.2M355.0 76.0L364.5 79.2M364.5 79.2L368.2 123.5M413.2 139.5L417.6 157.3M230.8 110.6L231.0 102.2M230.8 110.6L231.0 102.2M270.8 161.1L293.3 145.7M270.8 161.1L293.3 145.7M331.1 86.5L355.0 76.0M289.9 103.3L299.4 64.1M289.9 103.3L299.0 94.8M439.4 829.3L445.0 803.6M445.0 803.6L461.6 780.3M461.6 780.3L479.5 746.8M482.7 863.1L483.7 865.9M482.7 863.1L483.7 865.9M480.6 865.3L482.7 863.1M480.6 865.3L482.7 863.1M495.2 867.3L492.8 862.7M482.7 863.1L492.8 862.7M492.8 862.7L489.7 864.9M482.7 863.1L483.8 860.8M482.7 863.1L483.8 860.8M478.2 845.8L482.7 863.1M477.3 856.2L482.7 863.1M477.3 856.2L482.7 863.1M478.2 845.8L479.3 834.4M478.2 845.8L479.3 834.4M477.0 845.1L478.2 845.8M527.3 814.0L536.8 813.5M512.1 825.7L523.2 821.4M512.1 825.7L523.2 821.4M509.9 823.3L512.1 825.7M498.0 821.0L512.1 825.7M496.0 821.5L498.0 821.0M496.0 821.5L498.0 821.0M528.8 721.6L553.6 719.1M528.8 721.6L553.6 719.1M528.8 721.6L553.6 719.1M479.5 746.8L481.0 740.4M479.5 746.8L481.0 740.4M483.7 746.1L486.0 763.2M486.0 763.2L498.5 784.1M479.5 746.8L483.7 746.1M479.5 746.8L483.7 746.1M431.6 756.1L479.5 746.8M449.2 731.4L448.8 734.6M448.8 734.6L452.4 759.1M449.2 731.4L479.5 746.8M590.5 659.0L614.7 674.4M553.6 719.1L563.9 686.7M563.9 686.7L578.5 668.4M578.5 668.4L597.5 675.6M597.5 675.6L614.7 674.4M597.5 675.6L614.7 674.4M608.5 586.8L640.8 622.3M614.7 674.4L622.4 659.1M622.4 659.1L627.7 656.7M622.3 650.6L625.3 652.5M625.3 652.5L633.9 634.5M633.9 634.5L665.9 634.8M519.8 738.0L521.8 733.9M519.8 738.0L528.8 721.6M518.0 723.3L521.8 733.9M518.0 723.3L528.8 721.6M731.3 568.2L756.3 582.3M476.6 616.3L477.2 619.2M516.3 604.7L523.3 586.0M516.3 604.7L523.3 586.0M489.4 670.1L492.1 675.2M492.1 675.2L493.7 676.3M489.4 670.1L489.5 662.4M489.5 662.4L490.8 653.6M488.2 661.3L489.5 662.4M490.8 653.6L499.6 660.5M499.6 660.5L509.5 683.4M520.8 696.2L528.8 721.6M509.5 683.4L520.8 696.2M493.7 676.3L509.5 683.4M460.0 631.2L460.5 627.9M456.7 650.4L464.7 647.7M445.0 646.5L464.7 647.7M445.0 646.5L456.7 650.4M445.0 646.5L449.6 646.4M445.0 646.5L449.6 646.4M445.0 646.5L449.6 646.4M449.6 646.4L467.3 653.7M449.6 646.4L464.7 656.8M464.7 656.8L467.3 653.7M750.5 615.0L765.5 635.5M765.5 635.5L773.2 647.4M773.2 647.4L779.9 664.3M750.5 615.0L752.4 613.8M808.7 560.6L810.2 561.6M793.6 587.4L780.5 574.3M780.5 574.3L799.6 567.7M551.8 789.2L556.1 764.3M554.9 738.9L556.1 764.3M553.6 719.1L554.9 738.9M743.7 682.2L746.7 680.5M746.7 680.5L750.8 670.9M743.7 682.2L746.2 682.8M746.2 682.8L750.8 670.9M748.5 657.5L749.0 666.9M749.0 666.9L750.8 670.9M749.0 666.9L750.8 670.9M729.0 619.5L750.5 615.0M729.0 619.5L738.9 637.5M736.1 646.0L738.9 637.5M736.1 646.0L738.9 637.5M736.1 646.0L736.4 647.7M736.1 646.0L736.4 647.7M684.0 649.2L736.1 646.0M718.4 707.3L718.3 699.9M643.4 747.3L653.1 728.9M643.4 747.3L653.1 728.9M653.1 728.9L680.5 704.0M719.3 683.0L718.3 699.9M680.5 704.0L693.0 696.4M693.0 696.4L719.3 683.0M719.3 683.0L735.4 673.2M643.4 747.3L646.3 741.5M646.3 741.5L654.2 767.0M781.3 483.4L787.1 490.8M789.7 508.8L835.1 510.9M789.7 508.8L792.0 499.4M788.5 504.6L792.0 499.4M781.3 483.4L788.5 504.6M835.1 510.9L839.3 512.5M839.3 512.5L837.5 526.2M837.5 526.2L837.9 530.2M837.9 530.2L837.6 538.5M837.9 530.2L837.6 538.5M819.7 524.0L835.1 510.9M819.7 524.0L835.1 510.9M819.7 524.0L828.2 525.7M828.2 525.7L837.5 526.2M810.2 529.6L819.7 524.0M840.0 584.8L842.1 564.5M841.1 550.9L842.1 564.5M841.1 550.9L842.1 564.5M840.5 553.8L841.1 550.9M840.5 553.8L841.1 550.9M837.6 538.5L841.1 550.9M817.6 538.8L824.6 559.5M817.6 538.8L841.1 550.9M554.4 788.9L568.0 795.1M610.4 277.3L626.6 293.5M585.7 258.2L626.6 293.5M483.2 608.2L481.7 610.7M481.7 610.7L487.5 612.8M483.2 608.2L486.3 607.6M483.2 608.2L486.3 607.6M486.3 607.6L492.9 609.4M486.3 607.6L492.9 609.4M486.3 607.6L492.9 609.4M473.5 623.4L473.8 629.7M475.9 625.0L477.2 619.2M473.5 623.4L475.9 625.0M460.5 627.9L467.3 622.2M467.3 622.2L468.8 622.3M468.8 622.3L470.3 621.7M470.3 621.7L473.5 623.4M486.3 607.6L497.1 604.1M497.1 604.1L503.7 601.5M492.9 609.4L495.6 606.6M492.9 609.4L495.6 606.6M491.9 629.0L506.2 630.5M491.9 629.0L506.2 630.5M500.7 630.3L506.2 630.5M500.7 630.3L506.2 630.5M514.7 606.9L516.3 604.7M513.0 619.1L514.7 606.9M491.4 652.3L490.8 653.6M491.4 652.3L490.8 653.6M107.4 537.5L124.9 569.1M848.6 602.9L851.8 614.6M842.1 564.5L848.6 602.9M840.0 584.8L848.6 602.9M848.0 577.7L851.4 590.0M837.6 613.8L841.2 614.5M841.2 614.5L851.4 630.4M837.6 613.8L851.8 614.6M837.6 613.8L843.3 614.9M843.3 614.9L851.8 614.6M837.6 613.8L848.6 602.9M851.4 630.4L851.8 614.6M493.2 637.8L497.3 636.3M864.0 618.7L876.0 640.6M851.4 630.4L864.0 618.7M848.6 602.9L856.2 605.6M856.2 605.6L856.4 602.3M842.1 564.5L842.4 566.3M842.4 566.3L848.0 577.7M492.1 642.5L493.5 644.4M493.5 644.4L500.2 648.8M506.5 647.7L510.3 639.2M500.2 648.8L506.5 647.7M500.2 648.8L510.3 639.2M490.8 653.6L493.7 652.1M490.8 653.6L499.3 649.4M499.3 649.4L501.3 649.8M501.3 649.8L500.2 648.8M498.6 645.4L500.2 648.8M492.1 642.5L498.6 645.4M492.1 642.5L493.5 640.3M493.2 637.8L493.5 640.3M489.4 639.8L493.5 640.3M489.3 638.3L493.5 640.3M497.3 636.3L498.9 637.3M493.5 640.3L506.9 640.1M506.9 640.1L510.3 639.2M493.5 640.3L506.9 640.1M506.9 640.1L510.3 639.2M487.2 634.9L487.9 633.3M487.2 634.9L487.9 633.3M488.1 630.5L491.9 629.0M488.1 630.5L488.5 627.9M487.9 633.3L488.1 630.5M486.6 633.1L488.1 630.5M486.0 631.2L486.6 633.1M486.0 631.2L488.1 630.5M488.1 630.5L488.5 627.9M486.0 631.2L488.1 630.5M727.3 77.8L732.7 80.2M727.3 77.8L738.2 89.7M715.9 88.8L727.3 77.8M699.5 95.4L715.9 88.8M699.5 95.4L699.8 108.9M699.5 95.4L699.8 108.9M690.9 102.4L699.8 108.9M690.9 102.4L699.8 108.9M688.8 104.9L690.9 102.4M688.8 104.9L690.9 102.4M661.1 110.4L667.3 105.4M667.3 105.4L665.9 110.3M665.9 110.3L671.7 114.6M680.1 112.2L681.6 112.7M680.1 112.2L681.6 112.7M673.7 128.3L681.6 112.7M671.7 114.6L681.6 112.7M681.6 112.7L691.0 110.7M688.8 104.9L691.0 110.7M691.0 110.7L696.4 113.9M692.9 130.1L719.4 138.6M699.8 108.9L719.4 138.6M707.7 110.0L724.7 127.7M482.0 633.8L484.8 634.2M673.7 128.3L680.8 132.2M719.4 138.6L724.7 127.7M441.2 38.4L441.9 44.9M436.6 51.8L441.9 44.9M428.5 43.7L436.6 51.8M515.8 164.4L518.3 163.7M271.3 274.7L288.6 254.2M288.6 254.2L291.5 242.6M285.3 243.4L291.5 242.6M285.3 243.4L288.6 254.2M283.3 233.6L282.7 235.9M282.7 235.9L285.3 243.4M288.6 254.2L293.0 236.7M288.6 254.2L293.0 236.7M283.3 233.6L293.0 236.7M283.3 233.6L289.4 216.3M283.3 233.6L289.4 216.3M275.3 219.1L289.4 216.3M289.4 238.5L293.0 236.7M285.3 243.4L287.0 241.3M571.6 606.0L608.5 586.8M539.0 629.5L571.6 606.0M383.7 654.5L388.2 680.3M395.7 687.4L395.0 703.1M395.7 687.4L395.0 703.1M395.7 687.4L389.1 688.8M389.1 688.8L395.0 703.1M378.0 689.3L395.7 687.4M378.0 689.3L395.7 687.4M395.7 687.4L398.9 683.9M395.7 687.4L398.9 683.9M398.9 683.9L410.9 684.0M410.9 684.0L421.3 664.3M421.3 664.3L449.6 646.4M336.1 699.8L340.6 702.5M336.1 699.8L340.6 702.5M490.0 637.1L491.4 632.7M488.8 635.6L490.3 634.2M490.3 634.2L491.4 632.7M488.5 627.9L490.3 634.2M488.8 635.6L491.4 632.7M488.8 635.6L493.2 637.8M488.8 635.6L490.3 634.2M482.8 640.2L486.2 637.3M340.6 702.5L343.9 700.8M343.9 700.8L365.7 701.1M365.7 701.1L395.0 703.1M378.0 689.3L387.2 690.0M387.2 690.0L384.1 698.8M384.1 698.8L395.0 703.1M486.0 641.9L487.9 639.6M486.0 641.9L487.2 638.8M486.0 641.9L487.4 640.6M486.0 641.9L487.4 640.6M486.4 639.9L486.7 643.4M486.2 637.3L486.4 639.9M486.0 641.9L486.7 643.4M484.4 642.3L486.0 641.9M484.4 642.3L485.6 639.1M481.5 644.7L484.4 642.3M483.9 634.4L484.2 635.6M482.0 633.8L483.9 634.4M482.0 633.8L484.8 634.2M483.0 635.2L484.2 635.6M482.0 633.8L483.0 635.2M482.0 633.8L483.0 635.2M479.8 635.4L482.0 633.8M479.8 635.4L483.1 637.2M479.8 635.4L482.3 636.3M479.7 638.5L479.8 635.4M475.2 639.9L477.8 641.7M475.2 639.9L477.8 641.7M477.4 646.1L482.8 640.2M485.6 639.1L486.2 637.3M482.8 640.2L485.6 639.1M482.8 640.2L483.7 638.4M479.7 638.5L482.4 638.0M479.7 638.5L482.4 638.0M482.4 638.0L486.2 637.3M479.7 638.5L480.6 639.9M480.6 639.9L482.8 640.2M477.8 641.7L479.7 638.5M477.6 639.5L479.7 638.5M477.6 639.5L477.8 641.7M464.7 647.7L477.8 641.7M477.4 646.1L477.8 641.7M477.4 646.1L480.1 644.5M480.1 644.5L482.8 640.2M480.1 644.5L481.5 644.7M490.8 653.6L474.7 654.5M727.0 276.4L728.0 276.6M487.9 633.3L486.0 631.2M490.6 614.9L490.7 617.1M200.4 427.2L158.9 436.1M499.3 160.2L499.0 162.3M498.0 638.0L498.9 637.3M430.8 117.0L441.3 121.6M264.5 475.3L265.3 458.2M265.3 458.2L267.4 454.6M264.5 475.3L265.3 458.2M422.3 114.7L430.8 117.0M502.2 147.1L480.5 126.2M608.5 586.8L659.9 556.9M671.0 483.9L678.2 478.0M479.2 210.0L478.8 248.7M478.8 248.7L477.0 261.6M215.8 467.9L219.5 467.3M288.6 254.2L288.2 257.0M503.3 221.5L504.7 216.2M503.3 224.7L513.1 232.9M536.5 246.4L575.5 251.3M536.5 246.4L531.7 243.4M479.2 210.0L430.8 163.7M264.5 475.3L321.2 472.0M697.0 458.5L678.2 478.0M444.2 519.7L432.8 521.4M752.4 613.8L756.3 582.3M554.4 788.9L554.6 794.6M835.3 603.0L837.6 613.8M127.1 523.7L125.7 524.2M690.9 102.4L692.7 98.2M690.9 102.4L692.7 98.2M700.1 99.1L699.5 95.4M477.8 617.9L475.6 618.0M508.7 605.7L503.4 610.9M508.7 605.7L516.3 604.7M690.9 102.4L699.0 104.1M699.0 104.1L700.1 99.1M436.6 51.8L452.4 32.6M695.8 89.4L698.0 92.8M695.8 89.4L698.0 92.8M698.0 92.8L699.5 95.4M698.0 92.8L699.5 95.4M487.9 648.8L491.4 652.3M675.4 586.4L677.0 578.8M282.7 235.9L283.5 236.3M706.4 593.6L743.6 598.1M763.0 580.3L767.2 571.0M766.9 572.9L763.5 571.0M780.5 574.3L763.0 580.3M690.9 102.4L700.1 99.1M739.5 93.6L747.5 99.9M745.5 101.8L742.2 106.1M792.1 118.5L793.8 122.2M581.7 534.9L592.4 530.9M635.7 407.6L645.2 413.6M604.4 410.1L635.7 407.6M722.3 117.2L724.7 127.7M471.3 619.2L470.3 621.7M470.3 621.7L471.3 619.2M661.1 110.4L659.4 106.6M659.4 106.6L661.1 110.4M712.4 263.4L716.8 261.9M445.4 576.2L451.5 559.7M445.4 576.2L448.6 572.9M448.6 572.9L451.5 559.7M851.4 590.0L849.7 601.2M659.0 275.8L655.5 276.9M478.2 845.8L481.6 857.6M646.9 303.7L642.3 303.3M646.9 303.7L652.5 308.8M642.3 303.3L641.4 302.8M641.4 302.8L633.8 297.1M642.3 303.3L641.4 302.8M633.8 297.1L632.5 296.3M632.5 296.3L633.8 297.1M632.5 296.3L633.8 297.1M632.5 296.3L626.9 298.2M707.6 279.0L707.0 280.9M707.6 279.0L707.0 280.9M704.4 285.3L705.7 282.9M684.6 333.1L697.6 334.7M697.6 334.7L701.1 327.1M658.3 250.1L655.3 248.9M655.3 248.9L662.3 253.1M654.2 236.9L655.3 248.9M662.0 245.9L663.4 245.8M707.0 280.9L707.6 279.0M708.2 278.0L708.9 276.8M708.9 276.8L708.2 278.0M708.2 278.0L708.9 276.8M705.7 282.9L707.0 280.9M707.0 280.9L705.7 282.9M708.2 278.0L707.6 279.0M661.2 237.6L658.8 226.0M655.2 157.9L654.7 156.8M559.4 370.8L563.5 365.9M512.2 232.2L550.6 233.9M477.0 261.6L475.8 278.1M689.9 98.5L690.8 96.8M464.4 268.3L475.8 278.1M431.5 274.4L464.4 268.3M460.4 250.6L465.5 268.6M460.4 250.6L460.5 249.4M476.3 276.0L474.5 275.1M743.0 135.9L745.3 139.1M738.2 135.5L743.0 135.9M729.5 151.5L734.2 158.5M722.7 109.5L722.3 117.2M322.5 226.5L338.9 212.5M338.0 473.5L344.1 540.0M602.6 746.5L601.1 745.5M279.8 349.1L292.1 342.5M517.7 133.6L519.4 123.9M758.9 281.1L760.9 280.4M756.2 304.5L763.5 311.8M478.8 248.7L475.8 278.1M663.4 245.8L661.2 237.6M477.8 617.9L477.2 619.2M451.5 559.7L456.7 566.6M517.9 636.0L517.0 634.6M511.2 633.8L513.5 633.9M511.2 633.8L509.0 633.2M508.2 638.2L508.5 634.8M503.3 221.5L503.3 224.7M763.0 580.3L756.3 582.3M810.2 561.6L824.6 559.5M417.6 157.3L430.8 163.7M598.3 204.2L601.8 201.2M718.6 242.5L725.0 237.9M478.2 845.8L490.0 835.7M477.2 619.2L477.8 617.9M734.8 182.4L737.5 196.9M734.8 182.4L737.3 171.9M734.8 165.9L734.2 158.5M833.3 624.9L841.2 614.5M431.6 630.7L422.1 621.2M493.7 676.3L492.1 675.2M305.5 665.5L307.7 669.0M164.8 539.5L148.1 515.4M601.8 201.2L622.5 188.6M510.5 549.6L506.7 521.3M760.9 280.4L766.9 274.0M793.9 651.3L805.2 660.1M387.2 690.0L389.1 688.8M399.7 698.2L395.0 703.1M344.1 540.0L360.4 554.2M348.2 548.1L344.1 540.0M515.9 808.0L522.4 805.0M512.8 805.6L515.9 808.0M440.8 581.8L445.4 576.2M719.2 241.6L718.6 242.5M482.8 622.6L488.5 627.9M760.0 279.8L760.9 280.4M714.0 324.0L711.3 311.3M723.9 339.4L697.6 334.7M650.1 190.8L649.0 187.5M649.0 187.5L648.7 188.5M659.3 139.2L658.7 146.5M649.0 221.2L652.8 222.8M460.0 631.2L445.0 646.5M510.3 639.2L508.2 638.2M474.7 654.5L473.8 656.3M491.4 652.3L490.8 653.6M504.6 638.9L510.3 639.2M493.7 652.1L499.3 649.4M506.9 640.1L498.9 637.3M487.1 645.5L491.4 652.3M490.8 653.6L491.4 652.3M491.4 652.3L490.8 653.6M710.3 275.6L712.4 263.4M706.4 593.6L689.3 589.1M689.3 589.1L675.4 586.4M738.1 130.6L738.2 135.5M435.3 641.7L434.0 653.5M344.4 549.5L348.2 548.1M451.5 559.7L472.1 611.4M471.3 619.2L475.6 618.0M477.2 619.2L480.0 611.8M743.7 682.2L745.7 681.1M743.9 213.6L712.4 263.4M719.3 683.0L738.9 683.2M739.5 684.7L738.9 683.2M45.8 590.6L54.0 550.7M506.7 521.3L501.3 521.2M477.2 619.2L477.8 617.9M632.4 440.3L637.5 439.0M506.2 630.5L508.5 634.8M554.4 788.9L564.9 791.2M707.6 279.0L707.0 280.9M750.8 670.9L749.0 666.9M477.2 619.2L476.6 616.3M666.0 334.1L684.6 333.1M310.0 255.5L344.5 248.0M472.2 655.0L467.3 653.7M672.0 316.8L669.2 316.5M512.2 232.2L513.1 232.9M513.1 232.9L512.2 232.2M512.2 232.2L513.1 232.9M509.9 808.9L515.9 808.0M515.9 808.0L522.4 805.0M489.1 834.9L490.0 835.7M474.3 614.0L473.4 612.7M474.3 614.0L473.4 612.7M472.1 611.4L456.7 566.6M444.2 519.7L448.1 537.5M650.1 190.8L648.7 188.5M648.7 188.5L649.0 187.5M498.9 637.3L504.6 638.9M499.9 699.5L512.7 718.7M484.6 645.6L491.4 652.3M487.9 648.8L490.8 653.6M477.2 619.2L482.8 622.6M491.4 613.3L490.6 614.9M491.4 613.3L490.6 614.9M493.0 611.7L491.4 613.3M714.5 272.7L710.3 275.6M431.5 573.5L445.4 576.2M849.7 601.2L853.9 599.3M467.3 653.7L475.3 648.6M750.1 689.5L746.2 682.8M456.4 842.3L477.0 845.1M506.2 630.5L509.8 623.2M625.3 652.5L622.4 659.1M608.5 586.8L675.4 586.4M747.5 99.9L766.9 115.6M635.7 407.6L635.4 408.5M743.7 134.3L743.0 135.9M560.1 372.2L559.4 370.8M148.1 515.4L127.1 523.7M205.2 484.3L215.8 467.9M445.0 646.5L435.3 641.7M509.8 623.2L513.0 619.1M474.7 654.5L472.2 655.0M752.7 203.3L743.9 213.6M662.7 318.8L669.2 316.5M640.7 407.7L635.7 407.6M719.4 138.6L738.2 135.5M437.9 631.7L431.6 630.7M448.8 734.6L447.5 733.9M835.1 510.9L839.3 512.5M686.5 541.2L659.9 556.9M293.1 502.9L285.1 503.7M357.6 580.7L348.2 548.1M444.2 519.7L445.1 477.9M798.2 121.7L793.8 122.2M756.3 582.3L743.6 598.1M767.2 571.0L767.6 568.1M473.4 612.7L472.1 611.4M476.6 616.3L474.3 614.0M738.9 683.2L743.7 682.2M480.0 611.8L481.7 610.7M477.7 609.8L480.0 611.8M517.0 634.6L513.5 633.9M508.5 634.8L511.2 633.8M481.5 644.7L484.4 642.3M477.8 641.7L479.7 638.5M477.8 641.7L479.7 638.5M467.3 622.2L468.8 622.3M493.0 611.7L492.9 609.4M503.7 601.5L508.7 605.7M848.6 602.9L849.7 601.2M401.4 697.5L399.7 698.2M399.7 698.2L401.4 697.5M475.3 648.6L477.4 646.1M477.4 646.1L477.8 641.7M477.4 646.1L477.8 641.7M477.4 646.1L477.8 641.7M477.4 646.1L477.8 641.7M487.9 648.8L484.3 649.4M707.7 110.0L699.0 104.1M662.7 318.8L660.6 322.8M275.3 219.1L264.1 217.6M435.3 641.7L431.6 630.7M552.6 374.7L560.1 372.2M552.6 374.7L559.4 370.8M312.5 666.0L312.4 664.6M693.8 91.3L695.8 89.4M694.3 89.2L695.8 89.4M691.7 95.4L692.7 98.2M747.5 99.9L745.5 101.8M642.3 303.3L641.4 302.8M598.2 533.1L595.8 528.8M655.5 276.9L654.2 274.6M717.9 268.6L728.0 276.6M728.0 276.6L729.0 279.3M792.0 499.4L819.9 508.3M819.9 508.3L835.1 510.9M520.0 173.9L512.5 199.4M737.0 301.6L737.6 297.9M490.0 835.7L498.0 821.0M521.8 733.9L525.0 760.2M525.0 760.2L528.3 768.7M376.0 499.1L378.7 498.5M505.7 518.4L506.7 521.3M848.6 602.9L851.8 607.3M472.2 655.0L477.4 646.1M458.5 565.4L456.7 566.6M660.6 322.8L656.4 323.2M449.6 646.4L448.0 649.3M710.3 275.6L708.9 276.8M217.4 542.9L205.2 484.3M186.3 491.8L148.1 515.4M191.7 484.3L127.1 523.7M104.2 531.3L125.7 524.2" fill="none" stroke="#38bdf8" stroke-width="1.6" stroke-opacity="0.85" stroke-linecap="round" stroke-linejoin="round"/><path d="M338.6 700.4L336.1 699.8M449.2 853.2L449.2 855.8M837.3 514.1L839.3 512.5M377.0 496.7L376.0 499.1M645.3 743.8L646.3 741.5M481.8 666.2L481.6 663.6M808.4 627.2L810.1 629.1M723.3 129.9L724.7 127.7M519.7 162.5L517.2 161.6M754.7 358.6L756.5 360.4M660.6 107.8L661.1 110.4M282.3 278.6L284.7 279.6M287.4 318.7L284.8 318.8M293.3 371.8L291.7 373.8M372.4 396.0L373.2 398.5M438.2 395.2L440.6 396.2M291.1 254.8L288.6 254.2M384.1 168.6L384.9 171.1M474.7 861.8L475.0 864.4M441.6 124.2L441.3 121.6M642.7 160.3L641.4 162.5M363.2 81.5L364.5 79.2M323.6 429.1L326.1 428.6M288.1 101.4L289.9 103.3M286.9 217.0L289.4 216.3M268.4 160.2L270.8 161.1M231.6 104.7L231.0 102.2M201.8 477.2L200.2 475.2M638.7 142.9L638.7 140.3M545.9 447.9L543.7 446.5M452.2 631.0L454.0 632.9M339.9 471.7L338.0 473.5M523.7 791.1L521.3 791.9M594.9 752.6L592.3 752.5M823.1 557.4L824.6 559.5M838.0 611.3L837.6 613.8M653.1 764.6L654.2 767.0M608.5 584.2L608.5 586.8M766.8 113.0L766.9 115.6M791.2 120.9L792.1 118.5M647.3 412.1L645.2 413.6M449.2 851.4L446.6 851.9M782.3 665.4L779.9 664.3M412.0 751.7L413.5 753.8M666.8 632.4L665.9 634.8M782.8 274.4L785.4 274.7M44.5 594.1L44.2 596.7M774.1 273.5L774.2 270.9M745.6 436.1L743.8 437.9M645.7 481.2L647.1 483.4M502.8 648.7L500.2 648.8M104.9 536.9L107.4 537.5M837.5 585.2L840.0 584.8M668.5 99.1L667.9 96.6M720.6 701.3L718.3 699.9M734.7 290.8L732.3 291.6M481.4 458.9L479.5 460.6M479.3 617.7L477.2 619.2M298.9 260.4L299.2 257.8M665.3 318.8L662.7 318.8M668.5 334.7L666.0 334.1M485.5 605.1L486.3 607.6M580.0 124.4L580.0 121.8M690.1 107.1L688.8 104.9M507.7 628.4L506.2 630.5M508.7 641.3L510.3 639.2M518.2 40.8L520.5 42.1M633.3 423.7L630.7 424.3M839.9 539.6L837.6 538.5M450.5 536.4L448.1 537.5M480.8 749.0L479.5 746.8M668.1 142.7L670.2 144.2M779.6 485.3L781.3 483.4M260.2 547.6L259.5 545.0M467.9 656.2L467.3 653.7M521.3 586.8L519.9 584.7M650.4 219.0L649.0 221.2M498.9 522.2L497.1 520.2M270.5 479.7L271.1 477.1M834.3 513.4L835.1 510.9M414.6 141.7L413.2 139.5M764.6 315.9L762.4 314.6M762.9 317.6L765.0 319.1M452.2 756.5L452.4 759.1M435.3 520.6L432.8 521.4M715.0 264.0L712.4 263.4M549.8 332.3L548.0 334.1M551.5 377.1L552.6 374.7M446.3 644.2L445.0 646.5M522.5 588.5L523.3 586.0M581.7 537.5L581.7 534.9M753.4 671.5L750.8 670.9M741.2 636.4L738.9 637.5M756.7 584.9L756.3 582.3M478.3 277.5L475.8 278.1M684.4 330.5L684.6 333.1M647.6 190.0L650.1 190.8M493.1 654.7L490.8 653.6M615.5 672.0L614.7 674.4M641.6 745.5L643.4 747.3M551.2 786.7L551.8 789.2M721.3 355.9L723.7 357.0M510.5 232.7L513.1 232.9M698.5 326.7L701.1 327.1M736.6 299.1L737.0 301.6M645.9 332.8L646.7 335.2M647.9 306.0L646.9 303.7M662.0 255.7L662.3 253.1M481.4 673.7L483.0 675.7M458.0 853.3L459.9 851.5M474.7 856.3L477.3 856.2M527.3 719.5L528.8 721.6M537.1 811.0L536.8 813.5M524.4 823.7L523.2 821.4M459.1 681.0L458.9 683.5M378.2 686.7L378.0 689.3M396.8 701.3L395.0 703.1M243.1 606.3L241.3 608.1M310.6 662.4L310.9 659.8M223.1 558.4L220.7 557.3M133.6 592.7L133.1 595.2M344.7 537.5L344.1 540.0M454.0 559.8L451.5 559.7M500.0 523.4L501.3 521.2M447.8 648.2L449.6 646.4M815.3 140.4L815.1 143.0M736.1 91.2L738.2 89.7M509.7 87.9L508.2 85.8M320.7 469.4L321.2 472.0M524.4 823.7L537.1 811.0M133.6 592.7L223.1 558.4M734.7 290.8L736.6 299.1M721.3 355.9L754.7 358.6M638.0 737.2L653.1 764.6M566.1 601.8L564.7 594.1M645.7 481.2L633.3 423.7M782.3 665.4L808.4 627.2M666.8 632.4L741.2 636.4M738.5 337.3L721.3 355.9M668.5 99.1L690.1 107.1M762.9 317.6L738.5 337.3M493.1 654.7L481.8 666.2M493.1 654.7L481.8 666.2M480.8 749.0L481.4 673.7M633.3 423.7L667.7 338.3M474.7 856.3L474.7 861.8M474.7 856.3L474.7 861.8M753.4 671.5L741.2 636.4M338.3 382.1L372.4 396.0M293.3 371.8L338.3 382.1M645.9 332.8L647.9 306.0M791.2 120.9L815.3 140.4M523.7 791.1L537.1 811.0M523.7 791.1L537.1 811.0M638.7 142.9L642.7 160.3M509.7 87.9L519.7 162.5M510.5 232.7L519.7 162.5M597.6 615.1L615.5 672.0M593.7 601.8L597.6 615.1M551.2 786.7L552.5 786.8M449.2 853.2L449.2 851.4M660.6 107.8L668.5 99.1M834.3 513.4L837.3 514.1M293.3 371.8L372.4 396.0M293.3 371.8L323.6 429.1M293.3 371.8L323.6 429.1M287.4 318.7L293.3 371.8M287.4 318.7L293.3 371.8M436.6 519.9L450.5 536.4M436.6 519.9L450.5 536.4M436.6 519.9L454.0 559.8M436.6 519.9L454.0 559.8M418.4 513.6L436.6 519.9M418.4 513.6L436.6 519.9M435.3 520.6L436.6 519.9M435.3 520.6L436.6 519.9M386.5 341.9L438.2 395.2M375.5 496.8L418.4 513.6M320.7 469.4L394.5 505.9M320.7 469.4L375.5 496.8M394.5 505.9L418.4 513.6M320.7 469.4L339.9 471.7M339.9 471.7L380.4 483.8M339.9 471.7L380.4 483.8M320.7 469.4L339.9 471.7M774.1 273.5L782.8 274.4M769.1 301.5L774.1 273.5M762.9 317.6L769.1 301.5M721.3 355.9L745.6 436.1M645.7 481.2L721.3 355.9M645.7 481.2L721.3 355.9M645.7 481.2L721.3 355.9M745.6 436.1L779.6 485.3M721.3 355.9L738.4 374.9M498.9 522.2L500.0 523.4M489.9 557.9L500.0 523.4M498.9 522.2L500.0 523.4M489.9 557.9L500.0 523.4M498.9 522.2L500.0 523.4M498.9 522.2L500.0 523.4M481.4 458.9L500.0 523.4M372.4 396.0L438.2 395.2M372.4 396.0L438.2 395.2M320.7 469.4L323.6 429.1M320.7 469.4L323.6 429.1M438.2 395.2L510.5 232.7M438.2 395.2L481.4 458.9M478.3 277.5L481.4 458.9M715.0 264.0L738.0 267.8M715.0 264.0L738.0 267.8M223.1 558.4L243.1 606.3M236.3 672.1L243.1 606.3M236.3 672.1L243.1 606.3M223.1 558.4L243.1 606.3M248.0 667.8L310.6 662.4M248.0 667.8L310.6 662.4M449.2 851.4L474.7 856.3M412.0 751.7L480.8 749.0M449.2 851.4L480.8 749.0M458.0 853.3L474.7 856.3M449.2 851.4L458.0 853.3M452.2 756.5L480.8 749.0M470.3 808.3L480.8 749.0M665.3 318.8L675.2 317.6M665.3 318.8L668.5 334.7M668.5 334.7L675.2 317.6M665.3 318.8L675.2 317.6M684.4 330.5L698.5 326.7M684.4 330.5L698.5 326.7M675.2 317.6L736.6 299.1M675.2 317.6L736.6 299.1M698.5 326.7L736.6 299.1M698.5 326.7L736.6 299.1M736.1 91.2L766.8 113.0M736.1 91.2L766.8 113.0M690.1 107.1L736.1 91.2M690.1 107.1L736.1 91.2M791.2 120.9L815.3 140.4M766.8 113.0L791.2 120.9M766.8 113.0L791.2 120.9M668.1 142.7L720.8 127.9M720.8 127.9L723.3 129.9M478.3 277.5L510.5 232.7M640.7 747.5L641.6 745.5M640.7 747.5L641.6 745.5M640.7 747.5L641.6 745.5M640.7 747.5L641.6 745.5M507.3 228.0L510.5 232.7M580.0 124.4L642.7 160.3M509.7 87.9L580.0 124.4M580.0 124.4L642.7 160.3M509.7 87.9L580.0 124.4M642.7 160.3L690.1 107.1M642.7 160.3L690.1 107.1M642.7 160.3L668.1 142.7M642.7 160.3L647.6 190.0M648.2 218.7L650.7 293.1M650.7 293.1L675.2 317.6M642.7 160.3L647.6 190.0M645.9 332.8L647.9 306.0M642.7 160.3L647.6 190.0M662.0 255.7L675.2 317.6M650.7 293.1L675.2 317.6M648.2 218.7L662.0 255.7M642.7 160.3L647.6 190.0M648.2 218.7L650.7 293.1M647.6 190.0L648.2 218.7M647.6 190.0L648.2 218.7M647.6 190.0L648.2 218.7M648.2 218.7L675.2 317.6M675.2 317.6L715.0 264.0M642.7 160.3L647.6 190.0M642.7 160.3L648.2 218.7M675.2 317.6L715.0 264.0M436.6 519.9L438.2 395.2M608.5 584.2L645.7 481.2M645.7 481.2L647.3 412.1M581.7 537.5L645.7 481.2M593.7 601.8L645.7 481.2M593.7 601.8L645.7 481.2M564.0 558.9L581.7 537.5M638.0 737.2L641.6 745.5M615.5 672.0L638.0 737.2M638.0 737.2L641.6 745.5M638.0 737.2L720.6 701.3M720.6 701.3L753.4 671.5M720.6 701.3L753.4 671.5M638.0 737.2L720.6 701.3M741.2 636.4L753.4 671.5M740.1 601.8L742.2 611.1M593.7 601.8L740.1 601.8M593.7 601.8L740.1 601.8M740.1 601.8L741.2 636.4M740.1 601.8L741.2 636.4M741.2 636.4L838.0 611.3M779.6 485.3L834.3 513.4M837.5 585.2L838.0 611.3M837.5 585.2L839.9 539.6M834.3 513.4L839.9 539.6M834.3 513.4L839.9 539.6M594.9 752.6L638.0 737.2M551.2 786.7L594.9 752.6M551.2 786.7L638.0 737.2M537.1 811.0L551.2 786.7M551.2 786.7L638.0 737.2M507.0 774.3L523.7 791.1M474.7 856.3L507.0 774.3M474.7 856.3L507.0 774.3M474.7 856.3L524.4 823.7M507.0 774.3L523.7 791.1M474.7 856.3L537.1 811.0M480.8 749.0L507.0 774.3M449.2 851.4L470.3 808.3M480.8 749.0L507.0 774.3M507.0 774.3L527.3 719.5M507.0 774.3L527.3 719.5M508.7 641.3L527.3 719.5M508.7 641.3L511.4 688.5M511.4 688.5L527.3 719.5M480.8 749.0L481.4 673.7M397.0 719.5L459.1 681.0M397.0 719.5L412.0 751.7M397.0 719.5L412.0 751.7M397.0 719.5L481.4 673.7M459.1 681.0L481.4 673.7M397.0 719.5L481.4 673.7M459.1 681.0L481.4 673.7M480.8 749.0L481.4 673.7M397.0 719.5L459.1 681.0M675.2 317.6L684.4 330.5M675.2 317.6L684.4 330.5M675.2 317.6L684.4 330.5M675.2 317.6L684.4 330.5M736.6 299.1L762.9 317.6M762.9 317.6L764.6 315.9M762.9 317.6L764.6 315.9M736.6 299.1L762.9 317.6M736.6 299.1L762.9 317.6M481.4 458.9L551.5 377.1M551.5 377.1L607.1 358.5M549.8 332.3L551.5 377.1M545.9 447.9L551.5 377.1M549.8 332.3L551.5 377.1M551.5 377.1L607.1 358.5M481.4 458.9L551.5 377.1M522.8 499.3L545.9 447.9M522.8 499.3L551.5 377.1M608.5 584.2L666.8 632.4M593.7 601.8L608.5 584.2M201.8 477.2L230.9 516.7M201.8 477.2L230.9 516.7M223.1 558.4L230.9 516.7M223.1 558.4L230.9 516.7M221.7 700.5L236.3 672.1M221.7 700.5L236.3 672.1M221.7 700.5L236.3 672.1M221.7 700.5L236.3 672.1M307.6 536.3L344.7 537.5M223.1 558.4L260.2 547.6M260.2 547.6L344.7 537.5M223.1 558.4L260.2 547.6M236.3 672.1L260.2 547.6M236.3 672.1L260.2 547.6M344.7 537.5L375.5 496.8M344.7 537.5L375.5 496.8M270.5 479.7L320.7 469.4M201.8 477.2L320.7 469.4M454.0 559.8L489.9 557.9M454.0 559.8L489.9 557.9M371.3 740.6L397.0 719.5M371.3 740.6L397.0 719.5M371.3 740.6L397.0 719.5M371.3 740.6L397.0 719.5M221.7 700.5L201.1 707.3M221.7 700.5L201.1 707.3M221.7 700.5L201.1 707.3M282.3 278.6L298.9 260.4M282.3 278.6L287.4 318.7M282.3 278.6L298.9 260.4M282.3 278.6L287.4 318.7M282.3 278.6L286.0 275.6M286.0 275.6L286.7 275.0M286.7 275.0L298.9 260.4M282.3 278.6L286.0 275.6M286.0 275.6L286.7 275.0M286.7 275.0L291.1 254.8M291.1 254.8L298.9 260.4M414.6 141.7L441.6 124.2M462.7 101.2L509.7 87.9M441.6 124.2L462.7 101.2M441.6 124.2L462.7 101.2M298.9 260.4L384.1 168.6M462.7 101.2L509.7 87.9M298.9 260.4L384.1 168.6M384.1 168.6L414.6 141.7M384.1 168.6L441.6 124.2M288.1 101.4L363.2 81.5M363.2 81.5L441.6 124.2M288.1 101.4L363.2 81.5M363.2 81.5L441.6 124.2M509.7 87.9L518.2 40.8M509.7 87.9L518.2 40.8M286.9 217.0L291.1 254.8M268.4 160.2L286.9 217.0M268.4 160.2L286.9 217.0M231.6 104.7L268.4 160.2M286.9 217.0L298.9 260.4M286.9 217.0L298.9 260.4M338.6 700.4L378.2 686.7M338.6 700.4L378.2 686.7M378.2 686.7L397.0 719.5M378.2 686.7L397.0 719.5M396.8 701.3L397.0 719.5M396.8 701.3L397.0 719.5M310.6 662.4L378.2 686.7M310.6 662.4L378.2 686.7M220.2 712.9L221.7 700.5M220.2 712.9L221.7 700.5M375.5 496.8L380.4 483.8M375.5 496.8L380.4 483.8M394.0 654.3L446.3 644.2M394.0 654.3L446.3 644.2M467.9 656.2L481.4 673.7M467.9 656.2L481.4 673.7M446.3 644.2L452.2 631.0M479.3 617.7L485.5 605.1M479.3 617.7L485.5 605.1M479.3 617.7L485.5 605.1M485.5 605.1L489.9 557.9M485.5 605.1L489.9 557.9M839.9 539.6L823.1 557.4M740.1 601.8L756.7 584.9M740.1 601.8L823.1 557.4M756.7 584.9L839.9 539.6M236.3 672.1L248.0 667.8M236.3 672.1L248.0 667.8M485.5 605.1L522.5 588.5M485.5 605.1L522.5 588.5M507.7 628.4L566.1 601.8M507.7 628.4L508.7 641.3M566.1 601.8L593.7 601.8M507.7 628.4L566.1 601.8M522.5 588.5L593.7 601.8M507.7 628.4L508.7 641.3M522.5 588.5L593.7 601.8M566.1 601.8L593.7 601.8M507.7 628.4L522.5 588.5M507.7 628.4L522.5 588.5M493.1 654.7L502.8 648.7M525.3 649.5L593.7 601.8M521.2 651.0L525.3 649.5M493.1 654.7L521.2 651.0M493.1 654.7L508.7 641.3M502.8 648.7L508.7 641.3M481.4 673.7L493.1 654.7M446.3 644.2L447.8 648.2M446.3 644.2L447.8 648.2M446.3 644.2L447.8 648.2M481.4 673.7L493.1 654.7M446.3 644.2L447.8 648.2M740.3 637.5L741.2 636.4M260.2 547.6L307.6 536.3M521.3 586.8L522.5 588.5M522.5 588.5L564.0 558.9M648.2 218.7L650.4 219.0M648.2 218.7L650.4 219.0M648.2 218.7L650.4 219.0M648.2 218.7L650.4 219.0M638.0 737.2L653.1 764.6M749.1 693.9L753.4 671.5M749.1 693.9L753.4 671.5M749.1 693.9L753.4 671.5M749.1 693.9L753.4 671.5M384.1 168.6L385.5 168.9M384.1 168.6L385.5 168.9M638.7 142.9L642.7 160.3M201.1 707.3L221.7 700.5M719.2 131.2L720.8 127.9M720.8 127.9L723.3 129.9M201.8 477.2L270.5 479.7M378.2 686.7L394.0 654.3M378.2 686.7L394.0 654.3M615.5 672.0L628.6 698.2M628.6 698.2L638.0 737.2M412.0 751.7L452.2 756.5M311.5 270.9L386.5 341.9M298.9 260.4L311.5 270.9M698.5 326.7L721.3 355.9M607.1 358.5L645.9 332.8M667.7 338.3L668.5 334.7M647.3 412.1L667.7 338.3M667.7 338.3L684.4 330.5M375.5 496.8L377.0 496.7M474.1 858.6L474.7 861.8M467.9 656.2L481.8 666.2M481.8 666.2L481.4 673.7M458.4 656.9L467.9 656.2M645.3 743.8L641.6 745.5M478.0 616.9L479.3 617.7M478.0 616.9L479.3 617.7M478.0 616.9L479.3 617.7M478.0 616.9L479.3 617.7M782.3 665.4L753.4 671.5M522.0 585.7L514.6 528.0M537.1 811.0L551.2 786.7M104.9 536.9L201.8 477.2M452.2 631.0L478.0 616.9M647.9 306.0L650.7 293.1M481.4 458.9L511.1 519.8M522.5 588.5L522.0 585.7M514.6 528.0L522.8 499.3M645.9 332.8L684.4 330.5M514.6 528.0L522.5 588.5M286.7 275.0L286.0 275.6M474.7 856.3L474.1 858.6M834.3 513.4L837.3 514.1M454.0 559.8L478.0 616.9M412.0 751.7L410.4 752.9M412.0 751.7L410.4 752.9M489.9 557.9L514.6 528.0M522.5 588.5L522.0 585.7M514.6 528.0L511.1 519.8M514.6 528.0L500.0 523.4M511.1 519.8L500.0 523.4M458.4 656.9L467.9 656.2M446.3 644.2L458.4 656.9M104.9 536.9L44.5 594.1" fill="none" stroke="#fb923c" stroke-width="1.6" stroke-opacity="0.85" stroke-linecap="round" stroke-linejoin="round"/></svg>