<svg xmlns="http://www.w3.org/2000/svg" viewBox="0 0 900 891.3" role="img" aria-label="Network map" preserveAspectRatio="xMidYMid meet"><g fill="#38bdf8" fill-opacity="0.82"><circle cx="535.9" cy="821.2" r="2.3"/><circle cx="336.1" cy="699.8" r="2.3"/><circle cx="482.7" cy="863.1" r="2.3"/><circle cx="473.8" cy="656.3" r="2.3"/><circle cx="403.2" cy="689.3" r="2.3"/><circle cx="312.5" cy="666.0" r="2.3"/><circle cx="312.4" cy="664.6" r="2.3"/><circle cx="307.7" cy="669.0" r="2.3"/><circle cx="215.8" cy="467.9" r="2.3"/><circle cx="458.9" cy="683.5" r="2.3"/><circle cx="658.7" cy="146.5" r="2.3"/><circle cx="659.3" cy="139.2" r="2.3"/><circle cx="560.9" cy="689.9" r="2.3"/><circle cx="805.2" cy="660.1" r="2.3"/><circle cx="195.3" cy="482.3" r="2.3"/><circle cx="667.3" cy="105.4" r="2.3"/><circle cx="746.0" cy="679.4" r="2.3"/><circle cx="343.1" cy="702.3" r="2.3"/><circle cx="152.1" cy="464.1" r="2.3"/><circle cx="496.2" cy="639.4" r="2.3"/><circle cx="498.0" cy="638.0" r="2.3"/><circle cx="283.5" cy="360.4" r="2.3"/><circle cx="318.8" cy="371.3" r="2.3"/><circle cx="346.6" cy="745.1" r="2.3"/><circle cx="481.6" cy="857.6" r="2.3"/><circle cx="294.8" cy="698.3" r="2.3"/><circle cx="499.9" cy="699.5" r="2.3"/><circle cx="407.8" cy="774.3" r="2.3"/><circle cx="413.5" cy="753.8" r="2.3"/><circle cx="156.9" cy="635.6" r="2.3"/><circle cx="321.2" cy="472.0" r="2.3"/><circle cx="718.6" cy="242.5" r="2.3"/><circle cx="293.1" cy="502.9" r="2.3"/><circle cx="112.3" cy="594.2" r="2.3"/><circle cx="127.6" cy="594.8" r="2.3"/><circle cx="497.1" cy="520.2" r="2.3"/><circle cx="326.1" cy="428.6" r="2.3"/><circle cx="41.6" cy="595.8" r="2.3"/><circle cx="45.3" cy="592.4" r="2.3"/><circle cx="45.8" cy="590.6" r="2.3"/><circle cx="456.4" cy="842.3" r="2.3"/><circle cx="724.3" cy="136.3" r="2.3"/><circle cx="737.3" cy="171.9" r="2.3"/><circle cx="734.8" cy="182.4" r="2.3"/><circle cx="663.4" cy="253.7" r="2.3"/><circle cx="661.2" cy="237.6" r="2.3"/><circle cx="660.0" cy="355.5" r="2.3"/><circle cx="754.3" cy="659.1" r="2.3"/><circle cx="528.8" cy="721.6" r="2.3"/><circle cx="763.5" cy="311.8" r="2.3"/><circle cx="205.2" cy="484.3" r="2.3"/><circle cx="711.3" cy="311.3" r="2.3"/><circle cx="835.5" cy="141.5" r="2.3"/><circle cx="629.4" cy="533.7" r="2.3"/><circle cx="592.4" cy="530.9" r="2.3"/><circle cx="598.2" cy="533.1" r="2.3"/><circle cx="595.8" cy="528.8" r="2.3"/><circle cx="510.5" cy="549.6" r="2.3"/><circle cx="538.4" cy="451.9" r="2.3"/><circle cx="292.1" cy="342.5" r="2.3"/><circle cx="279.8" cy="349.1" r="2.3"/><circle cx="338.9" cy="212.5" r="2.3"/><circle cx="480.5" cy="126.2" r="2.3"/><circle cx="357.6" cy="580.7" r="2.3"/><circle cx="465.5" cy="268.6" r="2.3"/><circle cx="474.5" cy="275.1" r="2.3"/><circle cx="476.3" cy="276.0" r="2.3"/><circle cx="512.5" cy="199.4" r="2.3"/><circle cx="219.6" cy="562.4" r="2.3"/><circle cx="220.9" cy="561.2" r="2.3"/><circle cx="492.8" cy="862.7" r="2.3"/><circle cx="448.8" cy="734.6" r="2.3"/><circle cx="622.4" cy="659.1" r="2.3"/><circle cx="625.3" cy="652.5" r="2.3"/><circle cx="756.3" cy="582.3" r="2.3"/><circle cx="492.1" cy="675.2" r="2.3"/><circle cx="489.5" cy="662.4" r="2.3"/><circle cx="810.2" cy="561.6" r="2.3"/><circle cx="780.5" cy="574.3" r="2.3"/><circle cx="746.2" cy="682.8" r="2.3"/><circle cx="646.3" cy="741.5" r="2.3"/><circle cx="824.6" cy="559.5" r="2.3"/><circle cx="481.7" cy="610.7" r="2.3"/><circle cx="467.3" cy="622.2" r="2.3"/><circle cx="468.8" cy="622.3" r="2.3"/><circle cx="497.1" cy="604.1" r="2.3"/><circle cx="841.2" cy="614.5" r="2.3"/><circle cx="499.3" cy="649.4" r="2.3"/><circle cx="501.3" cy="649.8" r="2.3"/><circle cx="506.9" cy="640.1" r="2.3"/><circle cx="665.9" cy="110.3" r="2.3"/><circle cx="282.7" cy="235.9" r="2.3"/><circle cx="389.1" cy="688.8" r="2.3"/><circle cx="387.2" cy="690.0" r="2.3"/><circle cx="474.7" cy="654.5" r="2.3"/><circle cx="727.0" cy="276.4" r="2.3"/><circle cx="158.9" cy="436.1" r="2.3"/><circle cx="499.3" cy="160.2" r="2.3"/><circle cx="265.3" cy="458.2" r="2.3"/><circle cx="432.8" cy="521.4" r="2.3"/><circle cx="554.6" cy="794.6" r="2.3"/><circle cx="700.1" cy="99.1" r="2.3"/><circle cx="699.0" cy="104.1" r="2.3"/><circle cx="675.4" cy="586.4" r="2.3"/><circle cx="763.0" cy="580.3" r="2.3"/><circle cx="767.2" cy="571.0" r="2.3"/><circle cx="766.9" cy="572.9" r="2.3"/><circle cx="747.5" cy="99.9" r="2.3"/><circle cx="635.7" cy="407.6" r="2.3"/><circle cx="470.3" cy="621.7" r="2.3"/><circle cx="637.5" cy="439.0" r="2.3"/><circle cx="445.4" cy="576.2" r="2.3"/><circle cx="849.7" cy="601.2" r="2.3"/><circle cx="659.0" cy="275.8" r="2.3"/><circle cx="655.5" cy="276.9" r="2.3"/><circle cx="793.9" cy="651.3" r="2.3"/><circle cx="642.3" cy="303.3" r="2.3"/><circle cx="641.4" cy="302.8" r="2.3"/><circle cx="633.8" cy="297.1" r="2.3"/><circle cx="632.5" cy="296.3" r="2.3"/><circle cx="707.6" cy="279.0" r="2.3"/><circle cx="707.0" cy="280.9" r="2.3"/><circle cx="705.7" cy="282.9" r="2.3"/><circle cx="697.6" cy="334.7" r="2.3"/><circle cx="701.1" cy="327.1" r="2.3"/><circle cx="655.3" cy="248.9" r="2.3"/><circle cx="663.4" cy="245.8" r="2.3"/><circle cx="708.2" cy="278.0" r="2.3"/><circle cx="658.8" cy="226.0" r="2.3"/><circle cx="512.2" cy="232.2" r="2.3"/><circle cx="601.1" cy="745.5" r="2.3"/><circle cx="431.6" cy="630.7" r="2.3"/><circle cx="760.9" cy="280.4" r="2.3"/><circle cx="285.1" cy="503.7" r="2.3"/><circle cx="399.7" cy="698.2" r="2.3"/><circle cx="348.2" cy="548.1" r="2.3"/><circle cx="515.9" cy="808.0" r="2.3"/><circle cx="635.4" cy="408.5" r="2.3"/><circle cx="648.7" cy="188.5" r="2.3"/><circle cx="649.0" cy="221.2" r="2.3"/><circle cx="843.3" cy="614.9" r="2.3"/><circle cx="509.0" cy="633.2" r="2.3"/><circle cx="738.2" cy="135.5" r="2.3"/><circle cx="471.3" cy="619.2" r="2.3"/><circle cx="654.7" cy="156.8" r="2.3"/><circle cx="738.9" cy="683.2" r="2.3"/><circle cx="310.0" cy="255.5" r="2.3"/><circle cx="490.0" cy="835.7" r="2.3"/><circle cx="541.4" cy="818.3" r="2.3"/><circle cx="474.3" cy="614.0" r="2.3"/><circle cx="473.4" cy="612.7" r="2.3"/><circle cx="472.1" cy="611.4" r="2.3"/><circle cx="456.7" cy="566.6" r="2.3"/><circle cx="444.2" cy="519.7" r="2.3"/><circle cx="491.4" cy="613.3" r="2.3"/><circle cx="490.6" cy="614.9" r="2.3"/><circle cx="853.9" cy="599.3" r="2.3"/><circle cx="743.0" cy="135.9" r="2.3"/><circle cx="669.2" cy="316.5" r="2.3"/><circle cx="447.5" cy="733.9" r="2.3"/><circle cx="798.2" cy="121.7" r="2.3"/><circle cx="793.8" cy="122.2" r="2.3"/><circle cx="445.8" cy="24.0" r="2.3"/><circle cx="480.0" cy="611.8" r="2.3"/><circle cx="517.0" cy="634.6" r="2.3"/><circle cx="511.2" cy="633.8" r="2.3"/><circle cx="401.4" cy="697.5" r="2.3"/><circle cx="487.9" cy="648.8" r="2.3"/><circle cx="559.4" cy="370.8" r="2.3"/><circle cx="728.0" cy="276.6" r="2.3"/><circle cx="737.6" cy="297.9" r="2.3"/><circle cx="376.0" cy="499.1" r="2.3"/><circle cx="378.7" cy="498.5" r="2.3"/><circle cx="506.7" cy="521.3" r="2.3"/><circle cx="435.3" cy="641.7" r="2.3"/><circle cx="710.3" cy="275.6" r="2.3"/><circle cx="708.9" cy="276.8" r="2.3"/><circle cx="148.1" cy="515.4" r="2.3"/><circle cx="127.1" cy="523.7" r="2.3"/><circle cx="125.7" cy="524.2" r="2.3"/><circle cx="228.1" cy="466.8" r="2.3"/><circle cx="724.7" cy="127.7" r="2.3"/><circle cx="517.2" cy="161.6" r="2.3"/><circle cx="756.5" cy="360.4" r="2.3"/><circle cx="52.7" cy="602.1" r="2.3"/><circle cx="509.8" cy="623.2" r="2.3"/><circle cx="699.8" cy="108.9" r="2.3"/><circle cx="743.9" cy="213.6" r="2.3"/><circle cx="264.5" cy="475.3" r="2.3"/><circle cx="504.6" cy="638.9" r="2.3"/><circle cx="655.4" cy="328.6" r="2.3"/><circle cx="494.0" cy="625.9" r="2.3"/><circle cx="646.8" cy="167.0" r="2.3"/><circle cx="572.8" cy="793.4" r="2.3"/><circle cx="488.0" cy="291.7" r="2.3"/><circle cx="512.7" cy="718.7" r="2.3"/><circle cx="647.2" cy="205.7" r="2.3"/><circle cx="661.1" cy="110.4" r="2.3"/><circle cx="121.9" cy="526.1" r="2.3"/><circle cx="754.2" cy="370.9" r="2.3"/><circle cx="200.4" cy="427.2" r="2.3"/><circle cx="716.8" cy="261.9" r="2.3"/><circle cx="656.6" cy="105.4" r="2.3"/><circle cx="655.6" cy="106.1" r="2.3"/><circle cx="656.7" cy="106.7" r="2.3"/><circle cx="284.7" cy="279.6" r="2.3"/><circle cx="284.8" cy="318.8" r="2.3"/><circle cx="291.7" cy="373.8" r="2.3"/><circle cx="593.8" cy="498.3" r="2.3"/><circle cx="334.4" cy="321.2" r="2.3"/><circle cx="286.9" cy="326.2" r="2.3"/><circle cx="373.2" cy="398.5" r="2.3"/><circle cx="440.6" cy="396.2" r="2.3"/><circle cx="288.6" cy="254.2" r="2.3"/><circle cx="384.9" cy="171.1" r="2.3"/><circle cx="66.6" cy="585.0" r="2.3"/><circle cx="514.7" cy="606.9" r="2.3"/><circle cx="576.4" cy="735.3" r="2.3"/><circle cx="568.7" cy="529.7" r="2.3"/><circle cx="522.0" cy="810.5" r="2.3"/><circle cx="661.2" cy="327.6" r="2.3"/><circle cx="714.5" cy="272.7" r="2.3"/><circle cx="602.9" cy="575.5" r="2.3"/><circle cx="477.2" cy="857.7" r="2.3"/><circle cx="499.0" cy="162.3" r="2.3"/><circle cx="305.0" cy="669.9" r="2.3"/><circle cx="309.4" cy="673.5" r="2.3"/><circle cx="475.0" cy="864.4" r="2.3"/><circle cx="529.7" cy="133.0" r="2.3"/><circle cx="722.7" cy="109.5" r="2.3"/><circle cx="519.4" cy="123.9" r="2.3"/><circle cx="490.7" cy="617.1" r="2.3"/><circle cx="429.6" cy="122.9" r="2.3"/><circle cx="441.3" cy="121.6" r="2.3"/><circle cx="641.4" cy="162.5" r="2.3"/><circle cx="364.5" cy="79.2" r="2.3"/><circle cx="422.3" cy="114.7" r="2.3"/><circle cx="320.0" cy="431.3" r="2.3"/><circle cx="305.5" cy="665.5" r="2.3"/><circle cx="490.2" cy="85.2" r="2.3"/><circle cx="681.6" cy="112.7" r="2.3"/><circle cx="483.7" cy="746.1" r="2.3"/><circle cx="520.0" cy="173.9" r="2.3"/><circle cx="289.9" cy="103.3" r="2.3"/><circle cx="293.0" cy="236.7" r="2.3"/><circle cx="289.4" cy="216.3" r="2.3"/><circle cx="270.8" cy="161.1" r="2.3"/><circle cx="231.0" cy="102.2" r="2.3"/><circle cx="230.8" cy="110.6" r="2.3"/><circle cx="690.8" cy="96.8" r="2.3"/><circle cx="752.7" cy="203.3" r="2.3"/><circle cx="291.1" cy="624.1" r="2.3"/><circle cx="714.9" cy="524.8" r="2.3"/><circle cx="335.6" cy="587.0" r="2.3"/><circle cx="238.4" cy="426.6" r="2.3"/><circle cx="200.2" cy="475.2" r="2.3"/><circle cx="473.2" cy="154.6" r="2.3"/><circle cx="293.3" cy="145.7" r="2.3"/><circle cx="288.2" cy="257.0" r="2.3"/><circle cx="546.3" cy="99.8" r="2.3"/><circle cx="638.7" cy="140.3" r="2.3"/><circle cx="417.6" cy="157.3" r="2.3"/><circle cx="543.7" cy="446.5" r="2.3"/><circle cx="668.5" cy="101.2" r="2.3"/><circle cx="414.7" cy="121.2" r="2.3"/><circle cx="355.1" cy="409.1" r="2.3"/><circle cx="488.4" cy="92.1" r="2.3"/><circle cx="190.8" cy="611.8" r="2.3"/><circle cx="482.8" cy="640.2" r="2.3"/><circle cx="504.9" cy="195.5" r="2.3"/><circle cx="519.8" cy="738.0" r="2.3"/><circle cx="481.4" cy="630.5" r="2.3"/><circle cx="454.0" cy="632.9" r="2.3"/><circle cx="445.3" cy="430.1" r="2.3"/><circle cx="338.0" cy="473.5" r="2.3"/><circle cx="851.8" cy="614.6" r="2.3"/><circle cx="678.2" cy="478.0" r="2.3"/><circle cx="521.3" cy="791.9" r="2.3"/><circle cx="592.3" cy="752.5" r="2.3"/><circle cx="526.8" cy="803.0" r="2.3"/><circle cx="837.6" cy="613.8" r="2.3"/><circle cx="835.3" cy="603.0" r="2.3"/><circle cx="722.3" cy="359.9" r="2.3"/><circle cx="603.0" cy="356.1" r="2.3"/><circle cx="708.3" cy="310.0" r="2.3"/><circle cx="652.5" cy="308.8" r="2.3"/><circle cx="668.7" cy="327.2" r="2.3"/><circle cx="186.3" cy="491.8" r="2.3"/><circle cx="534.6" cy="812.9" r="2.3"/><circle cx="692.7" cy="98.2" r="2.3"/><circle cx="699.5" cy="95.4" r="2.3"/><circle cx="520.8" cy="696.2" r="2.3"/><circle cx="509.5" cy="683.4" r="2.3"/><circle cx="311.2" cy="665.5" r="2.3"/><circle cx="481.8" cy="629.4" r="2.3"/><circle cx="503.4" cy="610.9" r="2.3"/><circle cx="527.8" cy="591.2" r="2.3"/><circle cx="530.4" cy="588.1" r="2.3"/><circle cx="571.6" cy="606.0" r="2.3"/><circle cx="439.5" cy="76.7" r="2.3"/><circle cx="436.6" cy="51.8" r="2.3"/><circle cx="718.4" cy="707.3" r="2.3"/><circle cx="654.2" cy="767.0" r="2.3"/><circle cx="698.0" cy="92.8" r="2.3"/><circle cx="695.8" cy="89.4" r="2.3"/><circle cx="549.5" cy="323.2" r="2.3"/><circle cx="395.7" cy="687.4" r="2.3"/><circle cx="452.4" cy="32.6" r="2.3"/><circle cx="693.0" cy="696.4" r="2.3"/><circle cx="697.0" cy="458.5" r="2.3"/><circle cx="745.7" cy="514.0" r="2.3"/><circle cx="686.5" cy="541.2" r="2.3"/><circle cx="608.5" cy="586.8" r="2.3"/><circle cx="677.0" cy="578.8" r="2.3"/><circle cx="729.0" cy="619.5" r="2.3"/><circle cx="731.3" cy="568.2" r="2.3"/><circle cx="763.5" cy="571.0" r="2.3"/><circle cx="767.6" cy="568.1" r="2.3"/><circle cx="775.5" cy="556.3" r="2.3"/><circle cx="441.9" cy="44.9" r="2.3"/><circle cx="428.5" cy="43.7" r="2.3"/><circle cx="793.6" cy="587.4" r="2.3"/><circle cx="580.5" cy="153.8" r="2.3"/><circle cx="611.2" cy="171.9" r="2.3"/><circle cx="799.6" cy="567.7" r="2.3"/><circle cx="808.7" cy="560.6" r="2.3"/><circle cx="478.8" cy="248.7" r="2.3"/><circle cx="673.7" cy="128.3" r="2.3"/><circle cx="766.9" cy="115.6" r="2.3"/><circle cx="719.4" cy="138.6" r="2.3"/><circle cx="792.1" cy="118.5" r="2.3"/><circle cx="396.6" cy="689.4" r="2.3"/><circle cx="671.0" cy="483.9" r="2.3"/><circle cx="666.9" cy="474.1" r="2.3"/><circle cx="704.9" cy="418.2" r="2.3"/><circle cx="728.3" cy="424.8" r="2.3"/><circle cx="645.2" cy="413.6" r="2.3"/><circle cx="657.5" cy="425.3" r="2.3"/><circle cx="698.2" cy="370.4" r="2.3"/><circle cx="681.1" cy="373.1" r="2.3"/><circle cx="704.1" cy="369.8" r="2.3"/><circle cx="124.9" cy="569.1" r="2.3"/><circle cx="604.4" cy="410.1" r="2.3"/><circle cx="789.7" cy="508.8" r="2.3"/><circle cx="665.5" cy="254.4" r="2.3"/><circle cx="480.6" cy="865.3" r="2.3"/><circle cx="314.2" cy="365.9" r="2.3"/><circle cx="430.8" cy="163.7" r="2.3"/><circle cx="750.5" cy="615.0" r="2.3"/><circle cx="653.8" cy="328.6" r="2.3"/><circle cx="371.5" cy="238.9" r="2.3"/><circle cx="575.5" cy="251.3" r="2.3"/><circle cx="585.7" cy="258.2" r="2.3"/><circle cx="24.0" cy="592.2" r="2.3"/><circle cx="660.6" cy="322.8" r="2.3"/><circle cx="819.7" cy="524.0" r="2.3"/><circle cx="446.6" cy="851.9" r="2.3"/><circle cx="683.1" cy="648.2" r="2.3"/><circle cx="655.6" cy="286.0" r="2.3"/><circle cx="605.1" cy="515.5" r="2.3"/><circle cx="599.9" cy="534.1" r="2.3"/><circle cx="384.7" cy="202.5" r="2.3"/><circle cx="842.1" cy="564.5" r="2.3"/><circle cx="654.2" cy="274.6" r="2.3"/><circle cx="779.9" cy="664.3" r="2.3"/><circle cx="540.9" cy="793.7" r="2.3"/><circle cx="495.2" cy="867.3" r="2.3"/><circle cx="483.8" cy="860.8" r="2.3"/><circle cx="478.2" cy="845.8" r="2.3"/><circle cx="477.0" cy="845.1" r="2.3"/><circle cx="565.8" cy="788.3" r="2.3"/><circle cx="649.1" cy="729.4" r="2.3"/><circle cx="653.1" cy="728.9" r="2.3"/><circle cx="484.6" cy="645.6" r="2.3"/><circle cx="562.5" cy="122.0" r="2.3"/><circle cx="579.3" cy="107.0" r="2.3"/><circle cx="739.5" cy="93.6" r="2.3"/><circle cx="550.4" cy="558.6" r="2.3"/><circle cx="587.8" cy="540.6" r="2.3"/><circle cx="828.2" cy="525.7" r="2.3"/><circle cx="643.0" cy="305.8" r="2.3"/><circle cx="530.3" cy="83.8" r="2.3"/><circle cx="626.9" cy="298.2" r="2.3"/><circle cx="624.7" cy="296.5" r="2.3"/><circle cx="564.1" cy="101.5" r="2.3"/><circle cx="610.4" cy="277.3" r="2.3"/><circle cx="618.7" cy="291.6" r="2.3"/><circle cx="655.2" cy="157.9" r="2.3"/><circle cx="615.2" cy="324.3" r="2.3"/><circle cx="534.0" cy="827.1" r="2.3"/><circle cx="648.2" cy="351.3" r="2.3"/><circle cx="711.8" cy="249.1" r="2.3"/><circle cx="524.6" cy="827.6" r="2.3"/><circle cx="655.0" cy="264.3" r="2.3"/><circle cx="662.0" cy="245.9" r="2.3"/><circle cx="531.0" cy="821.4" r="2.3"/><circle cx="704.4" cy="285.3" r="2.3"/><circle cx="491.4" cy="632.7" r="2.3"/><circle cx="654.7" cy="322.3" r="2.3"/><circle cx="374.8" cy="267.5" r="2.3"/><circle cx="657.1" cy="154.0" r="2.3"/><circle cx="657.2" cy="146.1" r="2.3"/><circle cx="652.8" cy="222.8" r="2.3"/><circle cx="647.5" cy="173.2" r="2.3"/><circle cx="663.2" cy="225.2" r="2.3"/><circle cx="264.1" cy="217.6" r="2.3"/><circle cx="624.5" cy="213.3" r="2.3"/><circle cx="536.5" cy="246.4" r="2.3"/><circle cx="533.8" cy="263.6" r="2.3"/><circle cx="876.0" cy="640.6" r="2.3"/><circle cx="560.1" cy="372.2" r="2.3"/><circle cx="563.5" cy="365.9" r="2.3"/><circle cx="807.5" cy="661.0" r="2.3"/><circle cx="550.6" cy="233.9" r="2.3"/><circle cx="531.5" cy="327.6" r="2.3"/><circle cx="558.1" cy="773.8" r="2.3"/><circle cx="656.4" cy="323.2" r="2.3"/><circle cx="536.0" cy="339.6" r="2.3"/><circle cx="520.5" cy="342.8" r="2.3"/><circle cx="556.0" cy="402.8" r="2.3"/><circle cx="539.0" cy="629.5" r="2.3"/><circle cx="476.6" cy="345.9" r="2.3"/><circle cx="450.5" cy="331.1" r="2.3"/><circle cx="421.3" cy="664.3" r="2.3"/><circle cx="458.5" cy="369.6" r="2.3"/><circle cx="665.9" cy="634.8" r="2.3"/><circle cx="285.3" cy="243.4" r="2.3"/><circle cx="431.5" cy="274.4" r="2.3"/><circle cx="436.5" cy="467.8" r="2.3"/><circle cx="460.4" cy="250.6" r="2.3"/><circle cx="427.7" cy="245.7" r="2.3"/><circle cx="802.8" cy="119.9" r="2.3"/><circle cx="427.5" cy="343.2" r="2.3"/><circle cx="508.5" cy="634.8" r="2.3"/><circle cx="833.3" cy="624.9" r="2.3"/><circle cx="502.9" cy="652.2" r="2.3"/><circle cx="460.8" cy="451.2" r="2.3"/><circle cx="313.6" cy="273.3" r="2.3"/><circle cx="312.7" cy="236.0" r="2.3"/><circle cx="140.9" cy="598.9" r="2.3"/><circle cx="537.3" cy="451.9" r="2.3"/><circle cx="213.8" cy="466.0" r="2.3"/><circle cx="575.5" cy="483.0" r="2.3"/><circle cx="232.8" cy="412.6" r="2.3"/><circle cx="366.6" cy="180.4" r="2.3"/><circle cx="488.7" cy="625.1" r="2.3"/><circle cx="181.7" cy="482.4" r="2.3"/><circle cx="482.0" cy="633.8" r="2.3"/><circle cx="729.0" cy="279.3" r="2.3"/><circle cx="362.4" cy="702.8" r="2.3"/><circle cx="602.6" cy="746.5" r="2.3"/><circle cx="662.6" cy="326.2" r="2.3"/><circle cx="533.3" cy="793.2" r="2.3"/><circle cx="660.3" cy="338.9" r="2.3"/><circle cx="477.8" cy="617.9" r="2.3"/><circle cx="366.1" cy="624.7" r="2.3"/><circle cx="164.8" cy="539.5" r="2.3"/><circle cx="274.7" cy="554.2" r="2.3"/><circle cx="104.2" cy="531.3" r="2.3"/><circle cx="270.2" cy="347.2" r="2.3"/><circle cx="851.4" cy="630.4" r="2.3"/><circle cx="298.2" cy="59.2" r="2.3"/><circle cx="785.4" cy="274.7" r="2.3"/><circle cx="353.9" cy="581.1" r="2.3"/><circle cx="817.6" cy="538.8" r="2.3"/><circle cx="819.9" cy="508.3" r="2.3"/><circle cx="299.0" cy="94.8" r="2.3"/><circle cx="553.6" cy="719.1" r="2.3"/><circle cx="714.0" cy="324.0" r="2.3"/><circle cx="559.0" cy="653.6" r="2.3"/><circle cx="729.3" cy="178.9" r="2.3"/><circle cx="578.5" cy="668.4" r="2.3"/><circle cx="450.1" cy="27.6" r="2.3"/><circle cx="815.0" cy="132.5" r="2.3"/><circle cx="651.2" cy="727.7" r="2.3"/><circle cx="734.8" cy="165.9" r="2.3"/><circle cx="44.2" cy="596.7" r="2.3"/><circle cx="489.4" cy="670.1" r="2.3"/><circle cx="760.0" cy="279.8" r="2.3"/><circle cx="774.2" cy="270.9" r="2.3"/><circle cx="766.9" cy="274.0" r="2.3"/><circle cx="637.1" cy="534.0" r="2.3"/><circle cx="503.3" cy="224.7" r="2.3"/><circle cx="479.2" cy="210.0" r="2.3"/><circle cx="162.3" cy="600.5" r="2.3"/><circle cx="503.3" cy="221.5" r="2.3"/><circle cx="666.4" cy="104.1" r="2.3"/><circle cx="98.1" cy="622.7" r="2.3"/><circle cx="671.7" cy="114.6" r="2.3"/><circle cx="285.6" cy="494.9" r="2.3"/><circle cx="745.3" cy="139.1" r="2.3"/><circle cx="680.8" cy="132.2" r="2.3"/><circle cx="383.7" cy="654.5" r="2.3"/><circle cx="388.2" cy="680.3" r="2.3"/><circle cx="291.5" cy="242.6" r="2.3"/><circle cx="622.5" cy="188.6" r="2.3"/><circle cx="209.7" cy="562.0" r="2.3"/><circle cx="725.0" cy="237.9" r="2.3"/><circle cx="590.5" cy="659.0" r="2.3"/><circle cx="728.4" cy="236.3" r="2.3"/><circle cx="640.8" cy="622.3" r="2.3"/><circle cx="598.3" cy="204.2" r="2.3"/><circle cx="66.3" cy="602.5" r="2.3"/><circle cx="739.3" cy="254.1" r="2.3"/><circle cx="659.9" cy="556.9" r="2.3"/><circle cx="244.8" cy="456.4" r="2.3"/><circle cx="622.3" cy="650.6" r="2.3"/><circle cx="512.3" cy="548.3" r="2.3"/><circle cx="594.4" cy="783.2" r="2.3"/><circle cx="735.4" cy="673.2" r="2.3"/><circle cx="541.5" cy="834.2" r="2.3"/><circle cx="680.5" cy="704.0" r="2.3"/><circle cx="736.1" cy="646.0" r="2.3"/><circle cx="708.5" cy="621.2" r="2.3"/><circle cx="767.0" cy="382.7" r="2.3"/><circle cx="741.2" cy="354.4" r="2.3"/><circle cx="521.1" cy="809.3" r="2.3"/><circle cx="439.4" cy="829.3" r="2.3"/><circle cx="767.7" cy="303.4" r="2.3"/><circle cx="498.0" cy="821.0" r="2.3"/><circle cx="797.2" cy="302.3" r="2.3"/><circle cx="470.6" cy="691.7" r="2.3"/><circle cx="590.0" cy="779.6" r="2.3"/><circle cx="772.6" cy="358.2" r="2.3"/><circle cx="377.8" cy="540.6" r="2.3"/><circle cx="723.9" cy="339.4" r="2.3"/><circle cx="445.0" cy="803.6" r="2.3"/><circle cx="494.4" cy="701.2" r="2.3"/><circle cx="384.1" cy="698.8" r="2.3"/><circle cx="325.5" cy="626.2" r="2.3"/><circle cx="299.4" cy="64.1" r="2.3"/><circle cx="479.3" cy="834.4" r="2.3"/><circle cx="431.6" cy="756.1" r="2.3"/><circle cx="668.5" cy="151.5" r="2.3"/><circle cx="518.0" cy="723.3" r="2.3"/><circle cx="742.2" cy="106.1" r="2.3"/><circle cx="649.0" cy="187.5" r="2.3"/><circle cx="738.7" cy="201.2" r="2.3"/><circle cx="772.5" cy="233.8" r="2.3"/><circle cx="732.7" cy="80.2" r="2.3"/><circle cx="707.7" cy="110.0" r="2.3"/><circle cx="367.5" cy="433.4" r="2.3"/><circle cx="269.4" cy="143.5" r="2.3"/><circle cx="284.0" cy="424.1" r="2.3"/><circle cx="422.1" cy="621.2" r="2.3"/><circle cx="296.1" cy="497.2" r="2.3"/><circle cx="629.7" cy="427.8" r="2.3"/><circle cx="498.6" cy="645.4" r="2.3"/><circle cx="743.8" cy="437.9" r="2.3"/><circle cx="430.8" cy="117.0" r="2.3"/><circle cx="765.5" cy="635.5" r="2.3"/><circle cx="569.7" cy="798.2" r="2.3"/><circle cx="360.4" cy="554.2" r="2.3"/><circle cx="539.5" cy="825.3" r="2.3"/><circle cx="540.4" cy="830.8" r="2.3"/><circle cx="410.9" cy="684.0" r="2.3"/><circle cx="854.7" cy="632.6" r="2.3"/><circle cx="540.7" cy="826.7" r="2.3"/><circle cx="736.4" cy="647.7" r="2.3"/><circle cx="449.2" cy="731.4" r="2.3"/><circle cx="345.9" cy="700.0" r="2.3"/><circle cx="522.4" cy="805.0" r="2.3"/><circle cx="545.6" cy="829.6" r="2.3"/><circle cx="518.1" cy="803.0" r="2.3"/><circle cx="481.6" cy="663.6" r="2.3"/><circle cx="509.9" cy="808.9" r="2.3"/><circle cx="512.8" cy="805.6" r="2.3"/><circle cx="556.1" cy="764.3" r="2.3"/><circle cx="622.0" cy="141.2" r="2.3"/><circle cx="519.5" cy="36.1" r="2.3"/><circle cx="482.8" cy="622.6" r="2.3"/><circle cx="426.6" cy="591.0" r="2.3"/><circle cx="627.7" cy="656.7" r="2.3"/><circle cx="509.9" cy="823.3" r="2.3"/><circle cx="498.9" cy="636.2" r="2.3"/><circle cx="536.2" cy="826.6" r="2.3"/><circle cx="684.0" cy="649.2" r="2.3"/><circle cx="293.6" cy="495.9" r="2.3"/><circle cx="217.4" cy="542.9" r="2.3"/><circle cx="216.6" cy="563.0" r="2.3"/><circle cx="842.4" cy="566.3" r="2.3"/><circle cx="840.5" cy="553.8" r="2.3"/><circle cx="647.1" cy="483.4" r="2.3"/><circle cx="445.1" cy="477.9" r="2.3"/><circle cx="563.9" cy="686.7" r="2.3"/><circle cx="482.7" cy="865.6" r="2.3"/><circle cx="739.9" cy="256.8" r="2.3"/><circle cx="783.7" cy="342.2" r="2.3"/><circle cx="658.0" cy="103.5" r="2.3"/><circle cx="772.1" cy="301.3" r="2.3"/><circle cx="740.1" cy="340.1" r="2.3"/><circle cx="788.5" cy="504.6" r="2.3"/><circle cx="763.9" cy="326.2" r="2.3"/><circle cx="761.9" cy="320.6" r="2.3"/><circle cx="670.0" cy="162.2" r="2.3"/><circle cx="657.6" cy="157.6" r="2.3"/><circle cx="636.7" cy="144.2" r="2.3"/><circle cx="810.2" cy="529.6" r="2.3"/><circle cx="719.3" cy="683.0" r="2.3"/><circle cx="510.4" cy="572.8" r="2.3"/><circle cx="500.2" cy="648.8" r="2.3"/><circle cx="271.3" cy="274.7" r="2.3"/><circle cx="338.0" cy="210.9" r="2.3"/><circle cx="810.1" cy="629.1" r="2.3"/><circle cx="426.7" cy="122.3" r="2.3"/><circle cx="706.4" cy="593.6" r="2.3"/><circle cx="448.6" cy="572.9" r="2.3"/><circle cx="397.6" cy="694.6" r="2.3"/><circle cx="750.1" cy="689.5" r="2.3"/><circle cx="484.4" cy="642.3" r="2.3"/><circle cx="773.2" cy="647.4" r="2.3"/><circle cx="458.5" cy="565.4" r="2.3"/><circle cx="743.7" cy="682.2" r="2.3"/><circle cx="745.7" cy="681.1" r="2.3"/><circle cx="746.7" cy="680.5" r="2.3"/><circle cx="329.2" cy="49.1" r="2.3"/><circle cx="744.4" cy="678.6" r="2.3"/><circle cx="744.6" cy="675.9" r="2.3"/><circle cx="739.5" cy="684.7" r="2.3"/><circle cx="756.2" cy="304.5" r="2.3"/><circle cx="107.4" cy="537.5" r="2.3"/><circle cx="494.3" cy="630.5" r="2.3"/><circle cx="840.0" cy="584.8" r="2.3"/><circle cx="667.9" cy="96.6" r="2.3"/><circle cx="680.1" cy="112.2" r="2.3"/><circle cx="461.6" cy="780.3" r="2.3"/><circle cx="744.9" cy="78.1" r="2.3"/><circle cx="718.3" cy="699.9" r="2.3"/><circle cx="593.2" cy="121.0" r="2.3"/><circle cx="664.7" cy="111.5" r="2.3"/><circle cx="475.9" cy="625.0" r="2.3"/><circle cx="473.5" cy="623.4" r="2.3"/><circle cx="592.1" cy="123.5" r="2.3"/><circle cx="732.3" cy="291.6" r="2.3"/><circle cx="672.0" cy="316.8" r="2.3"/><circle cx="482.4" cy="638.0" r="2.3"/><circle cx="483.1" cy="637.2" r="2.3"/><circle cx="487.9" cy="639.6" r="2.3"/><circle cx="486.1" cy="635.8" r="2.3"/><circle cx="487.9" cy="633.3" r="2.3"/><circle cx="599.4" cy="678.1" r="2.3"/><circle cx="479.5" cy="460.6" r="2.3"/><circle cx="477.2" cy="619.2" r="2.3"/><circle cx="299.2" cy="257.8" r="2.3"/><circle cx="40.0" cy="588.5" r="2.3"/><circle cx="736.0" cy="78.6" r="2.3"/><circle cx="662.7" cy="318.8" r="2.3"/><circle cx="666.0" cy="334.1" r="2.3"/><circle cx="603.9" cy="131.2" r="2.3"/><circle cx="504.7" cy="216.2" r="2.3"/><circle cx="654.6" cy="325.6" r="2.3"/><circle cx="479.7" cy="638.5" r="2.3"/><circle cx="365.7" cy="701.1" r="2.3"/><circle cx="486.3" cy="607.6" r="2.3"/><circle cx="492.9" cy="609.4" r="2.3"/><circle cx="495.6" cy="606.6" r="2.3"/><circle cx="503.7" cy="601.5" r="2.3"/><circle cx="483.2" cy="608.2" r="2.3"/><circle cx="632.4" cy="440.3" r="2.3"/><circle cx="744.0" cy="627.0" r="2.3"/><circle cx="559.7" cy="689.1" r="2.3"/><circle cx="666.8" cy="617.9" r="2.3"/><circle cx="798.9" cy="355.4" r="2.3"/><circle cx="693.8" cy="92.7" r="2.3"/><circle cx="723.3" cy="144.8" r="2.3"/><circle cx="513.9" cy="237.5" r="2.3"/><circle cx="489.1" cy="834.9" r="2.3"/><circle cx="589.0" cy="119.6" r="2.3"/><circle cx="696.4" cy="113.9" r="2.3"/><circle cx="476.6" cy="616.3" r="2.3"/><circle cx="580.0" cy="121.8" r="2.3"/><circle cx="588.5" cy="125.8" r="2.3"/><circle cx="823.9" cy="135.2" r="2.3"/><circle cx="516.3" cy="604.7" r="2.3"/><circle cx="486.0" cy="641.9" r="2.3"/><circle cx="688.8" cy="104.9" r="2.3"/><circle cx="688.7" cy="106.8" r="2.3"/><circle cx="506.2" cy="630.5" r="2.3"/><circle cx="788.2" cy="313.5" r="2.3"/><circle cx="691.0" cy="110.7" r="2.3"/><circle cx="283.3" cy="233.6" r="2.3"/><circle cx="431.5" cy="573.5" r="2.3"/><circle cx="690.9" cy="102.4" r="2.3"/><circle cx="646.4" cy="184.5" r="2.3"/><circle cx="674.7" cy="124.4" r="2.3"/><circle cx="340.9" cy="541.0" r="2.3"/><circle cx="477.8" cy="641.7" r="2.3"/><circle cx="508.7" cy="605.7" r="2.3"/><circle cx="510.3" cy="639.2" r="2.3"/><circle cx="477.6" cy="639.5" r="2.3"/><circle cx="493.5" cy="644.4" r="2.3"/><circle cx="355.0" cy="76.0" r="2.3"/><circle cx="213.0" cy="559.7" r="2.3"/><circle cx="743.7" cy="134.3" r="2.3"/><circle cx="498.9" cy="637.3" r="2.3"/><circle cx="275.3" cy="219.1" r="2.3"/><circle cx="734.8" cy="475.5" r="2.3"/><circle cx="486.2" cy="637.3" r="2.3"/><circle cx="520.5" cy="42.1" r="2.3"/><circle cx="344.4" cy="549.5" r="2.3"/><circle cx="424.6" cy="116.5" r="2.3"/><circle cx="460.5" cy="627.9" r="2.3"/><circle cx="630.7" cy="424.3" r="2.3"/><circle cx="473.8" cy="629.7" r="2.3"/><circle cx="837.6" cy="538.5" r="2.3"/><circle cx="497.3" cy="636.3" r="2.3"/><circle cx="492.1" cy="642.5" r="2.3"/><circle cx="477.4" cy="646.1" r="2.3"/><circle cx="467.9" cy="629.5" r="2.3"/><circle cx="487.1" cy="645.5" r="2.3"/><circle cx="856.2" cy="605.6" r="2.3"/><circle cx="448.1" cy="537.5" r="2.3"/><circle cx="348.4" cy="700.5" r="2.3"/><circle cx="347.0" cy="708.4" r="2.3"/><circle cx="340.6" cy="702.5" r="2.3"/><circle cx="343.9" cy="700.8" r="2.3"/><circle cx="493.0" cy="611.7" r="2.3"/><circle cx="490.2" cy="643.9" r="2.3"/><circle cx="539.5" cy="821.9" r="2.3"/><circle cx="493.5" cy="640.3" r="2.3"/><circle cx="484.3" cy="649.4" r="2.3"/><circle cx="513.0" cy="619.1" r="2.3"/><circle cx="479.5" cy="746.8" r="2.3"/><circle cx="521.9" cy="37.5" r="2.3"/><circle cx="526.3" cy="36.6" r="2.3"/><circle cx="475.3" cy="648.6" r="2.3"/><circle cx="517.7" cy="133.6" r="2.3"/><circle cx="252.6" cy="367.6" r="2.3"/><circle cx="749.0" cy="666.9" r="2.3"/><circle cx="689.3" cy="589.1" r="2.3"/><circle cx="670.2" cy="144.2" r="2.3"/><circle cx="781.3" cy="483.4" r="2.3"/><circle cx="219.5" cy="467.3" r="2.3"/><circle cx="758.8" cy="440.0" r="2.3"/><circle cx="497.6" cy="293.5" r="2.3"/><circle cx="729.5" cy="151.5" r="2.3"/><circle cx="713.3" cy="250.4" r="2.3"/><circle cx="717.9" cy="268.6" r="2.3"/><circle cx="601.8" cy="201.2" r="2.3"/><circle cx="727.3" cy="77.8" r="2.3"/><circle cx="839.3" cy="512.5" r="2.3"/><circle cx="472.2" cy="655.0" r="2.3"/><circle cx="464.7" cy="656.8" r="2.3"/><circle cx="799.5" cy="117.0" r="2.3"/><circle cx="784.2" cy="106.2" r="2.3"/><circle cx="483.0" cy="635.2" r="2.3"/><circle cx="738.1" cy="130.6" r="2.3"/><circle cx="719.2" cy="241.6" r="2.3"/><circle cx="624.4" cy="143.5" r="2.3"/><circle cx="259.5" cy="545.0" r="2.3"/><circle cx="359.1" cy="441.5" r="2.3"/><circle cx="539.7" cy="328.1" r="2.3"/><circle cx="614.8" cy="225.4" r="2.3"/><circle cx="505.7" cy="518.4" r="2.3"/><circle cx="441.2" cy="38.4" r="2.3"/><circle cx="467.3" cy="653.7" r="2.3"/><circle cx="837.9" cy="530.2" r="2.3"/><circle cx="488.5" cy="627.9" r="2.3"/><circle cx="508.2" cy="638.2" r="2.3"/><circle cx="332.9" cy="322.6" r="2.3"/><circle cx="519.9" cy="584.7" r="2.3"/><circle cx="642.8" cy="142.4" r="2.3"/><circle cx="475.2" cy="639.9" r="2.3"/><circle cx="662.0" cy="304.0" r="2.3"/><circle cx="590.6" cy="118.4" r="2.3"/><circle cx="491.9" cy="629.0" r="2.3"/><circle cx="816.3" cy="128.5" r="2.3"/><circle cx="811.1" cy="127.1" r="2.3"/><circle cx="819.3" cy="130.9" r="2.3"/><circle cx="271.1" cy="477.1" r="2.3"/><circle cx="636.8" cy="505.1" r="2.3"/><circle cx="738.3" cy="475.3" r="2.3"/><circle cx="626.6" cy="293.5" r="2.3"/><circle cx="517.9" cy="636.0" r="2.3"/><circle cx="758.9" cy="281.1" r="2.3"/><circle cx="837.5" cy="526.2" r="2.3"/><circle cx="437.9" cy="631.7" r="2.3"/><circle cx="640.7" cy="407.7" r="2.3"/><circle cx="548.7" cy="307.2" r="2.3"/><circle cx="543.2" cy="830.0" r="2.3"/><circle cx="225.5" cy="473.6" r="2.3"/><circle cx="856.4" cy="602.3" r="2.3"/><circle cx="227.1" cy="471.5" r="2.3"/><circle cx="693.8" cy="454.6" r="2.3"/><circle cx="787.1" cy="490.8" r="2.3"/><circle cx="689.9" cy="98.5" r="2.3"/><circle cx="656.8" cy="108.1" r="2.3"/><circle cx="835.1" cy="510.9" r="2.3"/><circle cx="743.6" cy="598.1" r="2.3"/><circle cx="487.4" cy="640.6" r="2.3"/><circle cx="531.7" cy="243.4" r="2.3"/><circle cx="413.2" cy="139.5" r="2.3"/><circle cx="486.7" cy="643.4" r="2.3"/><circle cx="590.1" cy="122.2" r="2.3"/><circle cx="696.1" cy="96.9" r="2.3"/><circle cx="752.4" cy="613.8" r="2.3"/><circle cx="483.9" cy="634.4" r="2.3"/><circle cx="179.6" cy="477.7" r="2.3"/><circle cx="484.2" cy="635.6" r="2.3"/><circle cx="183.8" cy="479.3" r="2.3"/><circle cx="653.0" cy="286.8" r="2.3"/><circle cx="460.5" cy="249.4" r="2.3"/><circle cx="512.1" cy="825.7" r="2.3"/><circle cx="691.7" cy="95.4" r="2.3"/><circle cx="502.2" cy="147.1" r="2.3"/><circle cx="461.1" cy="150.0" r="2.3"/><circle cx="527.5" cy="118.6" r="2.3"/><circle cx="649.3" cy="142.9" r="2.3"/><circle cx="658.3" cy="250.1" r="2.3"/><circle cx="654.2" cy="236.9" r="2.3"/><circle cx="737.5" cy="196.9" r="2.3"/><circle cx="727.9" cy="310.6" r="2.3"/><circle cx="762.4" cy="314.6" r="2.3"/><circle cx="765.0" cy="319.1" r="2.3"/><circle cx="267.4" cy="454.6" r="2.3"/><circle cx="452.4" cy="759.1" r="2.3"/><circle cx="464.4" cy="268.3" r="2.3"/><circle cx="274.4" cy="227.1" r="2.3"/><circle cx="477.0" cy="261.6" r="2.3"/><circle cx="536.3" cy="798.8" r="2.3"/><circle cx="538.0" cy="794.8" r="2.3"/><circle cx="743.8" cy="472.0" r="2.3"/><circle cx="459.0" cy="528.1" r="2.3"/><circle cx="489.7" cy="864.9" r="2.3"/><circle cx="498.5" cy="784.1" r="2.3"/><circle cx="733.2" cy="171.8" r="2.3"/><circle cx="592.4" cy="217.6" r="2.3"/><circle cx="662.2" cy="237.2" r="2.3"/><circle cx="653.2" cy="283.2" r="2.3"/><circle cx="745.5" cy="101.8" r="2.3"/><circle cx="693.8" cy="91.3" r="2.3"/><circle cx="717.9" cy="134.0" r="2.3"/><circle cx="726.6" cy="279.2" r="2.3"/><circle cx="258.2" cy="550.4" r="2.3"/><circle cx="226.7" cy="114.9" r="2.3"/><circle cx="368.2" cy="123.5" r="2.3"/><circle cx="296.3" cy="380.3" r="2.3"/><circle cx="527.3" cy="814.0" r="2.3"/><circle cx="715.9" cy="88.8" r="2.3"/><circle cx="481.5" cy="644.7" r="2.3"/><circle cx="656.8" cy="326.6" r="2.3"/><circle cx="597.5" cy="675.6" r="2.3"/><circle cx="477.7" cy="609.8" r="2.3"/><circle cx="440.8" cy="581.8" r="2.3"/><circle cx="489.3" cy="638.3" r="2.3"/><circle cx="490.0" cy="637.1" r="2.3"/><circle cx="489.4" cy="639.8" r="2.3"/><circle cx="487.2" cy="634.9" r="2.3"/><circle cx="493.2" cy="637.8" r="2.3"/><circle cx="487.5" cy="612.8" r="2.3"/><circle cx="480.5" cy="627.8" r="2.3"/><circle cx="475.6" cy="618.0" r="2.3"/><circle cx="503.2" cy="634.0" r="2.3"/><circle cx="500.7" cy="630.3" r="2.3"/><circle cx="525.1" cy="789.8" r="2.3"/><circle cx="851.4" cy="590.0" r="2.3"/><circle cx="848.0" cy="577.7" r="2.3"/><circle cx="520.7" cy="811.0" r="2.3"/><circle cx="477.4" cy="622.4" r="2.3"/><circle cx="835.7" cy="138.6" r="2.3"/><circle cx="500.6" cy="642.4" r="2.3"/><circle cx="486.0" cy="631.2" r="2.3"/><circle cx="488.1" cy="630.5" r="2.3"/><circle cx="449.2" cy="855.8" r="2.3"/><circle cx="487.2" cy="638.8" r="2.3"/><circle cx="798.3" cy="126.6" r="2.3"/><circle cx="712.4" cy="263.4" r="2.3"/><circle cx="490.9" cy="637.5" r="2.3"/><circle cx="515.8" cy="164.4" r="2.3"/><circle cx="287.0" cy="241.3" r="2.3"/><circle cx="504.7" cy="381.7" r="2.3"/><circle cx="398.9" cy="683.9" r="2.3"/><circle cx="544.8" cy="331.8" r="2.3"/><circle cx="479.8" cy="635.4" r="2.3"/><circle cx="480.1" cy="644.5" r="2.3"/><circle cx="548.0" cy="334.1" r="2.3"/><circle cx="552.6" cy="374.7" r="2.3"/><circle cx="216.5" cy="477.0" r="2.3"/><circle cx="517.0" cy="638.8" r="2.3"/><circle cx="513.5" cy="633.9" r="2.3"/><circle cx="691.9" cy="92.4" r="2.3"/><circle cx="694.3" cy="89.2" r="2.3"/><circle cx="693.2" cy="94.4" r="2.3"/><circle cx="491.3" cy="631.1" r="2.3"/><circle cx="809.2" cy="119.9" r="2.3"/><circle cx="493.7" cy="676.3" r="2.3"/><circle cx="519.4" cy="380.3" r="2.3"/><circle cx="568.0" cy="795.1" r="2.3"/><circle cx="586.8" cy="776.4" r="2.3"/><circle cx="485.6" cy="639.1" r="2.3"/><circle cx="424.0" cy="126.8" r="2.3"/><circle cx="633.9" cy="634.5" r="2.3"/><circle cx="486.4" cy="639.9" r="2.3"/><circle cx="344.5" cy="248.0" r="2.3"/><circle cx="496.0" cy="821.5" r="2.3"/><circle cx="659.4" cy="106.6" r="2.3"/><circle cx="322.5" cy="226.5" r="2.3"/><circle cx="490.3" cy="634.2" r="2.3"/><circle cx="488.8" cy="635.6" r="2.3"/><circle cx="445.0" cy="646.5" r="2.3"/><circle cx="486.6" cy="633.1" r="2.3"/><circle cx="523.3" cy="586.0" r="2.3"/><circle cx="289.4" cy="238.5" r="2.3"/><circle cx="484.8" cy="634.2" r="2.3"/><circle cx="518.3" cy="163.7" r="2.3"/><circle cx="581.7" cy="534.9" r="2.3"/><circle cx="841.1" cy="550.9" r="2.3"/><circle cx="750.8" cy="670.9" r="2.3"/><circle cx="738.9" cy="637.5" r="2.3"/><circle cx="483.7" cy="865.9" r="2.3"/><circle cx="500.3" cy="651.8" r="2.3"/><circle cx="734.2" cy="158.5" r="2.3"/><circle cx="778.5" cy="139.0" r="2.3"/><circle cx="580.2" cy="233.9" r="2.3"/><circle cx="864.0" cy="618.7" r="2.3"/><circle cx="748.5" cy="657.5" r="2.3"/><circle cx="475.8" cy="278.1" r="2.3"/><circle cx="564.9" cy="791.2" r="2.3"/><circle cx="488.8" cy="642.0" r="2.3"/><circle cx="684.6" cy="333.1" r="2.3"/><circle cx="650.1" cy="190.8" r="2.3"/><circle cx="477.5" cy="688.3" r="2.3"/><circle cx="430.1" cy="124.7" r="2.3"/><circle cx="283.5" cy="236.3" r="2.3"/><circle cx="525.0" cy="760.2" r="2.3"/><circle cx="480.6" cy="639.9" r="2.3"/><circle cx="490.8" cy="653.6" r="2.3"/><circle cx="491.4" cy="652.3" r="2.3"/><circle cx="493.7" cy="652.1" r="2.3"/><circle cx="506.5" cy="647.7" r="2.3"/><circle cx="614.7" cy="674.4" r="2.3"/><circle cx="643.4" cy="747.3" r="2.3"/><circle cx="551.8" cy="789.2" r="2.3"/><circle cx="554.4" cy="788.9" r="2.3"/><circle cx="605.1" cy="679.3" r="2.3"/><circle cx="553.2" cy="688.0" r="2.3"/><circle cx="723.7" cy="357.0" r="2.3"/><circle cx="460.0" cy="631.2" r="2.3"/><circle cx="513.1" cy="232.9" r="2.3"/><circle cx="482.3" cy="636.3" r="2.3"/><circle cx="492.6" cy="635.5" r="2.3"/><circle cx="737.0" cy="301.6" r="2.3"/><circle cx="483.7" cy="638.4" r="2.3"/><circle cx="646.7" cy="335.2" r="2.3"/><circle cx="646.9" cy="303.7" r="2.3"/><circle cx="662.3" cy="253.1" r="2.3"/><circle cx="658.9" cy="327.4" r="2.3"/><circle cx="769.2" cy="213.8" r="2.3"/><circle cx="483.0" cy="675.7" r="2.3"/><circle cx="459.9" cy="851.5" r="2.3"/><circle cx="477.3" cy="856.2" r="2.3"/><circle cx="521.8" cy="733.9" r="2.3"/><circle cx="499.6" cy="660.5" r="2.3"/><circle cx="299.1" cy="384.5" r="2.3"/><circle cx="536.8" cy="813.5" r="2.3"/><circle cx="523.2" cy="821.4" r="2.3"/><circle cx="481.0" cy="740.4" r="2.3"/><circle cx="378.0" cy="689.3" r="2.3"/><circle cx="395.0" cy="703.1" r="2.3"/><circle cx="241.3" cy="608.1" r="2.3"/><circle cx="310.9" cy="659.8" r="2.3"/><circle cx="341.7" cy="673.0" r="2.3"/><circle cx="220.7" cy="557.3" r="2.3"/><circle cx="133.1" cy="595.2" r="2.3"/><circle cx="344.1" cy="540.0" r="2.3"/><circle cx="451.5" cy="559.7" r="2.3"/><circle cx="501.3" cy="521.2" r="2.3"/><circle cx="146.9" cy="514.9" r="2.3"/><circle cx="705.9" cy="285.0" r="2.3"/><circle cx="480.9" cy="123.5" r="2.3"/><circle cx="456.7" cy="650.4" r="2.3"/><circle cx="449.6" cy="646.4" r="2.3"/><circle cx="792.0" cy="499.4" r="2.3"/><circle cx="848.6" cy="602.9" r="2.3"/><circle cx="851.8" cy="607.3" r="2.3"/><circle cx="464.7" cy="647.7" r="2.3"/><circle cx="486.0" cy="763.2" r="2.3"/><circle cx="815.1" cy="143.0" r="2.3"/><circle cx="794.4" cy="671.5" r="2.3"/><circle cx="692.9" cy="130.1" r="2.3"/><circle cx="434.0" cy="654.6" r="2.3"/><circle cx="434.0" cy="653.5" r="2.3"/><circle cx="214.3" cy="469.3" r="2.3"/><circle cx="738.2" cy="89.7" r="2.3"/><circle cx="448.0" cy="649.3" r="2.3"/><circle cx="821.6" cy="131.5" r="2.3"/><circle cx="711.2" cy="388.9" r="2.3"/><circle cx="54.0" cy="550.7" r="2.3"/><circle cx="591.4" cy="512.7" r="2.3"/><circle cx="714.3" cy="271.1" r="2.3"/><circle cx="621.0" cy="307.6" r="2.3"/><circle cx="660.1" cy="337.3" r="2.3"/><circle cx="331.1" cy="86.5" r="2.3"/><circle cx="496.1" cy="631.7" r="2.3"/><circle cx="658.2" cy="342.9" r="2.3"/><circle cx="572.7" cy="529.6" r="2.3"/><circle cx="528.3" cy="768.7" r="2.3"/><circle cx="488.2" cy="661.3" r="2.3"/><circle cx="772.1" cy="90.3" r="2.3"/><circle cx="549.1" cy="98.3" r="2.3"/><circle cx="722.3" cy="117.2" r="2.3"/><circle cx="292.7" cy="343.3" r="2.3"/><circle cx="191.7" cy="484.3" r="2.3"/><circle cx="508.2" cy="85.8" r="2.3"/><circle cx="554.9" cy="738.9" r="2.3"/><circle cx="64.9" cy="538.3" r="2.3"/></g><g fill="#fb923c" fill-opacity="0.82"><circle cx="338.6" cy="700.4" r="2.3"/><circle cx="449.2" cy="853.2" r="2.3"/><circle cx="837.3" cy="514.1" r="2.3"/><circle cx="720.8" cy="127.9" r="2.3"/><circle cx="286.0" cy="275.6" r="2.3"/><circle cx="286.7" cy="275.0" r="2.3"/><circle cx="377.0" cy="496.7" r="2.3"/><circle cx="564.7" cy="594.1" r="2.3"/><circle cx="474.1" cy="858.6" r="2.3"/><circle cx="645.3" cy="743.8" r="2.3"/><circle cx="511.1" cy="519.8" r="2.3"/><circle cx="481.8" cy="666.2" r="2.3"/><circle cx="808.4" cy="627.2" r="2.3"/><circle cx="522.0" cy="585.7" r="2.3"/><circle cx="478.0" cy="616.9" r="2.3"/><circle cx="458.4" cy="656.9" r="2.3"/><circle cx="667.7" cy="338.3" r="2.3"/><circle cx="723.3" cy="129.9" r="2.3"/><circle cx="519.7" cy="162.5" r="2.3"/><circle cx="754.7" cy="358.6" r="2.3"/><circle cx="660.6" cy="107.8" r="2.3"/><circle cx="282.3" cy="278.6" r="2.3"/><circle cx="287.4" cy="318.7" r="2.3"/><circle cx="293.3" cy="371.8" r="2.3"/><circle cx="372.4" cy="396.0" r="2.3"/><circle cx="438.2" cy="395.2" r="2.3"/><circle cx="291.1" cy="254.8" r="2.3"/><circle cx="384.1" cy="168.6" r="2.3"/><circle cx="474.7" cy="861.8" r="2.3"/><circle cx="441.6" cy="124.2" r="2.3"/><circle cx="462.7" cy="101.2" r="2.3"/><circle cx="642.7" cy="160.3" r="2.3"/><circle cx="363.2" cy="81.5" r="2.3"/><circle cx="323.6" cy="429.1" r="2.3"/><circle cx="288.1" cy="101.4" r="2.3"/><circle cx="286.9" cy="217.0" r="2.3"/><circle cx="268.4" cy="160.2" r="2.3"/><circle cx="231.6" cy="104.7" r="2.3"/><circle cx="201.8" cy="477.2" r="2.3"/><circle cx="386.5" cy="341.9" r="2.3"/><circle cx="638.7" cy="142.9" r="2.3"/><circle cx="230.9" cy="516.7" r="2.3"/><circle cx="545.9" cy="447.9" r="2.3"/><circle cx="452.2" cy="631.0" r="2.3"/><circle cx="339.9" cy="471.7" r="2.3"/><circle cx="523.7" cy="791.1" r="2.3"/><circle cx="594.9" cy="752.6" r="2.3"/><circle cx="823.1" cy="557.4" r="2.3"/><circle cx="838.0" cy="611.3" r="2.3"/><circle cx="607.1" cy="358.5" r="2.3"/><circle cx="566.1" cy="601.8" r="2.3"/><circle cx="653.1" cy="764.6" r="2.3"/><circle cx="608.5" cy="584.2" r="2.3"/><circle cx="766.8" cy="113.0" r="2.3"/><circle cx="791.2" cy="120.9" r="2.3"/><circle cx="647.3" cy="412.1" r="2.3"/><circle cx="449.2" cy="851.4" r="2.3"/><circle cx="782.3" cy="665.4" r="2.3"/><circle cx="410.4" cy="752.9" r="2.3"/><circle cx="470.3" cy="808.3" r="2.3"/><circle cx="412.0" cy="751.7" r="2.3"/><circle cx="749.1" cy="693.9" r="2.3"/><circle cx="666.8" cy="632.4" r="2.3"/><circle cx="782.8" cy="274.4" r="2.3"/><circle cx="44.5" cy="594.1" r="2.3"/><circle cx="742.2" cy="611.1" r="2.3"/><circle cx="769.1" cy="301.5" r="2.3"/><circle cx="774.1" cy="273.5" r="2.3"/><circle cx="738.0" cy="267.8" r="2.3"/><circle cx="385.5" cy="168.9" r="2.3"/><circle cx="745.6" cy="436.1" r="2.3"/><circle cx="521.2" cy="651.0" r="2.3"/><circle cx="418.4" cy="513.6" r="2.3"/><circle cx="645.7" cy="481.2" r="2.3"/><circle cx="502.8" cy="648.7" r="2.3"/><circle cx="738.5" cy="337.3" r="2.3"/><circle cx="719.2" cy="131.2" r="2.3"/><circle cx="104.9" cy="536.9" r="2.3"/><circle cx="837.5" cy="585.2" r="2.3"/><circle cx="668.5" cy="99.1" r="2.3"/><circle cx="236.3" cy="672.1" r="2.3"/><circle cx="720.6" cy="701.3" r="2.3"/><circle cx="734.7" cy="290.8" r="2.3"/><circle cx="481.4" cy="458.9" r="2.3"/><circle cx="479.3" cy="617.7" r="2.3"/><circle cx="298.9" cy="260.4" r="2.3"/><circle cx="665.3" cy="318.8" r="2.3"/><circle cx="675.2" cy="317.6" r="2.3"/><circle cx="668.5" cy="334.7" r="2.3"/><circle cx="507.3" cy="228.0" r="2.3"/><circle cx="485.5" cy="605.1" r="2.3"/><circle cx="738.4" cy="374.9" r="2.3"/><circle cx="580.0" cy="124.4" r="2.3"/><circle cx="690.1" cy="107.1" r="2.3"/><circle cx="507.7" cy="628.4" r="2.3"/><circle cx="375.5" cy="496.8" r="2.3"/><circle cx="508.7" cy="641.3" r="2.3"/><circle cx="740.1" cy="601.8" r="2.3"/><circle cx="371.3" cy="740.6" r="2.3"/><circle cx="394.0" cy="654.3" r="2.3"/><circle cx="518.2" cy="40.8" r="2.3"/><circle cx="633.3" cy="423.7" r="2.3"/><circle cx="839.9" cy="539.6" r="2.3"/><circle cx="450.5" cy="536.4" r="2.3"/><circle cx="480.8" cy="749.0" r="2.3"/><circle cx="668.1" cy="142.7" r="2.3"/><circle cx="779.6" cy="485.3" r="2.3"/><circle cx="522.8" cy="499.3" r="2.3"/><circle cx="260.2" cy="547.6" r="2.3"/><circle cx="201.1" cy="707.3" r="2.3"/><circle cx="467.9" cy="656.2" r="2.3"/><circle cx="311.5" cy="270.9" r="2.3"/><circle cx="740.3" cy="637.5" r="2.3"/><circle cx="521.3" cy="586.8" r="2.3"/><circle cx="338.3" cy="382.1" r="2.3"/><circle cx="650.4" cy="219.0" r="2.3"/><circle cx="498.9" cy="522.2" r="2.3"/><circle cx="380.4" cy="483.8" r="2.3"/><circle cx="270.5" cy="479.7" r="2.3"/><circle cx="834.3" cy="513.4" r="2.3"/><circle cx="414.6" cy="141.7" r="2.3"/><circle cx="764.6" cy="315.9" r="2.3"/><circle cx="762.9" cy="317.6" r="2.3"/><circle cx="452.2" cy="756.5" r="2.3"/><circle cx="435.3" cy="520.6" r="2.3"/><circle cx="552.5" cy="786.8" r="2.3"/><circle cx="307.6" cy="536.3" r="2.3"/><circle cx="715.0" cy="264.0" r="2.3"/><circle cx="549.8" cy="332.3" r="2.3"/><circle cx="551.5" cy="377.1" r="2.3"/><circle cx="446.3" cy="644.2" r="2.3"/><circle cx="522.5" cy="588.5" r="2.3"/><circle cx="581.7" cy="537.5" r="2.3"/><circle cx="753.4" cy="671.5" r="2.3"/><circle cx="741.2" cy="636.4" r="2.3"/><circle cx="756.7" cy="584.9" r="2.3"/><circle cx="478.3" cy="277.5" r="2.3"/><circle cx="684.4" cy="330.5" r="2.3"/><circle cx="647.6" cy="190.0" r="2.3"/><circle cx="593.7" cy="601.8" r="2.3"/><circle cx="525.3" cy="649.5" r="2.3"/><circle cx="493.1" cy="654.7" r="2.3"/><circle cx="615.5" cy="672.0" r="2.3"/><circle cx="638.0" cy="737.2" r="2.3"/><circle cx="628.6" cy="698.2" r="2.3"/><circle cx="641.6" cy="745.5" r="2.3"/><circle cx="640.7" cy="747.5" r="2.3"/><circle cx="551.2" cy="786.7" r="2.3"/><circle cx="721.3" cy="355.9" r="2.3"/><circle cx="510.5" cy="232.7" r="2.3"/><circle cx="698.5" cy="326.7" r="2.3"/><circle cx="736.6" cy="299.1" r="2.3"/><circle cx="645.9" cy="332.8" r="2.3"/><circle cx="647.9" cy="306.0" r="2.3"/><circle cx="650.7" cy="293.1" r="2.3"/><circle cx="648.2" cy="218.7" r="2.3"/><circle cx="662.0" cy="255.7" r="2.3"/><circle cx="481.4" cy="673.7" r="2.3"/><circle cx="458.0" cy="853.3" r="2.3"/><circle cx="474.7" cy="856.3" r="2.3"/><circle cx="507.0" cy="774.3" r="2.3"/><circle cx="527.3" cy="719.5" r="2.3"/><circle cx="511.4" cy="688.5" r="2.3"/><circle cx="537.1" cy="811.0" r="2.3"/><circle cx="524.4" cy="823.7" r="2.3"/><circle cx="397.0" cy="719.5" r="2.3"/><circle cx="459.1" cy="681.0" r="2.3"/><circle cx="378.2" cy="686.7" r="2.3"/><circle cx="396.8" cy="701.3" r="2.3"/><circle cx="221.7" cy="700.5" r="2.3"/><circle cx="220.2" cy="712.9" r="2.3"/><circle cx="248.0" cy="667.8" r="2.3"/><circle cx="243.1" cy="606.3" r="2.3"/><circle cx="310.6" cy="662.4" r="2.3"/><circle cx="223.1" cy="558.4" r="2.3"/><circle cx="133.6" cy="592.7" r="2.3"/><circle cx="344.7" cy="537.5" r="2.3"/><circle cx="394.5" cy="505.9" r="2.3"/><circle cx="436.6" cy="519.9" r="2.3"/><circle cx="454.0" cy="559.8" r="2.3"/><circle cx="489.9" cy="557.9" r="2.3"/><circle cx="500.0" cy="523.4" r="2.3"/><circle cx="514.6" cy="528.0" r="2.3"/><circle cx="447.8" cy="648.2" r="2.3"/><circle cx="597.6" cy="615.1" r="2.3"/><circle cx="815.3" cy="140.4" r="2.3"/><circle cx="736.1" cy="91.2" r="2.3"/><circle cx="564.0" cy="558.9" r="2.3"/><circle cx="509.7" cy="87.9" r="2.3"/><circle cx="320.7" cy="469.4" r="2.3"/></g></svg>