<svg xmlns="http://www.w3.org/2000/svg" viewBox="0 0 900 924.6" role="img" aria-label="Network map" preserveAspectRatio="xMidYMid meet"><path d="M205.8 797.0L213.6 803.5M217.1 808.4L213.6 803.5M211.2 816.3L217.4 821.3M521.9 222.6L524.1 236.3M521.9 222.6L518.1 231.1M566.2 292.4L562.9 283.6M566.2 292.4L557.9 288.0M446.3 256.6L444.1 253.0M446.3 256.6L439.3 254.5M546.9 230.2L550.3 224.5M374.2 853.5L374.2 853.5M374.2 853.5L374.2 853.5M647.7 822.1L648.1 822.1M609.1 753.9L609.1 753.9M609.1 753.9L609.1 753.9M461.1 111.7L464.2 112.2M600.8 649.3L606.1 645.5M600.8 649.3L606.1 645.5M600.8 649.3L606.1 645.5M218.9 592.9L218.9 592.9M741.2 681.9L737.5 684.1M724.7 747.5L724.7 747.5M534.6 35.3L531.5 35.6M534.6 35.3L531.5 35.6M89.8 246.8L89.8 246.8M698.3 576.5L694.2 573.5M585.8 808.8L589.8 806.8M585.8 808.8L589.8 806.8M607.7 656.0L611.5 652.0M607.7 656.0L611.5 652.0M607.7 656.0L611.5 652.0M717.9 726.5L718.4 726.5M539.0 142.4L540.2 146.7M539.0 142.4L540.2 146.7M415.4 858.8L415.4 858.8M415.4 858.8L415.4 858.8M194.2 650.6L201.7 649.1M194.2 650.6L201.7 649.1M487.4 739.3L490.5 733.0M558.7 114.3L553.8 114.3M558.7 114.3L553.8 114.3M558.8 110.5L554.6 110.6M558.8 110.5L554.6 110.6M506.3 70.3L506.3 70.3M242.2 835.1L242.2 835.1M855.5 362.7L835.5 357.9M855.5 362.7L835.5 357.9M855.5 362.7L835.5 357.9M855.5 362.7L835.5 357.9M716.9 735.0L717.3 735.0M860.1 275.6L860.4 268.4M860.1 275.6L860.4 268.4M481.6 737.9L482.0 737.9M864.7 322.4L853.5 322.2M864.7 322.4L853.5 322.2M864.7 322.4L853.5 322.2M612.0 638.1L616.1 634.6M488.9 129.3L486.9 127.8M592.7 392.3L586.1 392.3M680.1 181.7L675.6 187.5M835.0 394.6L826.1 394.4M835.0 394.6L826.1 394.4M835.0 394.6L826.1 394.4M444.2 595.2L449.4 592.8M641.1 663.6L639.4 661.8M641.1 663.6L639.4 661.8M639.4 661.8L639.4 661.8M559.4 696.3L563.2 699.3M540.4 648.1L539.9 648.3M540.4 648.1L539.9 648.3M852.5 339.3L841.2 335.6M852.5 339.3L841.2 335.6M852.5 339.3L841.2 335.6M852.5 339.3L841.2 335.6M459.7 522.9L459.4 526.5M459.7 522.9L459.4 526.5M728.1 714.1L728.5 714.1M582.1 138.9L577.5 137.7M140.7 267.8L140.7 267.8M287.6 442.0L287.6 442.0M833.6 366.4L828.1 365.8M716.6 660.4L717.0 660.4M223.2 238.9L223.2 238.9M758.0 730.4L758.4 730.4M849.6 316.0L855.7 313.6M849.6 316.0L855.7 313.6M552.8 119.2L547.6 119.1M552.8 119.2L547.6 119.1M749.2 791.2L749.6 791.2M850.2 344.7L843.7 344.6M850.2 344.7L843.7 344.6M850.2 344.7L843.7 344.6M850.2 344.7L843.7 344.6M687.8 502.7L679.1 501.6M687.8 502.7L679.1 501.6M407.1 900.6L398.5 888.8M447.6 218.6L447.6 218.6M447.6 218.6L447.6 218.6M444.1 271.0L441.4 267.9M446.3 256.6L441.4 267.9M436.0 287.1L441.4 267.9M506.1 111.8L512.2 103.8M506.1 111.8L503.1 116.6M490.1 733.0L490.5 733.0M527.7 28.3L521.9 33.8M663.3 797.1L663.8 797.1M320.7 512.1L319.4 511.7M320.7 512.1L319.4 511.7M548.2 145.8L556.3 162.6M548.2 145.8L537.8 128.6M328.9 426.4L367.4 431.2M328.9 426.4L323.8 407.5M749.8 588.2L761.2 591.5M749.8 588.2L727.8 576.1M749.8 588.2L771.8 599.6M749.8 588.2L744.6 633.8M749.8 588.2L772.1 587.4M749.8 588.2L749.2 579.5M749.8 588.2L755.7 581.5M749.8 588.2L745.2 610.0M507.0 268.5L499.1 270.7M507.0 268.5L507.0 275.1M748.6 522.6L744.1 548.5M748.6 522.6L749.6 536.2M458.3 223.6L454.6 222.9M551.1 242.2L544.6 241.6M551.1 242.2L558.4 242.2M439.4 222.3L447.6 218.6M439.4 222.3L442.7 231.7M493.4 119.9L487.1 123.7M493.4 119.9L495.0 123.2M561.7 213.3L553.4 204.8M561.7 213.3L561.0 207.2M361.1 176.5L362.7 169.2M361.1 176.5L362.7 169.2M496.9 126.6L495.0 123.2M496.9 126.6L503.1 116.6M496.9 126.6L487.1 123.7M697.2 222.2L696.9 216.4M697.2 222.2L702.7 223.8M530.1 216.9L521.9 222.6M530.1 216.9L521.9 222.6M530.1 216.9L521.9 222.6M391.3 221.6L390.7 226.2M777.7 342.5L763.5 340.0M777.7 342.5L784.2 338.8M527.5 87.3L564.2 89.3M527.5 87.3L522.6 81.2M527.5 87.3L533.6 90.0M778.8 769.7L781.1 773.1M778.8 769.7L781.1 773.1M687.6 591.9L692.4 596.6M687.6 591.9L653.6 584.7M687.6 591.9L690.8 579.3M472.3 306.0L478.8 309.5M472.3 306.0L468.0 310.6M472.3 306.0L470.6 298.7M472.3 306.0L478.8 309.5M472.3 306.0L468.0 310.6M472.3 306.0L468.2 301.1M472.3 306.0L468.0 310.6M604.0 744.1L612.6 750.6M604.0 744.1L607.5 751.4M604.0 744.1L607.5 751.4M604.0 744.1L607.5 751.4M699.0 825.9L697.0 815.7M699.0 825.9L696.6 830.6M699.0 825.9L690.5 820.9M699.0 825.9L700.9 826.9M467.3 207.5L440.5 215.0M467.3 207.5L489.5 219.3M467.3 207.5L447.6 218.6M752.2 663.6L747.5 671.0M173.7 768.3L183.0 751.5M173.7 768.3L183.0 751.5M785.0 401.0L784.9 423.9M785.0 401.0L825.3 403.1M487.1 123.7L466.6 112.6M487.1 123.7L471.8 120.1M487.1 123.7L495.0 123.2M487.1 123.7L484.6 126.2M702.3 517.0L706.2 539.6M514.8 54.8L522.4 58.2M514.8 54.8L522.4 58.2M355.6 316.9L358.3 331.5M355.6 316.9L360.3 317.4M355.6 316.9L358.3 331.5M372.9 266.2L371.7 259.7M372.9 266.2L385.1 262.8M560.0 294.6L566.2 292.4M560.0 294.6L566.2 292.4M566.2 292.4L562.6 255.2M566.2 292.4L484.7 286.4M566.2 292.4L577.9 268.7M566.2 292.4L507.7 282.5M566.2 292.4L566.7 296.1M566.2 292.4L583.6 299.7M566.2 292.4L573.0 287.5M566.2 292.4L535.2 292.9M566.2 292.4L570.8 270.3M566.2 292.4L583.6 299.7M483.3 315.4L487.7 315.0M374.2 853.5L372.7 867.0M374.2 853.5L379.7 829.3M561.0 102.9L557.4 99.2M561.0 102.9L564.4 107.0M481.1 38.2L459.1 80.8M481.1 38.2L469.8 40.1M481.1 38.2L492.4 42.5M333.9 235.7L362.8 217.6M333.9 235.7L366.8 296.0M333.9 235.7L393.0 249.5M333.9 235.7L318.0 221.3M530.3 221.4L537.9 214.6M530.3 221.4L521.9 222.6M654.1 789.0L661.6 788.6M654.1 789.0L661.6 788.6M452.1 507.2L435.5 498.4M452.1 507.2L458.8 537.3M644.9 819.6L642.4 815.6M644.9 819.6L642.4 815.6M648.1 822.1L660.2 819.0M609.6 129.7L603.1 130.7M787.9 637.3L780.5 637.7M522.2 250.1L504.8 253.1M522.2 250.1L533.6 244.8M367.7 839.8L379.7 829.3M586.1 405.3L586.1 392.3M586.1 405.3L586.1 433.7M564.2 89.3L557.4 99.2M564.2 89.3L560.4 82.6M564.2 89.3L578.8 108.3M564.2 89.3L544.4 97.3M564.2 89.3L564.5 76.4M564.2 89.3L560.4 82.6M564.2 89.3L568.3 78.3M548.1 212.2L554.7 211.9M548.1 212.2L536.0 220.2M548.1 212.2L537.9 214.6M548.1 212.2L555.4 215.5M548.1 212.2L546.9 230.2M609.1 753.9L612.6 750.6M609.1 753.9L612.6 750.6M629.1 760.1L619.0 774.1M629.1 760.1L612.6 750.6M352.1 368.9L351.6 358.9M351.6 358.9L313.2 369.8M351.6 358.9L358.3 331.5M571.5 243.1L570.3 240.6M571.5 243.1L572.6 245.7M493.9 699.7L490.5 733.0M493.9 699.7L535.1 704.0M493.9 699.7L498.2 712.1M493.9 699.7L498.2 712.1M670.3 169.3L664.4 165.7M670.3 169.3L664.4 165.7M791.6 751.4L795.1 763.8M791.6 751.4L817.1 759.2M791.6 751.4L795.1 763.8M791.6 751.4L817.1 759.2M545.6 220.1L546.6 216.0M545.6 220.1L546.9 230.2M545.6 220.1L541.5 221.4M464.2 112.2L466.6 112.6M466.6 112.6L463.0 102.7M209.5 283.3L232.3 294.7M209.5 283.3L223.2 238.9M209.5 283.3L212.8 288.3M209.5 283.3L212.8 288.3M209.5 283.3L223.1 286.9M176.2 329.4L179.7 332.8M176.2 329.4L179.7 332.8M718.0 222.0L714.5 224.9M697.0 815.7L710.4 806.7M388.5 244.1L393.0 249.5M388.5 244.1L393.0 249.5M531.6 155.2L528.4 154.7M624.6 630.7L606.1 645.5M624.6 630.7L611.5 652.0M624.6 630.7L623.3 640.6M624.6 630.7L616.1 634.6M624.6 630.7L633.3 642.9M624.6 630.7L624.7 653.4M624.6 630.7L632.2 620.8M624.6 630.7L625.2 617.9M624.6 630.7L609.0 648.7M187.3 250.2L187.3 250.2M187.3 250.2L187.3 250.2M606.1 645.5L609.0 648.7M218.9 592.9L204.4 599.0M218.9 592.9L246.3 601.8M218.9 592.9L218.9 592.9M436.4 866.7L415.4 858.8M436.4 866.7L423.4 864.9M436.4 866.7L431.1 879.2M436.4 866.7L423.4 864.9M530.9 789.2L514.5 797.1M530.9 789.2L536.9 775.1M394.8 708.5L402.9 706.9M394.8 708.5L401.6 723.2M394.8 708.5L411.1 705.2M238.3 664.0L238.7 664.0M619.0 297.3L640.4 330.6M619.0 297.3L617.6 271.5M572.6 721.2L657.0 723.9M572.6 721.2L568.6 694.9M219.7 673.7L238.7 664.0M219.7 673.7L222.0 663.9M362.8 217.6L376.7 204.1M265.1 803.4L282.8 812.5M504.4 224.9L513.3 227.7M761.2 591.5L768.1 595.3M459.1 219.6L470.6 219.2M459.1 219.6L447.6 218.6M459.1 219.6L470.6 219.2M831.2 266.8L860.4 268.4M831.2 266.8L833.5 260.4M831.2 266.8L819.8 276.0M831.2 266.8L830.2 276.0M831.2 266.8L833.5 260.4M454.6 222.9L447.6 218.6M513.8 499.4L526.2 493.1M513.8 499.4L488.3 483.8M513.8 499.4L504.8 495.3M513.8 499.4L493.6 513.0M513.8 499.4L524.8 499.3M240.2 583.7L246.3 601.8M519.7 199.4L514.9 197.8M368.4 256.6L375.5 255.1M538.3 89.9L533.6 90.0M215.9 727.1L217.5 696.8M215.9 727.1L217.6 770.1M786.4 250.9L819.8 276.0M786.4 250.9L779.9 253.9M786.4 250.9L781.7 246.6M786.4 250.9L779.9 253.9M544.2 128.5L537.8 128.6M544.2 128.5L537.8 128.6M544.2 128.5L537.8 128.6M499.1 270.7L484.7 286.4M499.1 270.7L507.7 282.5M512.1 91.8L544.4 97.3M512.1 91.8L525.1 96.3M492.8 801.8L492.8 801.8M492.8 801.8L492.8 801.8M711.5 275.1L711.2 296.2M711.5 275.1L724.1 281.3M711.5 275.1L698.7 275.0M711.5 275.1L731.0 222.4M711.5 275.1L698.7 275.0M167.3 308.3L118.3 296.6M167.3 308.3L188.2 321.6M774.4 774.6L780.7 773.1M774.4 774.6L772.8 794.6M774.4 774.6L781.1 773.1M774.4 774.6L781.0 780.0M526.2 493.1L524.8 499.3M692.4 596.6L711.6 605.7M737.5 684.1L741.1 685.6M243.0 586.4L239.7 571.0M243.0 586.4L246.3 601.8M239.7 571.0L236.3 558.9M553.4 204.8L561.0 207.2M481.5 128.5L480.1 131.9M481.5 128.5L484.6 126.2M780.7 773.1L781.1 773.1M640.7 557.4L626.8 535.9M640.7 557.4L625.2 553.2M640.7 557.4L706.2 539.6M640.7 557.4L628.0 530.7M640.7 557.4L636.7 567.8M640.7 557.4L629.4 512.8M640.7 557.4L625.2 553.2M640.7 557.4L638.4 582.4M640.7 557.4L669.9 562.4M657.0 709.3L642.4 688.8M657.0 709.3L657.0 723.9M657.0 709.3L653.9 714.7M657.0 709.3L670.6 721.9M657.0 709.3L624.2 711.0M657.0 709.3L657.0 723.9M657.0 709.3L653.9 714.7M657.0 709.3L624.2 711.0M367.4 431.2L364.1 410.4M367.4 431.2L372.6 448.1M367.4 431.2L372.6 448.1M615.0 551.3L625.2 553.2M615.0 551.3L625.2 553.2M375.5 255.1L393.0 249.5M375.5 255.1L371.7 259.7M231.1 625.4L210.9 613.4M448.8 540.4L458.8 537.3M448.8 540.4L458.8 537.3M376.7 204.1L365.2 190.5M575.7 666.0L642.4 688.8M575.7 666.0L565.4 656.4M430.6 233.3L426.8 225.3M430.6 233.3L442.7 231.7M206.1 574.2L204.4 599.0M724.7 747.5L723.9 780.0M724.7 747.5L732.2 722.2M724.7 747.5L710.8 722.6M724.7 747.5L766.3 783.6M724.7 747.5L737.3 776.7M724.7 747.5L724.7 747.5M724.7 747.5L717.7 735.0M531.5 35.6L521.9 33.8M531.5 35.6L521.9 33.8M204.6 389.6L213.0 373.1M575.7 364.1L578.0 357.3M429.6 671.3L446.7 678.1M429.6 671.3L411.1 705.2M83.4 245.6L89.8 246.8M83.4 245.6L89.8 246.8M83.4 245.6L89.8 246.8M89.8 246.8L79.5 229.0M89.8 246.8L90.9 218.0M89.8 246.8L118.2 247.2M89.8 246.8L89.8 246.8M89.8 246.8L89.8 246.8M694.2 573.5L690.8 579.3M597.9 451.1L597.8 462.1M466.5 588.3L458.8 537.3M466.5 588.3L437.2 531.3M466.5 588.3L430.0 582.7M466.5 588.3L460.0 606.2M466.5 588.3L447.3 616.5M466.5 588.3L456.0 594.6M466.5 588.3L458.8 537.3M466.5 588.3L439.0 587.8M784.0 593.0L772.1 587.4M521.9 214.2L524.6 212.9M521.9 214.2L519.1 215.1M303.5 476.9L319.4 511.7M303.5 476.9L287.6 442.0M289.6 441.2L287.6 442.0M523.9 24.6L515.9 25.7M495.2 641.6L482.0 636.7M495.2 641.6L482.0 636.7M495.2 641.6L482.0 636.7M495.2 641.6L482.0 636.7M495.2 641.6L482.0 636.7M495.2 641.6L482.0 636.7M204.4 599.0L246.3 601.8M204.4 599.0L217.6 619.1M848.7 333.1L841.2 335.6M848.7 333.1L854.3 330.7M848.7 333.1L846.3 329.7M615.0 142.8L603.1 130.7M776.4 435.2L784.9 423.9M776.4 435.2L769.7 443.8M309.5 265.2L297.7 262.7M542.2 226.8L541.5 221.4M589.8 806.8L594.5 790.4M589.8 806.8L594.5 790.4M611.5 652.0L609.0 648.7M272.7 333.0L293.9 325.8M237.7 469.7L249.2 482.9M237.7 469.7L278.7 478.7M237.7 469.7L223.9 431.7M237.7 469.7L237.7 511.6M718.4 726.5L710.8 722.6M428.6 395.9L430.6 363.5M428.6 395.9L442.1 397.4M428.6 395.9L425.0 424.5M567.6 162.6L574.6 148.2M567.6 162.6L579.4 195.3M567.6 162.6L556.3 162.6M567.6 162.6L562.7 144.6M567.6 162.6L573.3 170.5M567.6 162.6L556.3 162.6M567.6 162.6L556.3 162.6M554.7 211.9L554.1 208.7M554.7 211.9L561.0 207.2M554.7 211.9L554.1 208.7M759.3 423.7L784.9 423.9M759.3 423.7L769.7 443.8M579.7 233.5L580.2 226.3M626.8 535.9L624.6 530.1M361.2 312.2L364.9 313.5M361.2 312.2L360.3 317.4M710.4 806.7L710.4 806.7M710.4 806.7L710.4 806.7M696.1 830.6L696.6 830.6M524.6 260.1L521.1 267.7M716.7 298.9L711.2 296.2M783.7 767.0L795.1 763.8M783.7 767.0L781.1 773.1M711.2 296.2L739.4 296.6M711.2 296.2L692.7 295.8M540.2 146.7L544.7 145.6M687.0 389.3L659.9 384.2M687.0 389.3L700.3 407.8M687.0 389.3L659.9 384.2M642.4 688.8L639.4 661.8M642.4 688.8L624.2 711.0M642.4 688.8L639.4 661.8M594.6 551.8L590.2 549.2M594.6 551.8L591.5 557.8M639.7 356.1L651.1 356.0M633.0 816.1L628.9 812.0M633.0 816.1L628.9 812.0M452.4 859.0L423.4 864.9M678.7 804.4L672.1 808.4M678.7 804.4L672.1 808.4M289.3 192.2L287.2 211.0M289.3 192.2L298.7 188.0M702.1 816.0L710.4 806.7M702.1 816.0L706.7 829.8M134.2 293.3L140.7 267.8M134.2 293.3L118.3 296.6M217.5 696.8L217.6 770.1M217.5 696.8L183.0 751.5M217.5 696.8L237.4 728.8M217.5 696.8L237.4 728.8M592.8 136.0L574.6 148.2M592.8 136.0L603.1 130.7M470.6 219.2L493.7 225.6M470.6 219.2L470.5 222.5M589.8 365.2L586.1 357.3M589.8 365.2L586.1 357.3M443.0 324.4L446.5 324.5M443.0 324.4L440.1 324.5M517.1 186.2L524.9 199.6M517.1 186.2L539.8 191.6M517.1 186.2L503.1 176.7M517.1 186.2L526.5 160.7M517.1 186.2L514.9 197.8M517.1 186.2L503.1 176.7M435.3 263.3L446.3 256.6M435.3 263.3L431.4 275.4M435.3 263.3L431.8 258.8M529.6 235.2L535.1 237.3M529.6 235.2L521.9 222.6M328.9 800.0L329.9 720.9M328.9 800.0L282.8 812.5M328.9 800.0L282.8 812.5M328.9 800.0L282.8 812.5M620.8 653.4L623.3 640.6M620.8 653.4L624.7 653.4M436.9 200.6L390.7 226.2M436.9 200.6L404.4 219.9M436.9 200.6L439.5 210.2M436.9 200.6L472.0 192.8M436.9 200.6L467.0 200.3M436.9 200.6L445.9 206.3M436.9 200.6L437.2 210.0M436.9 200.6L430.9 211.5M622.5 206.5L622.8 218.7M622.5 206.5L622.8 218.7M217.2 644.6L201.7 649.1M217.2 644.6L217.2 655.5M217.2 644.6L230.9 639.2M425.3 343.4L429.7 338.4M425.3 343.4L429.7 338.4M534.9 211.2L537.9 214.6M208.4 380.1L228.4 382.0M208.4 380.1L205.9 347.7M624.8 659.8L639.4 661.8M624.8 659.8L624.7 653.4M430.6 363.5L441.1 340.7M430.6 363.5L441.1 340.7M430.6 363.5L441.1 340.7M835.6 364.2L826.9 358.5M835.6 364.2L825.3 403.1M657.5 463.7L704.9 420.2M657.5 463.7L646.3 471.8M657.5 463.7L646.3 471.8M669.0 291.7L674.0 275.1M426.2 189.8L420.4 191.0M562.6 255.2L577.9 268.7M562.6 255.2L504.8 253.1M562.6 255.2L533.6 244.8M562.6 255.2L563.1 249.3M562.6 255.2L570.8 270.3M590.2 549.2L591.5 557.8M439.0 587.8L430.0 582.7M444.1 271.0L448.4 269.0M444.1 271.0L444.9 274.0M727.8 576.1L706.2 539.6M478.8 309.5L487.7 315.0M525.7 314.1L501.9 317.4M525.7 314.1L522.3 338.0M525.7 314.1L521.6 310.0M525.7 314.1L571.3 341.1M525.7 314.1L517.8 312.2M525.7 314.1L501.9 317.4M525.7 314.1L517.8 312.2M525.7 314.1L501.9 317.4M525.7 314.1L525.1 308.8M525.7 314.1L517.9 318.6M525.7 314.1L517.9 318.6M228.4 382.0L230.9 409.5M228.4 382.0L248.0 391.8M228.4 382.0L254.8 380.9M228.4 382.0L213.0 373.1M228.4 382.0L227.2 370.3M228.4 382.0L241.5 331.1M484.7 286.4L504.8 253.1M484.7 286.4L507.7 282.5M484.7 286.4L481.1 269.1M484.7 286.4L535.2 292.9M484.7 286.4L436.0 287.1M484.7 286.4L507.7 282.5M484.7 286.4L481.1 269.1M484.7 286.4L436.0 287.1M484.7 286.4L436.0 287.1M484.7 286.4L464.9 281.1M276.2 394.4L313.2 369.8M276.2 394.4L267.7 372.2M276.2 394.4L248.0 391.8M276.2 394.4L288.8 419.9M276.2 394.4L313.2 369.8M662.8 144.1L659.7 150.0M662.8 144.1L659.7 150.0M468.0 310.6L454.8 301.3M468.0 310.6L473.1 315.3M468.0 310.6L454.8 301.3M228.1 581.6L246.3 601.8M666.8 527.3L654.4 506.3M666.8 527.3L687.2 534.9M401.3 190.7L419.1 182.6M401.3 190.7L393.3 197.0M401.3 190.7L419.1 182.6M568.6 102.5L564.4 107.0M568.6 102.5L564.4 107.0M325.9 657.2L335.9 674.0M325.9 657.2L307.0 642.8M366.8 296.0L359.8 300.2M366.8 296.0L364.9 313.5M607.0 441.8L597.8 462.1M607.0 441.8L659.9 384.2M551.8 176.5L556.3 162.6M551.8 176.5L539.8 191.6M489.9 519.7L493.6 513.0M75.4 290.7L118.3 296.6M75.4 290.7L51.9 262.2M702.8 827.9L706.7 829.8M702.8 827.9L700.9 826.9M689.1 625.7L696.1 646.0M689.1 625.7L675.5 640.1M689.1 625.7L689.1 615.0M771.8 599.6L768.1 595.3M771.8 599.6L772.1 587.4M427.1 273.0L422.5 273.2M427.1 273.0L431.4 275.4M461.9 298.7L470.6 298.7M461.9 298.7L468.2 301.1M343.1 193.8L287.2 211.0M343.1 193.8L365.2 190.5M343.1 193.8L310.6 195.4M343.1 193.8L365.2 190.5M205.9 347.7L179.6 346.2M205.9 347.7L179.7 332.8M205.9 347.7L188.2 321.6M205.9 347.7L213.0 373.1M205.9 347.7L216.4 356.7M205.9 347.7L183.9 339.0M205.9 347.7L179.7 332.8M205.9 347.7L241.5 331.1M205.9 347.7L203.0 350.9M205.9 347.7L203.0 350.9M300.0 347.2L313.2 369.8M300.0 347.2L291.2 350.9M300.0 347.2L293.9 325.8M300.0 347.2L313.2 369.8M300.0 347.2L313.2 369.8M695.9 663.1L717.0 660.4M695.9 663.1L689.7 665.2M504.8 253.1L501.2 246.5M440.5 215.0L426.8 225.3M440.5 215.0L447.6 218.6M440.5 215.0L439.5 210.2M440.5 215.0L426.8 225.3M440.5 215.0L447.6 218.6M440.5 215.0L445.9 206.3M440.5 215.0L426.8 225.3M440.5 215.0L437.2 210.0M440.5 215.0L430.9 211.5M744.1 548.5L777.3 550.4M744.1 548.5L749.6 536.2M744.1 548.5L729.5 551.4M744.1 548.5L706.2 539.6M562.8 308.7L550.4 312.2M562.8 308.7L583.6 299.7M550.4 312.2L516.7 322.1M665.5 412.9L704.9 420.2M665.5 412.9L659.9 384.2M746.5 806.0L734.3 817.7M746.5 806.0L750.1 811.3M746.5 806.0L750.1 791.2M746.5 806.0L749.9 805.9M746.5 806.0L750.1 811.3M746.5 806.0L750.1 791.2M494.1 669.7L486.6 669.5M490.5 733.0L482.4 737.9M588.2 236.5L599.2 245.8M588.2 236.5L580.2 226.3M630.8 620.3L632.2 620.8M696.1 646.0L695.7 610.4M696.1 646.0L720.9 675.3M696.1 646.0L689.2 608.6M696.1 646.0L675.5 640.1M696.1 646.0L687.6 662.4M696.1 646.0L747.5 671.0M696.1 646.0L699.4 654.1M696.1 646.0L696.1 646.0M696.1 646.0L681.2 659.0M696.1 646.0L696.0 654.4M696.1 646.0L695.7 610.4M696.1 646.0L696.1 646.0M696.1 646.0L696.1 646.0M715.3 470.1L724.0 482.3M715.3 470.1L706.2 539.6M715.3 470.1L755.7 452.1M704.9 420.2L703.7 456.9M704.9 420.2L711.1 424.5M704.9 420.2L700.3 407.8M518.8 64.0L506.3 70.3M518.8 64.0L524.5 67.8M518.8 64.0L522.4 58.2M518.8 64.0L522.4 58.2M640.4 330.6L686.2 325.3M640.4 330.6L654.5 274.8M640.4 330.6L647.0 344.8M640.4 330.6L672.1 358.3M507.7 282.5L521.1 267.7M507.7 282.5L507.0 275.1M507.7 282.5L512.7 258.6M536.0 220.2L536.6 226.6M536.0 220.2L541.5 221.4M556.9 64.1L567.7 66.9M556.9 64.1L556.6 56.7M556.9 64.1L562.3 58.4M556.9 64.1L533.7 63.0M556.9 64.1L522.4 58.2M556.9 64.1L567.7 66.9M556.9 64.1L556.6 56.7M556.9 64.1L562.3 58.4M732.0 613.4L731.8 619.0M419.6 646.9L441.3 643.3M631.2 657.8L639.4 661.8M631.2 657.8L639.4 661.8M727.3 547.1L729.5 551.4M557.8 758.9L551.8 764.5M557.8 758.9L533.8 760.9M726.8 812.1L710.4 806.7M726.8 812.1L734.3 817.7M619.0 774.1L623.7 776.3M280.6 596.2L307.4 621.2M280.6 596.2L246.3 601.8M280.6 596.2L299.2 548.2M280.6 596.2L310.8 613.8M633.0 222.9L622.8 218.7M633.0 222.9L629.9 226.2M718.3 685.7L720.9 675.3M718.3 685.7L741.1 685.6M621.4 457.9L646.3 471.8M621.4 457.9L617.9 465.5M625.2 553.2L603.3 558.0M429.7 338.4L434.7 339.8M429.7 338.4L433.2 334.7M648.3 245.0L652.6 241.0M648.3 245.0L638.8 236.0M648.3 245.0L674.0 275.1M648.3 245.0L652.6 241.0M648.3 245.0L652.6 241.0M639.8 820.9L642.4 815.6M639.8 820.9L642.4 815.6M457.2 228.2L450.7 231.7M557.4 99.2L544.4 97.3M501.9 317.4L516.7 322.1M501.9 317.4L487.2 318.9M501.9 317.4L487.7 315.0M553.8 114.3L549.3 112.8M801.1 760.0L795.1 763.8M801.1 760.0L795.1 763.8M554.6 110.6L549.3 112.8M441.1 340.7L432.8 344.6M441.1 340.7L434.7 339.8M441.1 340.7L445.6 327.6M441.1 340.7L432.8 344.6M441.1 340.7L440.1 324.5M441.1 340.7L433.2 334.7M622.8 223.5L604.6 223.6M622.8 223.5L622.8 218.7M366.6 650.8L331.7 617.5M366.6 650.8L387.1 662.5M415.3 187.9L419.1 182.6M655.6 371.8L659.9 384.2M655.6 371.8L651.1 356.0M628.9 812.0L637.7 808.9M628.9 812.0L630.3 820.7M628.9 812.0L652.3 801.1M628.9 812.0L635.8 812.1M628.9 812.0L637.7 808.9M628.9 812.0L635.8 812.1M564.4 107.0L545.8 105.1M564.4 107.0L578.8 108.3M564.4 107.0L564.2 111.3M564.4 107.0L564.2 111.3M628.4 573.5L632.1 571.9M510.2 24.9L511.8 30.0M819.8 268.6L819.8 276.0M62.3 232.7L66.7 236.7M313.2 369.8L343.8 405.2M187.3 250.2L223.2 238.9M187.3 250.2L160.6 235.7M232.3 294.7L232.8 311.0M232.3 294.7L223.1 286.9M335.9 674.0L387.1 662.5M401.3 582.7L393.4 603.6M401.3 582.7L430.0 582.7M226.8 370.3L227.2 370.3M535.4 93.6L549.7 92.6M535.4 93.6L544.2 91.1M535.4 93.6L544.4 97.3M535.4 93.6L533.6 90.0M287.2 211.0L290.9 224.6M287.2 211.0L310.6 195.4M287.2 211.0L310.6 195.4M529.9 29.7L527.6 31.7M663.8 797.1L672.1 808.4M663.8 797.1L661.6 788.6M518.9 24.0L515.9 25.7M710.4 806.7L723.9 780.0M710.4 806.7L710.3 821.4M710.4 806.7L708.2 782.6M710.4 806.7L706.7 829.8M710.4 806.7L672.1 808.4M710.4 806.7L708.2 782.6M752.7 216.9L752.7 216.9M635.0 656.5L633.9 652.2M583.7 601.9L593.6 598.6M583.7 601.9L592.8 603.5M583.7 601.9L566.2 609.7M583.7 601.9L553.5 585.2M583.7 601.9L593.6 598.6M583.7 601.9L553.5 585.2M459.1 80.8L469.8 40.1M459.1 80.8L463.0 102.7M610.3 700.0L624.2 711.0M610.3 700.0L624.2 711.0M428.7 475.3L465.8 432.0M428.7 475.3L426.0 514.6M428.7 475.3L441.4 446.4M428.7 475.3L462.1 476.6M428.7 475.3L364.1 410.4M428.7 475.3L435.5 498.4M428.7 475.3L425.0 424.5M428.7 475.3L458.8 537.3M399.0 277.3L393.0 249.5M399.0 277.3L405.5 282.1M399.0 277.3L417.7 276.9M399.0 277.3L398.5 261.9M399.0 277.3L393.9 278.5M399.0 277.3L403.5 291.5M399.0 277.3L405.5 282.1M308.8 187.0L305.2 190.7M466.5 611.5L460.0 606.2M494.8 542.0L533.6 574.4M494.8 542.0L493.6 513.0M693.8 329.6L693.8 325.3M531.4 271.9L521.1 267.7M734.3 817.7L750.1 791.2M430.2 331.9L433.2 334.7M624.9 115.2L600.8 127.7M624.9 115.2L624.0 119.4M624.9 115.2L607.0 98.6M549.9 102.3L545.8 105.1M549.9 102.3L545.8 105.1M763.5 340.0L752.6 337.9M784.9 423.9L797.5 414.1M695.7 610.4L710.0 613.6M489.5 219.3L490.2 213.2M489.5 219.3L493.7 225.6M489.5 219.3L497.1 210.4M489.5 219.3L493.7 225.6M489.5 219.3L508.7 219.1M489.5 219.3L508.5 215.9M489.5 219.3L501.7 211.8M600.8 127.7L591.6 108.4M504.3 214.2L508.5 215.9M504.3 214.2L501.7 211.8M249.2 482.9L278.7 478.7M249.2 482.9L260.0 507.3M393.4 603.6L400.7 615.9M819.9 354.9L826.9 358.5M819.9 354.9L826.9 358.5M826.9 358.5L835.5 357.9M826.9 358.5L828.1 365.8M826.9 358.5L828.3 348.2M826.9 358.5L835.5 357.9M826.9 358.5L835.5 357.9M826.9 358.5L835.5 357.9M637.7 808.9L660.2 819.0M637.7 808.9L656.9 821.5M637.7 808.9L642.4 815.6M637.7 808.9L647.9 809.3M637.7 808.9L679.3 778.8M637.7 808.9L656.9 821.5M637.7 808.9L642.4 815.6M555.6 564.8L551.6 575.1M546.9 596.6L552.7 598.9M514.1 59.6L522.4 58.2M514.1 59.6L522.4 58.2M536.6 226.6L534.8 231.5M536.6 226.6L546.9 230.2M319.4 511.7L246.3 601.8M319.4 511.7L299.2 548.2M319.4 511.7L278.5 511.7M319.4 511.7L329.3 550.0M290.9 224.6L249.8 245.8M290.9 224.6L318.0 221.3M290.9 224.6L297.7 262.7M654.4 506.3L679.1 501.6M210.9 613.4L246.3 601.8M210.9 613.4L230.9 639.2M210.9 613.4L246.3 601.8M514.5 797.1L492.8 801.8M450.7 231.7L442.7 231.7M450.7 231.7L442.7 231.7M501.1 230.6L506.6 230.6M542.7 508.8L553.4 515.2M542.7 508.8L524.8 499.3M617.6 271.5L599.2 245.8M512.7 764.8L533.8 760.9M512.7 764.8L533.8 760.9M524.7 28.1L521.9 33.8M524.7 28.1L521.9 33.8M772.8 794.6L766.3 783.6M772.8 794.6L766.3 783.6M731.8 619.0L730.0 615.2M731.8 619.0L710.0 613.6M731.8 619.0L717.1 613.0M434.3 208.7L437.2 210.0M434.3 208.7L430.9 211.5M686.2 325.3L693.8 325.3M717.3 735.0L717.7 735.0M595.1 594.6L593.6 598.6M595.1 594.6L593.6 598.6M595.1 594.6L593.6 598.6M591.6 108.4L578.8 108.3M591.6 108.4L607.0 98.6M591.6 108.4L592.8 102.3M591.6 108.4L578.8 108.3M591.6 108.4L607.0 98.6M591.6 108.4L578.8 108.3M513.6 24.5L511.8 30.0M513.6 24.5L511.8 30.0M419.1 182.6L365.2 190.5M419.1 182.6L420.4 191.0M419.1 182.6L445.0 166.8M419.1 182.6L365.2 190.5M419.1 182.6L420.4 191.0M419.1 182.6L445.0 166.8M419.1 182.6L445.0 166.8M711.6 605.7L705.6 605.7M711.6 605.7L717.1 613.0M711.6 605.7L705.6 605.7M539.0 573.5L533.6 574.4M539.0 573.5L533.6 574.4M517.4 29.5L521.9 33.8M517.4 29.5L511.8 30.0M449.4 173.6L445.0 166.8M180.3 356.4L179.6 346.2M521.9 33.8L495.5 44.0M521.9 33.8L530.5 32.8M521.9 33.8L531.5 38.4M521.9 33.8L511.8 30.0M521.9 33.8L531.6 41.0M521.9 33.8L527.6 31.7M521.9 33.8L511.8 30.0M521.9 33.8L531.6 41.0M370.0 170.9L362.7 169.2M567.5 232.3L569.1 235.4M567.5 232.3L565.0 229.7M267.3 372.2L267.7 372.2M548.6 247.4L544.6 241.6M548.6 247.4L563.1 249.3M860.4 268.4L876.0 269.7M625.2 617.9L638.4 582.4M625.2 617.9L629.5 591.9M625.2 617.9L618.2 613.0M625.2 617.9L625.9 609.5M625.2 617.9L632.2 620.8M535.1 704.0L570.4 733.2M511.7 412.9L529.5 433.8M511.7 412.9L511.7 383.1M750.1 811.3L750.6 821.2M463.2 256.7L457.1 256.9M217.2 619.1L217.6 619.1M482.0 737.9L482.4 737.9M449.0 602.9L460.0 606.2M449.0 602.9L447.3 616.5M445.6 812.8L473.1 821.2M445.6 812.8L435.5 809.1M445.6 812.8L492.8 801.8M445.6 812.8L435.5 809.1M545.8 105.1L549.3 112.8M545.8 105.1L544.4 97.3M545.8 105.1L544.4 97.3M706.2 539.6L714.7 545.2M706.2 539.6L687.2 534.9M706.2 539.6L699.5 550.8M706.2 539.6L679.1 501.6M706.2 539.6L729.5 551.4M706.2 539.6L714.7 545.2M706.2 539.6L714.7 545.2M706.2 539.6L714.7 545.2M706.2 539.6L714.7 545.2M706.2 539.6L714.7 545.2M592.3 236.1L599.2 245.8M592.3 236.1L580.2 226.3M853.5 322.2L854.3 330.7M853.5 322.2L855.7 313.6M511.7 369.9L511.7 383.1M511.7 369.9L502.2 362.8M372.7 721.2L355.6 698.9M372.7 721.2L355.6 698.9M593.6 598.6L638.4 582.4M593.6 598.6L592.4 583.6M593.6 598.6L638.4 582.4M521.1 267.7L512.7 258.6M441.3 643.3L482.0 636.7M441.3 643.3L498.2 712.1M441.3 643.3L411.5 654.4M441.3 643.3L447.3 616.5M746.2 345.3L740.0 344.3M485.8 678.1L491.7 677.9M542.1 204.2L510.6 209.1M542.1 204.2L541.1 207.0M446.0 725.8L411.1 705.2M446.0 725.8L475.0 723.9M524.9 199.6L510.6 209.1M826.1 297.4L843.6 301.2M826.1 297.4L841.2 335.6M826.1 297.4L819.8 276.0M826.1 297.4L830.2 276.0M826.1 297.4L828.4 312.6M826.1 297.4L831.9 280.4M826.1 297.4L855.7 313.6M402.9 706.9L411.1 705.2M524.0 625.1L538.5 629.9M524.0 625.1L506.3 621.2M278.7 478.7L287.6 442.0M278.7 478.7L285.3 469.7M278.7 478.7L237.7 511.6M278.7 478.7L285.3 469.7M505.3 25.7L511.8 30.0M505.3 25.7L511.8 30.0M653.3 588.0L638.4 582.4M653.3 588.0L653.6 584.7M307.4 621.2L307.2 632.0M465.1 295.4L470.6 298.7M465.1 295.4L468.2 301.1M767.8 797.5L766.3 783.6M767.8 797.5L766.3 783.6M720.9 675.3L742.6 676.1M720.9 675.3L747.5 671.0M646.3 471.8L597.8 481.4M646.3 471.8L633.0 502.0M646.3 471.8L617.9 465.5M506.3 70.3L501.4 66.7M506.3 70.3L500.5 55.8M506.3 70.3L506.3 70.3M506.3 70.3L501.4 66.7M807.3 348.1L793.3 333.7M807.3 348.1L828.3 348.2M761.2 787.6L761.6 787.6M179.6 346.2L160.2 366.3M179.6 346.2L183.9 339.0M597.8 481.4L597.8 462.1M307.0 642.8L307.2 632.0M485.3 203.0L510.6 209.1M485.3 203.0L467.0 200.3M486.9 127.8L484.6 126.2M452.2 164.5L445.0 166.8M452.2 164.5L445.0 166.8M385.6 135.4L389.7 140.1M385.6 135.4L389.7 140.1M597.8 462.1L617.9 465.5M689.0 221.0L688.8 219.4M567.7 66.9L569.6 61.0M567.7 66.9L568.3 78.3M567.7 66.9L574.3 67.2M567.7 66.9L564.5 76.4M567.7 66.9L569.6 61.0M567.7 66.9L568.3 78.3M567.7 66.9L574.3 67.2M538.7 233.5L534.8 231.5M446.3 256.6L457.1 256.9M446.3 256.6L458.8 247.2M446.3 256.6L431.4 275.4M446.3 256.6L454.8 263.8M446.3 256.6L457.1 256.9M820.4 411.1L825.3 403.1M359.8 158.4L369.6 145.7M359.8 158.4L369.6 145.7M568.3 78.3L572.2 79.3M568.3 78.3L564.5 76.4M568.3 78.3L572.2 79.3M441.5 206.0L439.5 210.2M441.5 206.0L445.9 206.3M755.1 626.5L744.6 633.8M805.4 392.4L797.5 414.1M495.5 44.0L485.7 53.7M495.5 44.0L493.3 40.0M495.5 44.0L511.8 30.0M495.5 44.0L500.5 55.8M495.5 44.0L485.7 53.7M495.5 44.0L492.4 42.5M398.5 888.8L401.0 850.0M205.8 797.0L217.6 770.1M205.8 797.0L211.2 816.3M793.1 358.8L775.4 382.0M793.1 358.8L828.1 365.8M533.6 574.4L537.9 553.0M533.6 574.4L538.5 629.9M586.1 392.3L580.0 392.3M586.1 392.3L586.1 372.5M552.7 598.9L566.2 609.7M552.7 598.9L553.5 585.2M329.9 720.9L355.6 698.9M675.6 187.5L669.7 194.8M740.6 348.1L740.0 344.3M594.5 790.4L600.5 787.8M594.5 790.4L580.8 790.1M594.5 790.4L580.8 790.1M623.3 520.0L628.0 530.7M623.3 520.0L629.4 512.8M430.7 343.0L434.7 339.8M753.5 536.7L749.6 536.2M826.1 394.4L828.1 365.8M826.1 394.4L825.3 403.1M449.4 592.8L456.0 594.6M579.4 195.3L575.5 173.5M579.4 195.3L584.0 201.8M517.6 79.1L522.6 81.2M639.4 661.8L633.9 652.2M639.4 661.8L639.4 661.8M789.1 350.4L784.2 338.8M563.2 699.3L568.6 694.9M621.4 704.2L624.2 711.0M621.4 704.2L624.2 711.0M425.1 234.2L426.8 225.3M425.1 234.2L426.8 225.3M509.1 624.8L506.3 621.2M710.0 613.6L710.0 613.6M62.5 219.1L24.0 216.2M62.5 219.1L79.5 229.0M62.5 219.1L79.5 229.0M676.4 219.3L657.2 212.2M676.4 219.3L688.9 216.8M676.4 219.3L716.9 229.4M676.4 219.3L688.8 219.4M676.4 219.3L669.7 194.8M739.4 296.6L748.1 245.9M739.4 296.6L739.3 312.6M739.4 296.6L753.1 246.6M591.2 283.7L583.6 299.7M591.2 283.7L583.3 271.0M282.8 812.5L242.2 835.1M500.0 679.5L491.7 677.9M556.3 162.6L532.0 143.5M556.3 162.6L544.7 145.6M249.8 245.8L223.2 238.9M300.3 292.5L297.5 296.0M300.3 292.5L297.7 262.7M300.3 292.5L293.9 325.8M660.2 819.0L659.8 814.3M660.2 819.0L656.9 821.5M660.2 819.0L658.8 827.8M660.2 819.0L660.2 819.0M660.2 819.0L690.5 820.9M660.2 819.0L658.8 827.8M660.2 819.0L660.2 819.0M660.2 819.0L658.8 827.8M539.9 648.3L547.6 643.0M539.9 648.3L538.9 668.7M355.8 735.3L355.6 698.9M355.8 735.3L365.1 760.1M235.3 781.9L217.6 770.1M235.3 781.9L217.6 770.1M355.6 698.9L387.1 662.5M355.6 698.9L387.1 662.5M445.6 226.4L447.6 218.6M445.6 226.4L447.6 218.6M445.6 226.4L447.6 218.6M454.8 290.8L454.8 301.3M454.8 290.8L444.7 290.8M469.2 196.9L472.0 192.8M469.2 196.9L467.0 200.3M537.9 553.0L530.4 521.2M795.1 763.8L797.4 758.7M795.1 763.8L817.1 759.2M795.1 763.8L778.5 751.8M473.1 821.2L492.8 801.8M793.3 333.7L784.2 338.8M454.8 301.3L450.9 297.6M464.9 252.6L458.8 247.2M744.6 633.8L755.3 631.0M744.6 633.8L753.5 635.3M744.6 633.8L745.2 610.0M24.0 216.2L79.5 229.0M664.4 165.7L659.7 150.0M664.4 165.7L650.0 165.5M664.4 165.7L667.8 187.6M664.4 165.7L659.7 150.0M664.4 165.7L650.0 165.5M775.4 382.0L825.3 403.1M775.4 382.0L773.2 376.8M775.4 382.0L825.3 403.1M686.8 166.6L657.2 212.2M578.4 212.7L572.2 213.1M578.4 212.7L572.2 213.1M572.2 213.1L561.0 207.2M572.2 213.1L580.2 226.3M655.2 822.7L656.9 821.5M633.0 502.0L629.4 512.8M733.7 312.5L739.3 312.6M694.8 409.4L700.3 407.8M544.6 241.6L533.6 244.8M544.6 241.6L546.9 230.2M544.6 241.6L563.1 249.3M473.1 315.3L487.2 318.9M772.1 587.4L774.8 558.5M524.8 521.0L530.4 521.2M524.8 521.0L526.9 533.4M524.8 521.0L530.4 521.2M640.6 761.5L649.1 762.1M769.7 443.8L752.5 435.2M769.7 443.8L712.0 397.3M769.7 443.8L755.7 452.1M769.7 443.8L779.2 443.5M769.7 443.8L752.5 435.2M469.8 40.1L461.8 39.5M469.8 40.1L461.8 39.5M469.8 40.1L461.8 39.5M393.3 197.0L377.7 211.9M719.1 718.4L710.8 722.6M841.2 335.6L828.4 312.6M841.2 335.6L828.3 348.2M841.2 335.6L828.3 348.2M459.4 526.5L458.8 537.3M514.8 637.7L538.5 629.9M514.8 637.7L482.0 636.7M819.8 276.0L812.2 290.5M819.8 276.0L830.2 276.0M819.8 276.0L819.8 276.0M819.8 276.0L812.2 290.5M819.8 276.0L830.2 276.0M819.8 276.0L819.8 276.0M465.8 432.0L454.8 439.2M465.8 432.0L454.6 381.2M465.8 432.0L452.3 421.4M687.4 574.7L690.8 579.3M654.5 274.8L674.0 275.1M217.6 770.1L242.2 835.1M79.5 229.0L82.4 228.8M79.5 229.0L51.9 262.2M79.5 229.0L66.7 236.7M217.2 655.5L222.0 663.9M460.2 277.2L436.0 287.1M460.2 277.2L464.9 281.1M578.8 108.3L603.1 130.7M578.8 108.3L582.9 131.2M624.0 119.4L603.1 130.7M267.7 372.2L254.8 380.9M426.0 514.6L437.2 531.3M710.3 821.4L706.7 829.8M523.5 99.5L525.1 96.3M728.5 714.1L728.9 714.1M831.8 758.2L830.0 756.3M458.8 247.2L468.2 251.1M458.8 247.2L442.7 231.7M706.2 609.7L717.1 613.0M408.7 842.7L401.0 850.0M230.9 409.5L248.0 391.8M230.9 409.5L223.9 431.7M230.9 409.5L203.8 423.7M230.9 409.5L203.8 423.7M636.7 567.8L638.4 582.4M393.0 249.5L398.3 257.3M393.0 249.5L390.7 226.2M393.0 249.5L398.5 261.9M393.0 249.5L404.9 255.2M393.0 249.5L390.7 226.2M393.0 249.5L385.1 262.8M393.0 249.5L390.7 226.2M473.2 731.1L475.0 723.9M638.4 582.4L689.2 608.6M638.4 582.4L602.9 582.3M638.4 582.4L629.5 591.9M638.4 582.4L669.9 562.4M638.4 582.4L632.1 571.9M638.4 582.4L653.6 584.7M638.4 582.4L602.9 582.3M638.4 582.4L632.1 571.9M532.8 203.7L539.8 191.6M532.8 203.7L510.6 209.1M689.2 608.6L685.9 614.5M689.2 608.6L689.1 615.0M458.8 537.3L482.0 636.7M458.8 537.3L452.4 532.9M458.8 537.3L482.0 636.7M343.8 405.2L364.1 410.4M582.1 304.9L583.6 299.7M582.1 304.9L583.6 299.7M583.6 299.7L583.6 299.7M583.6 299.7L578.4 284.7M583.6 299.7L535.2 292.9M583.6 299.7L591.9 255.6M583.6 299.7L583.6 299.7M583.6 299.7L578.4 284.7M583.6 299.7L583.3 271.0M549.3 112.8L544.0 119.0M232.8 311.0L241.5 331.1M612.6 750.6L613.3 747.6M602.9 582.3L592.4 583.6M602.9 582.3L602.3 568.1M781.1 773.1L781.0 780.0M183.0 751.5L186.4 770.4M684.9 727.1L660.1 737.3M684.9 727.1L670.6 721.9M431.4 275.4L436.0 287.1M431.4 275.4L436.0 287.1M657.2 212.2L699.2 174.8M441.4 446.4L454.8 439.2M246.3 601.8L246.3 601.8M246.3 601.8L246.3 601.8M246.3 601.8L246.3 601.8M600.5 787.8L623.7 776.3M474.3 742.9L492.8 801.8M474.3 742.9L482.4 737.9M512.2 103.8L544.4 97.3M547.6 643.0L565.4 656.4M547.6 643.0L538.5 629.9M547.6 643.0L538.5 629.9M411.0 287.8L403.5 291.5M411.0 287.8L420.6 287.3M462.1 476.6L488.3 483.8M688.9 216.8L702.8 219.9M536.9 775.1L549.7 775.4M536.9 775.1L533.8 760.9M536.9 775.1L544.7 794.6M536.9 775.1L533.8 760.9M536.9 775.1L533.8 760.9M577.5 137.7L575.3 136.1M140.7 267.8L141.3 245.2M140.7 267.8L140.7 267.8M140.7 267.8L140.7 267.8M398.3 257.3L404.9 255.2M710.7 325.3L693.8 325.3M710.7 325.3L722.3 325.3M560.8 235.3L558.4 242.2M560.8 235.3L558.4 242.2M560.8 235.3L558.4 242.2M426.8 225.3L404.9 255.2M426.8 225.3L442.7 231.7M426.8 225.3L435.3 224.9M426.8 225.3L442.7 231.7M426.8 225.3L435.3 224.9M412.9 648.3L411.5 654.4M522.3 338.0L519.0 351.1M750.1 791.2L749.6 791.2M750.1 791.2L756.9 791.7M513.3 227.7L513.3 227.7M513.3 227.7L513.3 227.7M577.8 778.6L580.8 790.1M287.6 442.0L288.8 419.9M287.6 442.0L287.6 442.0M604.6 223.6L597.7 218.7M542.6 234.1L546.9 230.2M542.6 234.1L546.9 230.2M493.7 225.6L513.3 227.7M475.5 686.2L482.0 636.7M475.5 686.2L492.7 692.3M749.9 805.9L737.3 776.7M732.2 722.2L743.5 702.7M732.2 722.2L710.8 722.6M732.2 722.2L728.9 714.1M773.9 632.6L780.5 637.7M481.1 269.1L481.1 269.1M597.7 218.7L597.0 223.4M597.7 218.7L622.8 218.7M597.7 218.7L584.0 201.8M597.7 218.7L597.0 223.4M597.7 218.7L622.8 218.7M514.0 233.1L513.3 227.7M599.2 245.8L591.9 255.6M217.3 363.8L216.4 356.7M297.5 296.0L296.2 289.7M297.5 296.0L296.2 289.7M708.9 219.6L702.8 219.9M780.5 637.7L764.2 637.1M449.1 293.4L444.7 290.8M449.1 293.4L450.9 297.6M538.9 668.7L568.6 694.9M717.0 660.4L730.5 652.5M510.6 209.1L522.1 204.9M510.6 209.1L561.0 207.2M510.6 209.1L497.1 210.4M510.6 209.1L513.4 216.8M510.6 209.1L514.9 197.8M510.6 209.1L524.6 212.9M510.6 209.1L541.1 207.0M510.6 209.1L472.0 192.8M510.6 209.1L513.4 216.8M510.6 209.1L519.1 215.1M510.6 209.1L508.7 219.1M510.6 209.1L521.9 222.6M510.6 209.1L508.5 215.9M510.6 209.1L521.9 222.6M510.6 209.1L501.7 211.8M141.3 245.2L115.7 206.4M141.3 245.2L160.6 235.7M141.3 245.2L118.2 247.2M141.3 245.2L160.6 235.7M389.5 184.6L362.7 169.2M389.5 184.6L365.2 190.5M389.5 184.6L386.1 152.9M389.5 184.6L445.0 166.8M660.1 737.3L649.1 762.1M872.6 282.1L831.9 280.4M872.6 282.1L855.7 313.6M763.0 224.0L775.2 236.0M763.0 224.0L752.7 216.9M118.3 296.6L118.3 308.4M118.3 296.6L51.9 262.2M118.3 296.6L141.3 313.0M369.6 145.7L362.7 169.2M369.6 145.7L389.7 140.1M369.6 145.7L386.1 152.9M369.6 145.7L389.7 140.1M365.1 760.1L354.5 749.7M365.1 760.1L391.8 809.7M365.1 760.1L416.7 743.4M365.1 760.1L379.7 829.3M365.1 760.1L411.1 705.2M365.1 760.1L411.1 705.2M546.2 807.0L544.7 794.6M676.6 354.4L672.1 358.3M752.5 435.2L746.9 430.1M752.5 435.2L755.7 452.1M752.5 435.2L746.9 430.1M708.2 782.6L690.5 820.9M708.2 782.6L710.8 722.6M708.2 782.6L690.5 820.9M708.2 782.6L712.0 779.4M708.2 782.6L712.0 779.4M369.8 328.2L358.3 331.5M369.8 328.2L358.3 331.5M774.8 558.5L777.3 550.4M479.7 165.3L468.8 163.2M479.7 165.3L493.7 170.2M736.9 776.7L737.3 776.7M446.7 678.1L478.8 698.2M737.6 215.6L732.9 212.9M737.6 215.6L731.0 222.4M737.6 215.6L732.9 212.9M685.9 614.5L689.1 615.0M582.9 131.2L575.3 136.1M602.3 568.1L603.3 558.0M447.6 218.6L457.3 215.8M537.8 128.6L532.0 143.5M537.8 128.6L544.7 145.6M537.8 128.6L544.0 119.0M230.9 639.2L238.7 664.0M230.9 639.2L217.6 619.1M230.9 639.2L238.7 664.0M549.7 775.4L551.8 764.5M558.4 242.2L546.9 230.2M558.4 242.2L570.3 240.6M558.4 242.2L572.6 245.7M558.4 242.2L569.1 235.4M118.3 308.4L179.7 332.8M656.9 821.5L672.1 808.4M656.9 821.5L672.1 808.4M390.7 226.2L404.4 219.9M390.7 226.2L377.7 211.9M510.3 721.5L498.2 712.1M242.2 835.1L242.2 835.1M538.5 629.9L538.5 598.6M538.5 629.9L571.4 623.0M269.2 523.1L260.0 507.3M578.0 357.3L586.1 357.3M578.0 357.3L586.1 357.3M777.3 550.4L798.3 550.5M555.4 215.5L561.0 207.2M555.4 215.5L561.0 207.2M179.7 332.8L188.2 321.6M522.6 81.2L518.0 87.4M522.6 81.2L533.7 63.0M522.6 81.2L518.0 87.4M687.6 662.4L689.7 665.2M746.2 466.7L755.7 452.1M712.0 397.3L697.0 383.5M439.4 235.6L442.7 231.7M439.4 235.6L442.7 231.7M703.7 456.9L679.1 501.6M530.5 32.8L527.6 31.7M553.4 748.1L551.8 764.5M553.4 748.1L533.8 760.9M608.9 106.6L605.2 105.0M747.4 726.3L745.5 729.0M358.3 331.5L375.2 334.7M358.3 331.5L364.9 313.5M358.3 331.5L360.3 317.4M223.2 238.9L220.3 232.2M223.2 238.9L220.3 232.2M223.2 238.9L223.2 238.9M223.2 238.9L220.3 232.2M743.2 608.4L745.2 610.0M298.7 188.0L305.2 190.7M652.3 801.1L650.7 781.6M672.1 808.4L690.5 820.9M672.1 808.4L690.5 820.9M638.8 236.0L629.9 226.2M698.8 269.8L698.7 275.0M698.8 269.8L698.7 275.0M484.1 697.2L478.8 698.2M530.7 227.1L521.9 222.6M530.7 227.1L521.9 222.6M674.0 275.1L691.1 274.9M820.3 345.4L828.3 348.2M820.3 345.4L828.3 348.2M854.3 330.7L868.4 333.6M854.3 330.7L868.4 333.6M854.3 330.7L868.4 333.6M377.7 261.6L371.7 259.7M377.7 261.6L385.1 262.8M580.0 277.0L578.4 284.7M580.0 277.0L578.4 284.7M696.9 216.4L702.8 219.9M700.4 379.7L697.0 383.5M820.7 756.2L817.1 759.2M820.7 756.2L817.1 759.2M391.8 809.7L379.7 829.3M566.2 609.7L538.5 598.6M566.2 609.7L571.4 623.0M454.8 263.8L436.0 287.1M454.8 263.8L448.4 269.0M454.8 263.8L444.9 274.0M661.6 788.6L649.1 762.1M661.6 788.6L679.3 778.8M682.0 369.4L672.1 358.3M682.0 369.4L697.0 383.5M546.9 230.2L580.2 226.3M546.9 230.2L580.2 226.3M546.9 230.2L565.0 229.7M647.0 344.8L651.1 356.0M115.7 206.4L118.2 247.2M365.2 190.5L413.5 176.0M278.5 511.7L237.7 511.6M761.8 739.8L754.7 734.7M761.8 739.8L778.5 751.8M571.3 341.1L586.1 357.3M532.0 143.5L528.4 154.7M649.1 762.1L650.7 781.6M649.1 762.1L640.3 759.1M649.1 762.1L677.1 746.0M649.1 762.1L623.7 776.3M482.0 636.7L494.6 659.0M482.0 636.7L489.8 623.3M482.0 636.7L486.6 669.5M482.0 636.7L506.3 621.2M493.3 40.0L492.4 42.5M576.5 167.5L573.3 170.5M492.4 688.9L492.7 692.3M575.5 173.5L573.3 170.5M298.2 634.9L307.2 632.0M747.5 671.0L743.5 702.7M699.4 654.1L696.0 654.4M423.5 283.8L417.7 276.9M423.5 283.8L424.5 279.5M710.3 229.4L716.9 229.4M728.1 324.0L722.3 325.3M389.7 140.1L413.5 176.0M731.5 710.4L734.4 707.5M716.8 170.9L699.2 174.8M329.3 550.0L331.7 617.5M775.2 236.0L781.7 246.6M614.7 358.8L586.1 357.3M614.7 358.8L659.9 384.2M238.7 664.0L222.0 663.9M757.4 245.5L753.1 246.6M405.5 282.1L410.4 285.2M696.6 830.6L690.5 820.9M764.2 637.1L753.5 635.3M561.0 207.2L580.2 226.3M561.0 207.2L541.1 207.0M695.8 668.2L696.0 654.4M521.9 222.6L513.3 227.7M521.9 222.6L524.6 212.9M521.9 222.6L513.3 227.7M521.9 222.6L519.1 215.1M521.9 222.6L513.3 227.7M586.1 357.3L575.7 372.5M586.1 357.3L586.1 372.5M699.5 550.8L669.9 562.4M562.7 144.6L575.3 136.1M825.3 403.1L797.5 414.1M743.5 702.7L741.1 685.6M743.5 702.7L734.4 707.5M553.5 585.2L551.6 575.1M553.5 585.2L551.6 575.1M578.4 284.7L573.0 287.5M51.9 262.2L66.7 236.7M603.3 558.0L591.5 557.8M417.7 276.9L410.4 285.2M417.7 276.9L424.5 279.5M417.7 276.9L420.6 287.3M725.6 706.0L710.8 722.6M725.6 706.0L728.9 714.1M725.6 706.0L734.4 707.5M752.7 216.9L748.1 245.9M752.7 216.9L716.9 229.4M752.7 216.9L781.7 246.6M752.7 216.9L753.1 246.6M580.8 790.1L558.2 790.1M558.2 790.1L544.7 794.6M685.6 670.1L689.7 665.2M758.4 730.4L754.7 734.7M529.5 433.8L586.1 433.7M677.1 746.0L710.8 722.6M321.5 593.2L310.8 613.8M702.8 219.9L714.5 224.9M702.8 219.9L688.8 219.4M702.8 219.9L716.9 229.4M702.8 219.9L702.7 223.8M226.0 358.7L227.2 370.3M226.0 358.7L216.4 356.7M732.9 212.9L716.9 229.4M732.9 212.9L716.9 229.4M732.9 212.9L716.9 229.4M228.4 282.9L223.1 286.9M748.1 349.0L752.6 337.9M416.7 743.4L411.1 705.2M513.3 227.7L506.6 230.6M536.8 68.0L533.7 63.0M536.8 68.0L533.7 63.0M710.8 722.6L745.5 729.0M710.8 722.6L717.7 735.0M498.2 712.1L478.8 698.2M498.2 712.1L475.0 723.9M498.2 712.1L492.7 692.3M667.8 187.6L669.7 194.8M691.1 274.9L698.7 275.0M817.1 759.2L830.0 756.3M495.4 367.5L511.7 383.1M495.4 367.5L502.2 362.8M400.7 615.9L456.0 594.6M379.7 829.3L401.0 850.0M607.5 751.4L570.4 733.2M607.5 751.4L570.4 733.2M503.1 176.7L493.7 170.2M141.3 313.0L183.9 339.0M600.9 110.5L607.0 98.6M600.9 110.5L605.2 105.0M448.9 326.4L445.6 327.6M575.7 372.5L586.1 372.5M310.6 195.4L305.2 190.7M547.6 119.1L544.0 119.0M766.3 783.6L761.6 787.6M624.2 711.0L622.2 692.6M624.2 711.0L622.2 692.6M624.2 711.0L622.2 692.6M624.2 711.0L622.2 692.6M594.9 98.9L592.8 102.3M592.0 98.5L592.8 102.3M331.7 617.5L310.8 613.8M513.4 216.8L508.7 219.1M755.3 631.0L753.5 635.3M578.2 217.7L579.3 221.0M578.2 217.7L579.3 221.0M579.3 221.0L580.2 226.3M579.3 221.0L580.2 226.3M778.0 751.8L778.5 751.8M633.3 642.9L633.9 652.2M607.0 98.6L605.2 105.0M526.5 160.7L528.4 154.7M445.0 166.8L413.5 176.0M544.4 97.3L525.1 96.3M387.1 662.5L411.5 654.4M533.7 63.0L522.4 58.2M622.8 218.7L629.9 226.2M507.0 119.5L503.1 116.6M716.9 229.4L714.5 224.9M716.9 229.4L731.0 222.4M716.9 229.4L702.7 223.8M743.0 332.6L715.3 328.0M743.0 332.6L722.3 325.3M743.0 332.6L740.0 344.3M743.0 332.6L739.3 312.6M743.0 332.6L752.6 337.9M756.9 791.7L761.6 787.6M436.0 287.1L424.5 279.5M436.0 287.1L446.5 324.5M436.0 287.1L444.7 290.8M436.0 287.1L450.9 297.6M436.0 287.1L403.5 291.5M436.0 287.1L420.6 287.3M436.0 287.1L448.4 269.0M436.0 287.1L440.1 324.5M436.0 287.1L444.9 274.0M436.0 287.1L464.9 281.1M519.0 351.1L502.2 362.8M580.2 226.3L570.3 240.6M580.2 226.3L591.9 255.6M580.2 226.3L572.6 245.7M580.2 226.3L569.1 235.4M580.2 226.3L583.3 271.0M580.2 226.3L565.0 229.7M843.7 344.6L828.3 348.2M843.7 344.6L828.3 348.2M843.7 344.6L828.3 348.2M843.7 344.6L828.3 348.2M511.8 30.0L515.9 25.7M503.2 54.8L500.5 55.8M446.5 324.5L445.6 327.6M486.6 669.5L491.7 677.9M745.5 729.0L754.7 734.7" fill="none" stroke="#166a5a" stroke-width="1.2" stroke-opacity="0.7" stroke-linecap="round" stroke-linejoin="round"/><path d="M176.8 780.8L176.8 773.7M173.7 768.3L176.8 773.7M176.8 780.8L177.4 773.4M173.7 768.3L177.4 773.4M507.6 140.0L507.6 140.0M487.1 123.7L507.6 140.0M507.6 140.0L496.7 135.1M487.1 123.7L496.7 135.1M783.1 749.8L787.1 748.7M791.6 751.4L787.1 748.7M783.1 749.8L785.6 751.4M791.6 751.4L785.6 751.4M720.4 275.7L715.7 272.9M711.5 275.1L715.7 272.9M711.5 275.1L720.4 275.7M769.8 767.0L774.0 770.3M774.4 774.6L774.0 770.3M769.8 767.0L772.1 770.8M774.4 774.6L772.1 770.8M327.9 768.5L334.3 786.2M328.9 800.0L334.3 786.2M327.9 768.5L322.3 786.4M328.9 800.0L322.3 786.4M445.9 186.1L441.8 196.0M436.9 200.6L441.8 196.0M445.9 186.1L439.4 193.0M436.9 200.6L439.4 193.0M445.9 186.1L442.6 194.3M436.9 200.6L442.6 194.3M445.9 186.1L442.9 192.9M436.9 200.6L442.9 192.9M445.9 186.1L440.0 194.7M436.9 200.6L440.0 194.7M579.8 543.2L583.0 549.0M590.2 549.2L583.0 549.0M579.8 543.2L584.7 546.3M590.2 549.2L584.7 546.3M464.0 317.6L465.6 313.4M468.0 310.6L465.6 313.4M464.0 317.6L463.9 313.3M468.0 310.6L463.9 313.3M464.0 317.6L465.8 315.1M468.0 310.6L465.8 315.1M739.1 544.4L742.2 545.0M744.1 548.5L742.2 545.0M744.1 548.5L739.1 544.4M453.1 336.9L447.9 337.8M441.1 340.7L447.9 337.8M405.0 464.8L416.3 472.2M428.7 475.3L416.3 472.2M405.0 464.8L416.3 465.5M428.7 475.3L416.3 465.5M734.9 487.4L729.4 484.8M729.4 484.8L724.0 482.3M456.7 793.8L447.7 802.1M445.6 812.8L447.7 802.1M456.7 793.8L447.8 799.7M445.6 812.8L447.8 799.7M700.1 531.4L707.7 535.1M706.2 539.6L707.7 535.1M706.2 539.6L700.1 531.4M661.1 472.8L653.4 474.8M653.4 474.8L646.3 471.8M646.3 471.8L661.1 472.8M367.2 692.2L371.3 696.4M355.6 698.9L371.3 696.4M355.6 698.9L367.2 692.2M477.7 136.2L478.3 134.4M480.1 131.9L478.3 134.4M475.9 441.9L470.7 438.3M465.8 432.0L470.7 438.3M81.3 235.5L79.4 233.2M79.5 229.0L79.4 233.2M81.3 235.5L77.4 234.0M79.5 229.0L77.4 234.0M649.1 151.1L655.0 149.2M659.7 150.0L655.0 149.2M649.1 151.1L655.1 145.6M659.7 150.0L655.1 145.6M659.7 150.0L649.1 151.1M377.1 249.2L382.3 247.8M393.0 249.5L382.3 247.8M377.1 249.2L383.4 249.0M393.0 249.5L383.4 249.0M377.1 249.2L385.0 249.7M393.0 249.5L385.0 249.7M377.1 249.2L386.0 250.4M393.0 249.5L386.0 250.4M650.6 589.7L643.1 594.6M638.4 582.4L643.1 594.6M650.6 589.7L642.8 589.8M638.4 582.4L642.8 589.8M638.4 582.4L650.6 589.7M250.4 631.6L243.2 615.9M246.3 601.8L243.2 615.9M250.4 631.6L235.6 614.9M246.3 601.8L235.6 614.9M246.3 601.8L250.4 631.6M748.8 783.3L748.1 786.5M750.1 791.2L748.1 786.5M748.8 783.3L752.0 786.3M750.1 791.2L752.0 786.3M511.4 192.2L503.9 196.3M510.6 209.1L503.9 196.3M511.4 192.2L508.1 198.1M510.6 209.1L508.1 198.1M511.4 192.2L506.0 197.3M510.6 209.1L506.0 197.3M510.6 209.1L511.4 192.2M370.9 340.0L360.3 333.9M358.3 331.5L360.3 333.9M358.3 331.5L370.9 340.0M677.9 793.9L675.0 801.1M672.1 808.4L675.0 801.1M677.9 793.9L675.0 801.1M672.1 808.4L675.0 801.1M672.1 808.4L677.9 793.9M466.4 633.6L474.3 628.6M482.0 636.7L474.3 628.6M466.4 633.6L473.8 635.5M482.0 636.7L473.8 635.5M542.4 522.6L535.7 525.0M530.4 521.2L535.7 525.0M542.4 522.6L535.1 519.5M530.4 521.2L535.1 519.5M542.4 522.6L536.4 522.6M530.4 521.2L536.4 522.6M562.4 195.8L556.6 201.5M561.0 207.2L556.6 201.5M561.0 207.2L562.4 195.8M587.5 344.1L591.6 349.6M591.6 349.6L586.1 357.3M587.5 344.1L583.7 348.5M586.1 357.3L583.7 348.5M533.5 738.1L542.2 748.3M533.8 760.9L542.2 748.3M533.5 738.1L533.6 748.4M533.8 760.9L533.6 748.4M533.8 760.9L533.5 738.1M371.3 464.8L378.1 459.8M372.6 448.1L378.1 459.8M372.6 448.1L371.3 464.8M407.8 693.0L408.7 698.9M411.1 705.2L408.7 698.9M407.8 693.0L413.2 698.3M411.1 705.2L413.2 698.3M672.4 380.7L668.2 381.8M668.2 381.8L659.9 384.2M659.9 384.2L672.4 380.7M659.9 384.2L672.4 380.7M388.8 285.0L392.5 282.2M393.9 278.5L392.5 282.2M736.4 585.2L743.7 586.4M749.8 588.2L743.7 586.4M736.4 585.2L741.2 588.7M749.8 588.2L741.2 588.7M482.9 587.7L474.2 589.8M466.5 588.3L474.2 589.8M482.9 587.7L474.7 588.0M466.5 588.3L474.7 588.0M611.1 462.0L604.9 462.1M604.9 462.1L597.8 462.1M549.2 169.1L552.3 164.8M556.3 162.6L552.3 164.8M549.2 169.1L548.6 159.8M556.3 162.6L548.6 159.8M556.3 162.6L549.2 169.1M604.5 301.6L599.0 295.8M583.6 299.7L599.0 295.8M604.5 301.6L598.9 297.8M583.6 299.7L598.9 297.8M604.5 301.6L597.8 299.8M583.6 299.7L597.8 299.8M583.6 299.7L604.5 301.6M832.6 409.4L830.5 405.8M830.5 405.8L825.3 403.1M832.6 409.4L826.4 411.2M826.4 411.2L825.3 403.1M442.6 300.6L436.2 295.3M436.0 287.1L436.2 295.3M442.6 300.6L435.0 295.5M436.0 287.1L435.0 295.5M442.6 300.6L437.8 295.0M436.0 287.1L437.8 295.0M442.6 300.6L434.2 295.5M436.0 287.1L434.2 295.5M442.6 300.6L433.3 295.7M436.0 287.1L433.3 295.7M590.7 218.7L586.2 223.2M580.2 226.3L586.2 223.2M590.7 218.7L586.1 225.7M580.2 226.3L586.1 225.7M590.7 218.7L586.3 227.9M580.2 226.3L586.3 227.9M580.2 226.3L590.7 218.7M580.2 226.3L590.7 218.7M514.1 483.8L515.5 489.8M513.8 499.4L515.5 489.8M513.8 499.4L514.1 483.8M513.8 499.4L514.1 483.8M519.5 325.3L522.6 319.7M525.7 314.1L522.6 319.7M525.7 314.1L519.5 325.3M525.7 314.1L519.5 325.3M777.4 452.5L769.3 450.6M769.3 450.6L769.7 443.8M769.7 443.8L777.4 452.5M769.7 443.8L777.4 452.5M809.4 275.6L813.7 277.7M819.8 276.0L813.7 277.7M819.8 276.0L809.4 275.6M819.8 276.0L809.4 275.6M252.0 668.5L243.5 668.9M238.7 664.0L243.5 668.9M238.7 664.0L252.0 668.5M238.7 664.0L252.0 668.5M242.2 289.8L238.6 292.4M232.3 294.7L238.6 292.4M242.2 289.8L236.9 291.6M232.3 294.7L236.9 291.6M684.1 280.7L679.0 277.9M674.0 275.1L679.0 277.9M523.7 446.2L530.0 440.2M530.0 440.2L529.5 433.8M523.7 446.2L523.4 438.1M529.5 433.8L523.4 438.1M755.4 331.5L751.3 334.6M743.0 332.6L751.3 334.6M743.0 332.6L755.4 331.5M656.4 325.3L646.9 325.3M640.4 330.6L646.9 325.3M481.1 38.2L486.1 35.2M481.1 38.2L486.1 35.2M564.2 89.3L574.0 91.5M564.2 89.3L574.0 91.5M564.2 89.3L574.0 91.5M352.1 368.9L355.9 380.5M624.6 630.7L638.3 630.7M624.6 630.7L638.3 630.7M436.4 866.7L437.3 854.9M436.4 866.7L437.3 854.9M436.4 866.7L437.3 854.9M724.6 270.2L722.5 272.9M640.7 557.4L645.0 563.3M640.7 557.4L645.0 563.3M724.7 747.5L721.5 755.8M724.7 747.5L721.5 755.8M236.3 558.9L249.0 554.3M134.2 293.3L150.1 289.9M217.5 696.8L203.8 692.1M217.5 696.8L203.8 692.1M592.8 136.0L592.8 130.8M430.6 363.5L427.1 369.5M430.6 363.5L427.1 369.5M750.9 622.4L751.3 615.0M750.9 622.4L751.3 615.0M750.9 622.4L751.3 615.0M205.9 347.7L221.7 339.3M205.9 347.7L221.7 339.3M205.9 347.7L221.7 339.3M205.9 347.7L221.7 339.3M696.1 646.0L681.5 646.6M696.1 646.0L681.5 646.6M280.6 596.2L293.5 592.2M280.6 596.2L293.5 592.2M781.7 626.5L781.7 626.5M780.5 637.7L781.7 626.5M780.5 637.7L781.7 626.5M313.2 369.8L317.8 382.3M313.2 369.8L317.8 382.3M313.2 369.8L317.8 382.3M313.2 369.8L317.8 382.3M335.9 674.0L342.9 682.2M583.7 601.9L580.4 609.5M583.7 601.9L580.4 609.5M583.7 601.9L580.4 609.5M711.6 605.7L716.7 599.0M711.6 605.7L716.7 599.0M267.3 372.2L268.1 361.3M545.8 105.1L539.0 101.8M278.7 478.7L295.0 487.6M278.7 478.7L295.0 487.6M278.7 478.7L295.0 487.6M359.8 158.4L359.3 163.4M359.8 158.4L359.3 163.4M594.5 790.4L594.6 776.8M594.5 790.4L594.6 776.8M323.8 407.5L316.1 406.5M323.8 407.5L316.1 406.5M249.8 245.8L244.1 240.0M793.3 333.7L791.3 339.2M793.3 333.7L791.3 339.2M469.8 40.1L472.1 33.5M469.8 40.1L472.1 33.5M217.6 770.1L233.7 767.7M578.8 108.3L579.4 101.7M578.8 108.3L579.4 101.7M657.2 212.2L651.9 214.0M657.2 212.2L651.9 214.0M840.8 353.9L840.8 353.9M840.8 353.9L840.8 353.9M297.5 296.0L289.1 303.2M141.3 245.2L141.0 249.5M141.3 245.2L141.0 249.5M660.1 737.3L650.1 734.6M656.9 821.5L653.8 819.1M269.2 523.1L269.6 523.1M468.8 163.2L461.1 156.7M365.2 190.5L355.4 187.4M365.2 190.5L355.4 187.4M365.2 190.5L355.4 187.4M828.4 312.6L822.7 310.9M752.7 216.9L749.9 220.6M495.4 367.5L482.1 367.1M495.4 367.5L482.1 367.1M607.5 751.4L595.1 756.2M607.5 751.4L595.1 756.2M503.1 176.7L507.0 170.8M503.1 176.7L507.0 170.8M310.6 195.4L319.7 181.9M310.6 195.4L319.7 181.9M766.3 783.6L762.4 775.1M766.3 783.6L762.4 775.1M624.2 711.0L587.7 710.7M624.2 711.0L587.7 710.7M624.2 711.0L587.7 710.7M624.2 711.0L587.7 710.7M624.2 711.0L587.7 710.7M624.2 711.0L587.7 710.7M668.5 638.6L672.6 643.1M668.5 638.6L672.6 643.1M668.5 638.6L672.6 643.1M668.5 638.6L672.6 643.1M668.5 638.6L672.6 643.1M668.5 638.6L672.6 643.1M445.0 166.8L446.6 159.8M445.0 166.8L446.6 159.8M445.0 166.8L446.6 159.8M622.8 218.7L635.1 218.6M622.8 218.7L635.1 218.6M716.9 229.4L720.2 235.1M716.9 229.4L720.2 235.1M511.8 30.0L502.0 31.5M511.8 30.0L502.0 31.5M511.8 30.0L502.0 31.5M511.8 30.0L502.0 31.5M522.4 58.2L525.4 54.4M522.4 58.2L525.4 54.4M736.4 585.2L757.4 589.8M736.4 585.2L751.3 615.0M736.4 585.2L716.7 599.0M736.4 585.2L734.6 552.6M736.4 585.2L757.4 589.8M736.4 585.2L716.7 599.0M736.4 585.2L716.7 599.0M176.8 780.8L203.8 692.1M507.6 140.0L515.7 107.7M507.6 140.0L486.2 80.8M507.6 140.0L477.7 136.2M507.6 140.0L472.1 33.5M507.6 140.0L438.6 133.4M507.6 140.0L507.0 170.8M507.6 140.0L515.7 107.7M507.6 140.0L507.0 170.8M507.6 140.0L507.0 170.8M486.1 35.2L472.1 33.5M486.1 35.2L502.0 31.5M574.0 91.5L539.0 101.8M574.0 91.5L579.4 101.7M574.0 91.5L525.4 54.4M574.0 91.5L539.0 101.8M574.0 91.5L579.4 101.7M574.0 91.5L502.0 31.5M355.9 380.5L317.8 382.3M355.9 380.5L366.4 383.3M355.9 380.5L381.8 373.7M355.9 380.5L317.8 382.3M355.9 380.5L366.4 383.3M355.9 380.5L381.8 373.7M355.9 380.5L358.2 390.7M355.9 380.5L358.2 390.7M461.5 713.7L456.7 793.8M461.5 713.7L466.4 633.6M783.1 749.8L769.8 767.0M783.1 749.8L769.8 767.0M638.3 630.7L660.3 590.8M638.3 630.7L588.8 687.4M740.7 519.1L734.1 519.8M734.1 519.8L735.3 511.5M734.1 519.8L700.1 531.4M437.3 854.9L456.7 793.8M437.3 854.9L456.7 793.8M438.9 143.8L455.8 142.3M438.9 143.8L438.6 133.4M438.9 143.8L461.1 156.7M438.9 143.8L355.4 187.4M438.9 143.8L507.0 170.8M438.9 143.8L446.6 159.8M438.9 143.8L455.8 142.3M438.9 143.8L438.6 133.4M438.9 143.8L461.1 156.7M438.9 143.8L355.4 187.4M438.9 143.8L507.0 170.8M438.9 143.8L446.6 159.8M438.9 143.8L455.8 142.3M438.9 143.8L455.8 142.3M514.1 483.8L494.8 385.9M514.1 483.8L562.1 513.0M514.1 483.8L475.9 441.9M514.1 483.8L542.4 522.6M514.1 483.8L562.1 513.0M514.1 483.8L475.9 441.9M514.1 483.8L542.4 522.6M514.1 483.8L523.7 446.2M720.4 275.7L723.0 320.0M720.4 275.7L809.4 275.6M720.4 275.7L720.2 235.1M720.4 275.7L723.0 320.0M720.4 275.7L720.2 235.1M720.4 275.7L722.5 272.9M769.8 767.0L762.4 775.1M769.8 767.0L762.4 775.1M235.2 543.9L249.0 554.3M235.2 543.9L249.0 554.3M235.2 543.9L249.0 554.3M235.2 543.9L249.0 554.3M613.0 314.4L648.7 317.9M613.0 314.4L604.5 301.6M613.0 314.4L615.2 309.6M613.0 314.4L648.7 317.9M613.0 314.4L604.5 301.6M613.0 314.4L619.0 311.0M645.0 563.3L660.3 590.8M645.0 563.3L650.6 589.7M583.4 101.6L579.4 101.7M721.5 755.8L650.1 734.6M721.5 755.8L716.6 755.8M249.0 554.3L250.4 631.6M249.0 554.3L269.6 523.1M249.0 554.3L293.5 592.2M249.0 554.3L269.6 523.1M249.0 554.3L293.5 592.2M249.0 554.3L293.5 592.2M482.9 587.7L475.9 441.9M482.9 587.7L466.4 633.6M476.3 642.2L466.4 633.6M660.9 547.8L662.4 555.8M660.9 547.8L662.4 555.8M660.9 547.8L662.4 555.8M660.9 547.8L662.4 555.8M484.7 388.8L494.8 385.9M489.2 391.9L494.8 385.9M150.1 289.9L221.7 339.3M150.1 289.9L81.3 235.5M203.8 692.1L252.0 668.5M203.8 692.1L252.0 668.5M592.8 130.8L621.2 167.9M592.8 130.8L579.4 101.7M700.8 233.2L720.2 235.1M701.9 236.1L720.2 235.1M703.3 238.7L720.2 235.1M704.8 241.7L720.2 235.1M327.9 768.5L233.7 767.7M327.9 768.5L407.8 693.0M327.9 768.5L233.7 767.7M327.9 768.5L407.8 693.0M611.2 251.5L648.7 317.9M611.2 251.5L563.1 192.9M445.9 186.1L377.1 249.2M445.9 186.1L507.0 170.8M445.9 186.1L377.1 249.2M445.9 186.1L507.0 170.8M445.9 186.1L507.0 170.8M660.3 590.8L588.8 687.4M660.3 590.8L681.5 646.6M660.3 590.8L716.7 599.0M660.3 590.8L650.6 589.7M660.3 590.8L591.4 616.9M660.3 590.8L662.4 555.8M660.3 590.8L681.5 646.6M660.3 590.8L716.7 599.0M660.3 590.8L650.6 589.7M660.3 590.8L591.4 616.9M660.3 590.8L662.4 555.8M660.3 590.8L662.4 555.8M660.3 590.8L662.4 555.8M427.1 369.5L425.9 385.4M427.1 369.5L425.9 385.4M393.9 365.5L317.8 382.3M393.9 365.5L381.8 373.7M393.9 365.5L370.9 340.0M393.9 365.5L401.7 369.5M393.9 365.5L381.8 373.7M393.9 365.5L370.9 340.0M579.8 543.2L580.4 609.5M579.8 543.2L562.1 513.0M579.8 543.2L662.4 555.8M579.8 543.2L580.4 609.5M579.8 543.2L562.1 513.0M579.8 543.2L662.4 555.8M519.5 325.3L464.0 317.6M519.5 325.3L648.7 317.9M519.5 325.3L604.5 301.6M519.5 325.3L521.1 331.0M519.5 325.3L482.1 367.1M519.5 325.3L553.1 326.7M519.5 325.3L464.0 317.6M519.5 325.3L648.7 317.9M519.5 325.3L604.5 301.6M519.5 325.3L482.1 367.1M519.5 325.3L482.1 367.1M515.7 107.7L539.0 101.8M515.7 107.7L549.2 169.1M515.7 107.7L502.0 31.5M515.7 107.7L539.0 101.8M515.7 107.7L549.2 169.1M515.7 107.7L502.0 31.5M720.8 603.6L716.7 599.0M369.4 389.1L366.4 383.3M369.4 389.1L366.4 383.3M614.3 173.1L621.2 167.9M611.7 171.1L621.2 167.9M464.0 317.6L472.6 344.5M464.0 317.6L442.6 300.6M464.0 317.6L472.6 344.5M464.0 317.6L442.6 300.6M464.0 317.6L442.6 300.6M378.2 471.5L371.3 464.8M378.2 471.5L371.3 464.8M351.9 559.7L293.5 592.2M351.9 559.7L380.7 521.8M751.3 615.0L781.7 626.5M221.7 339.3L268.1 361.3M221.7 339.3L230.8 316.5M221.7 339.3L317.8 382.3M221.7 339.3L230.8 316.5M221.7 339.3L81.3 235.5M221.7 339.3L221.7 339.3M739.1 544.4L700.1 531.4M739.1 544.4L734.6 552.6M588.8 687.4L581.3 677.1M588.8 687.4L588.8 687.4M588.8 687.4L588.8 687.4M588.8 687.4L591.4 616.9M588.8 687.4L595.1 756.2M588.8 687.4L587.7 710.7M588.8 687.4L581.3 677.1M588.8 687.4L588.8 687.4M588.8 687.4L588.8 687.4M588.8 687.4L591.4 616.9M588.8 687.4L587.7 710.7M588.8 687.4L581.3 677.1M588.8 687.4L588.8 687.4M588.8 687.4L588.8 687.4M588.8 687.4L587.7 710.7M588.8 687.4L581.3 677.1M588.8 687.4L588.8 687.4M588.8 687.4L588.8 687.4M588.8 687.4L588.8 687.4M588.8 687.4L588.8 687.4M681.5 646.6L672.6 643.1M681.5 646.6L672.6 643.1M656.4 325.3L648.7 317.9M656.4 325.3L684.1 280.7M656.4 325.3L672.4 380.7M690.5 556.4L716.7 599.0M690.5 556.4L700.1 531.4M690.5 556.4L662.4 555.8M690.5 556.4L716.7 599.0M690.5 556.4L700.1 531.4M690.5 556.4L662.4 555.8M293.5 592.2L342.9 682.2M293.5 592.2L252.0 668.5M293.5 592.2L342.9 682.2M293.5 592.2L250.4 631.6M293.5 592.2L252.0 668.5M469.1 371.3L482.1 367.1M469.1 371.3L482.1 367.1M477.0 377.5L482.1 367.1M477.0 377.5L482.1 367.1M453.1 336.9L472.6 344.5M453.1 336.9L425.9 385.4M453.1 336.9L388.8 285.0M453.1 336.9L472.6 344.5M453.1 336.9L425.9 385.4M453.1 336.9L442.6 300.6M317.8 382.3L268.1 361.3M317.8 382.3L316.1 406.5M317.8 382.3L395.6 388.4M317.8 382.3L316.1 406.5M242.2 289.8L244.1 240.0M242.2 289.8L230.8 316.5M242.2 289.8L289.1 303.2M242.2 289.8L141.0 249.5M242.2 289.8L244.1 240.0M242.2 289.8L230.8 316.5M242.2 289.8L289.1 303.2M342.9 682.2L304.8 684.9M342.9 682.2L367.2 692.2M342.9 682.2L304.8 684.9M342.9 682.2L407.8 693.0M747.3 225.8L749.9 220.6M747.3 225.8L749.9 220.6M580.4 609.5L591.4 616.9M580.4 609.5L591.4 616.9M405.0 464.8L475.9 441.9M405.0 464.8L380.7 521.8M405.0 464.8L466.4 633.6M405.0 464.8L371.3 464.8M405.0 464.8L425.9 385.4M405.0 464.8L371.3 464.8M633.5 276.4L648.7 317.9M633.5 276.4L635.1 218.6M848.2 355.8L840.8 353.9M848.2 355.8L840.8 353.9M230.4 163.1L239.6 169.1M230.4 163.1L239.6 169.1M230.4 163.1L239.6 169.1M230.4 163.1L239.6 169.1M734.9 487.4L700.1 531.4M734.9 487.4L777.4 452.5M486.2 80.8L472.1 33.5M472.6 344.5L494.8 385.9M472.6 344.5L482.1 367.1M472.6 344.5L494.8 385.9M472.6 344.5L482.1 367.1M456.7 793.8L440.9 755.7M456.7 793.8L533.5 738.1M456.7 793.8L440.9 755.7M456.7 793.8L533.5 738.1M494.8 385.9L523.7 446.2M700.1 531.4L672.4 380.7M700.1 531.4L672.4 380.7M700.1 531.4L672.4 380.7M295.0 487.6L316.1 406.5M295.0 487.6L269.6 523.1M295.0 487.6L328.8 471.6M295.0 487.6L316.1 406.5M295.0 487.6L269.6 523.1M295.0 487.6L371.3 464.8M498.5 24.6L502.0 31.5M498.5 24.6L502.0 31.5M498.5 24.6L502.0 31.5M498.5 24.6L502.0 31.5M498.5 24.6L502.0 31.5M498.5 24.6L502.0 31.5M661.1 472.8L662.4 555.8M661.1 472.8L672.4 380.7M611.1 462.0L662.4 555.8M611.1 462.0L672.4 380.7M359.3 163.4L355.4 187.4M359.3 163.4L355.4 187.4M571.4 192.1L549.2 169.1M571.4 192.1L590.7 218.7M723.0 320.0L791.3 339.2M723.0 320.0L648.7 317.9M723.0 320.0L716.9 315.0M723.0 320.0L755.4 331.5M723.0 320.0L648.7 317.9M440.9 755.7L407.8 693.0M440.9 755.7L407.8 693.0M594.6 776.8L595.1 756.2M594.6 776.8L595.1 756.2M549.2 169.1L590.7 218.7M244.1 240.0L249.9 201.6M244.1 240.0L249.9 201.6M367.2 692.2L407.8 693.0M477.7 136.2L438.6 133.4M791.3 339.2L840.8 353.9M621.2 167.9L649.1 151.1M621.2 167.9L651.9 214.0M621.2 167.9L633.3 205.2M621.2 167.9L635.1 218.6M621.2 167.9L579.4 101.7M621.2 167.9L649.1 151.1M621.2 167.9L651.9 214.0M621.2 167.9L579.4 101.7M653.4 819.1L653.8 819.1M648.7 317.9L672.4 380.7M648.7 317.9L672.4 380.7M777.4 452.5L832.6 409.4M472.1 33.5L466.0 29.6M472.1 33.5L502.0 31.5M809.4 275.6L822.7 310.9M809.4 275.6L720.2 235.1M475.9 441.9L482.1 367.1M475.9 441.9L482.1 367.1M649.1 151.1L646.2 144.7M649.1 151.1L646.2 144.7M649.1 151.1L646.2 144.7M649.1 151.1L646.2 144.7M239.6 169.1L249.9 201.6M239.6 169.1L232.3 149.5M239.6 169.1L249.9 201.6M239.6 169.1L232.3 149.5M239.6 169.1L249.9 201.6M239.6 169.1L249.9 201.6M377.1 249.2L328.1 215.1M377.1 249.2L388.8 285.0M377.1 249.2L328.1 215.1M377.1 249.2L442.6 300.6M305.0 318.0L289.1 303.2M305.0 318.0L370.9 340.0M604.5 301.6L590.7 218.7M604.5 301.6L590.7 218.7M651.9 214.0L720.2 235.1M651.9 214.0L720.2 235.1M250.4 631.6L252.0 668.5M450.9 640.8L419.4 636.0M450.9 640.8L466.4 633.6M450.9 640.8L419.4 636.0M840.8 353.9L822.7 310.9M840.8 353.9L832.6 409.4M840.8 353.9L840.8 353.9M840.8 353.9L840.8 353.9M840.8 353.9L755.4 331.5M840.8 353.9L832.6 409.4M748.8 783.3L677.9 793.9M748.8 783.3L762.4 775.1M748.8 783.3L677.9 793.9M748.8 783.3L762.4 775.1M289.1 303.2L370.9 340.0M289.1 303.2L249.9 201.6M289.1 303.2L249.9 201.6M781.7 626.5L788.6 631.2M781.7 626.5L789.5 626.4M781.7 626.5L781.7 626.5M781.7 626.5L789.5 626.4M781.7 626.5L781.7 626.5M591.4 616.9L583.8 617.2M591.4 616.9L583.8 617.2M511.4 192.2L563.1 192.9M511.4 192.2L562.4 195.8M511.4 192.2L507.0 170.8M511.4 192.2L507.0 170.8M511.4 192.2L507.0 170.8M511.4 192.2L590.7 218.7M650.1 734.6L595.1 756.2M438.6 133.4L446.3 137.3M438.6 133.4L446.3 137.3M395.6 388.4L401.7 369.5M716.6 755.8L711.7 755.7M677.9 793.9L595.1 756.2M677.9 793.9L595.1 756.2M461.1 156.7L507.0 170.8M461.1 156.7L507.0 170.8M684.1 280.7L720.2 235.1M328.8 471.6L371.3 464.8M355.4 187.4L328.1 215.1M355.4 187.4L319.7 181.9M355.4 187.4L328.1 215.1M355.4 187.4L319.7 181.9M562.4 195.8L590.7 218.7M587.5 344.1L672.4 380.7M587.5 344.1L553.1 326.7M633.3 205.2L635.1 218.6M749.9 220.6L720.2 235.1M419.7 390.5L425.9 385.4M419.7 390.5L425.9 385.4M711.7 749.6L711.7 755.7M533.5 738.1L595.1 756.2M533.5 738.1L595.1 756.2M249.9 201.6L272.9 172.7M249.9 201.6L272.9 172.7M595.1 756.2L587.7 710.7M595.1 756.2L711.7 755.7M595.1 756.2L587.7 710.7M595.1 756.2L587.7 710.7M595.1 756.2L587.7 710.7M595.1 756.2L587.7 710.7M272.9 172.7L319.7 181.9M272.9 172.7L319.7 181.9M425.9 385.4L401.7 369.5M425.9 385.4L401.7 369.5M805.1 626.2L789.5 626.4M502.0 31.5L525.4 54.4" fill="none" stroke="#d55e00" stroke-width="2.3" stroke-opacity="0.95" stroke-linecap="round" stroke-linejoin="round"/><g fill="#d55e00" fill-opacity="0.9"><circle cx="535.8" cy="421.1" r="1.6"/></g></svg>