<svg xmlns="http://www.w3.org/2000/svg" viewBox="0 0 900 891.3" role="img" aria-label="Network map" preserveAspectRatio="xMidYMid meet"><path d="M732.7 811.0L736.0 812.6M548.7 584.0L549.5 568.1M647.2 685.6L652.8 668.5M810.1 262.2L837.6 277.4M225.5 417.7L227.1 419.8M219.5 423.9L227.1 419.8M756.3 308.9L766.9 318.3M646.3 149.8L654.2 124.3M495.6 284.6L497.1 287.2M481.5 246.5L487.9 242.5M481.5 246.5L484.6 245.7M477.3 35.0L477.2 33.6M767.6 323.2L775.5 335.0M799.6 323.6L810.2 329.7M288.6 637.0L299.2 633.4M121.9 365.2L125.7 367.0M647.1 407.8L637.5 452.2M810.1 262.2L793.9 240.0M505.7 372.8L538.4 439.3M112.3 297.0L127.6 296.5M528.3 122.6L521.3 99.3M779.9 226.9L793.9 240.0M518.3 727.5L520.0 717.3M501.3 241.4L500.2 242.4M738.2 801.6L739.5 797.7M660.0 535.8L666.0 557.2M750.8 220.4L754.3 232.1M568.0 96.1L569.7 93.0M541.4 72.9L539.5 65.9M285.1 387.5L285.6 396.4M426.6 300.2L440.8 309.4M560.9 201.4L553.6 172.2M560.9 201.4L563.9 204.6M637.1 357.2L629.4 357.5M506.2 260.8L509.0 258.0M426.6 300.2L445.4 315.1M219.5 423.9L213.8 425.3M667.9 794.7L688.8 786.4M723.7 534.2L740.1 551.1M732.3 599.6L729.0 611.9M758.9 610.2L756.2 586.8M40.0 302.7L45.3 298.9M798.2 769.5L802.8 771.3M395.7 203.8L403.2 201.9M500.6 248.9L510.3 252.0M740.1 551.1L765.0 572.1M746.0 211.8L744.4 212.7M593.2 770.3L603.9 760.1M635.7 483.6L660.0 535.8M811.1 764.2L802.8 771.3M630.7 467.0L635.4 482.8M637.5 452.2L630.7 467.0M635.4 482.8L635.7 483.6M767.6 323.2L766.9 318.3M853.9 291.9L856.4 288.9M853.9 291.9L856.4 288.9M450.1 863.7L445.8 867.3M216.5 414.3L225.5 417.7M798.3 764.7L798.2 769.5M719.4 752.7L724.3 755.0M509.0 258.0L510.3 252.0M835.5 749.8L835.7 752.6M371.5 652.3L344.5 643.3M738.9 253.8L754.3 232.1M669.2 574.8L708.3 581.3M477.5 203.0L483.0 215.6M486.7 247.8L487.1 245.8M434.0 236.7L434.0 237.8M643.0 585.5L646.9 587.6M309.4 217.8L312.5 225.2M312.5 225.2L311.2 225.8M310.9 231.4L312.4 226.6M312.4 226.6L341.7 218.3M305.5 225.8L341.7 218.3M305.0 221.4L307.7 222.3M307.7 222.3L305.5 225.8M305.0 221.4L309.4 217.8M219.5 423.9L228.1 424.4M219.5 423.9L244.8 434.9M219.5 423.9L238.4 464.7M200.2 416.1L213.8 425.3M200.2 416.1L214.3 421.9M214.3 421.9L215.8 423.3M215.8 423.3L219.5 423.9M217.4 348.3L220.7 334.0M274.4 664.1L283.3 657.7M264.1 673.7L274.4 664.1M395.0 188.1L397.6 196.7M298.2 832.0L299.4 827.1M200.2 416.1L216.5 414.3M489.3 253.0L490.0 254.2M487.2 252.4L489.3 253.0M489.3 253.0L489.4 251.4M487.2 252.4L489.4 251.4M484.8 257.1L486.1 255.5M489.4 251.4L492.1 248.8M490.2 247.4L492.1 248.8M661.2 563.7L666.0 557.2M661.2 563.7L666.0 557.2M658.9 563.8L661.2 563.7M658.9 563.8L661.2 563.7M646.7 556.0L655.4 562.7M646.7 556.0L653.8 562.7M653.8 562.7L655.4 562.7M653.8 562.7L656.8 564.7M656.8 564.7L661.2 563.7M654.6 565.7L656.8 564.7M654.6 565.7L656.4 568.1M696.1 794.3L699.5 795.9M696.1 794.3L699.5 795.9M693.8 800.0L694.3 802.1M693.8 800.0L693.8 798.5M693.2 796.9L699.5 795.9M691.7 795.8L693.2 796.9M689.9 792.7L690.9 788.9M689.9 792.7L691.7 795.8M691.7 795.8L691.9 798.8M691.9 798.8L693.8 798.5M491.3 260.2L491.4 258.6M491.3 260.2L491.9 262.2M491.4 258.6L491.9 262.2M491.4 258.6L491.9 262.2M492.6 255.7L493.2 253.4M491.4 258.6L492.6 255.7M500.7 261.0L503.2 257.3M496.1 259.5L500.7 261.0M491.9 262.2L496.1 259.5M491.4 258.6L494.3 260.7M491.9 262.2L494.3 260.7M802.8 771.3L809.2 771.4M799.5 774.3L802.8 771.3M811.1 764.2L815.0 758.8M732.7 811.0L736.0 812.6M736.0 812.6L744.9 813.2M622.0 750.0L624.4 747.7M622.0 750.0L638.7 751.0M622.0 750.0L638.7 751.0M603.9 760.1L622.0 750.0M590.6 772.9L593.2 770.3M593.2 770.3L592.1 767.7M580.0 769.4L589.0 771.7M589.0 771.7L590.6 772.9M589.0 771.7L590.1 769.1M590.1 769.1L592.1 767.7M588.5 765.5L592.1 767.7M580.0 769.4L588.5 765.5M523.3 305.2L527.8 300.1M523.3 305.2L527.8 300.1M458.9 207.7L470.6 199.5M739.3 637.1L739.9 634.5M652.5 582.4L654.7 569.0M660.1 554.0L666.0 557.2M648.2 539.9L658.2 548.4M756.5 530.8L754.2 520.4M754.2 520.4L767.0 508.6M649.0 703.7L670.0 729.1M668.5 739.7L670.0 729.1M670.2 747.1L668.5 739.7M641.4 728.8L646.8 724.2M641.4 728.8L646.8 724.2M641.4 728.8L646.8 724.2M646.8 724.2L655.2 733.4M655.2 733.4L654.7 734.5M654.7 734.5L657.1 737.2M657.1 737.2L658.7 744.8M658.7 744.8L657.2 745.1M649.3 748.4L659.3 752.1M659.3 752.1L673.7 763.0M664.7 779.8L665.9 781.0M665.9 781.0L673.7 763.0M638.7 751.0L649.3 748.4M540.9 97.6L551.8 102.0M521.3 99.3L540.9 97.6M526.8 88.3L536.3 92.4M536.3 92.4L540.9 97.6M521.3 99.3L525.1 101.4M521.3 99.3L525.1 101.4M522.4 86.3L521.3 99.3M526.8 88.3L536.8 77.7M522.4 86.3L526.8 88.3M521.1 82.0L522.0 80.7M522.0 80.7L527.3 77.3M522.4 86.3L536.8 77.7M518.1 88.2L522.4 86.3M498.5 107.1L518.1 88.2M521.1 82.0L522.4 86.3M568.0 96.1L572.8 97.9M565.8 103.0L572.8 97.9M554.4 102.4L565.8 103.0M586.8 114.9L590.0 111.7M590.0 111.7L592.3 138.8M590.0 111.7L602.6 144.7M551.8 102.0L590.0 111.7M590.0 111.7L594.4 108.1M572.8 97.9L594.4 108.1M559.0 237.7L597.5 215.7M559.0 237.7L590.5 232.3M413.2 751.7L417.6 734.0M368.2 767.8L413.2 751.7M413.2 751.7L424.0 764.5M413.2 751.7L424.0 764.5M422.3 776.6L424.6 774.8M426.7 769.0L429.6 768.3M414.7 770.1L422.3 776.6M413.2 751.7L414.7 770.1M527.3 77.3L531.0 69.8M540.4 60.5L543.2 61.3M540.4 60.5L541.5 57.1M540.4 60.5L541.5 57.1M534.0 64.1L536.2 64.7M534.0 64.1L536.2 64.7M539.5 65.9L540.7 64.6M539.5 65.9L540.7 64.6M535.9 70.1L539.5 69.4M535.9 70.1L539.5 69.4M539.5 65.9L545.6 61.6M539.5 65.9L545.6 61.6M536.8 77.7L541.4 72.9M541.4 72.9L539.5 69.4M539.5 69.4L539.5 65.9M539.5 69.4L539.5 65.9M539.5 65.9L540.4 60.5M539.5 65.9L540.4 60.5M523.2 69.9L540.4 60.5M534.0 64.1L540.4 60.5M523.2 69.9L534.0 64.1M531.0 69.8L534.0 64.1M520.7 80.2L521.1 82.0M520.7 80.2L521.1 82.0M523.2 69.9L524.6 63.7M523.2 69.9L524.6 63.7M534.6 78.3L536.8 77.7M534.6 78.3L536.8 77.7M743.8 419.3L758.8 451.2M728.3 466.4L743.8 419.3M738.3 415.9L743.8 419.3M743.8 419.3L781.3 407.9M734.8 415.7L738.3 415.9M734.8 415.7L738.3 415.9M467.9 261.7L473.8 261.5M460.5 263.4L467.9 261.7M460.5 263.4L467.9 261.7M454.0 258.4L460.5 263.4M559.7 202.2L560.9 201.4M553.2 203.3L563.9 204.6M597.5 215.7L599.4 213.2M597.5 215.7L599.4 213.2M605.1 212.0L614.7 216.8M605.1 212.0L614.7 216.8M737.5 694.4L738.7 690.1M738.9 253.8L744.0 264.3M779.9 226.9L794.4 219.7M794.4 219.7L805.2 231.1M805.2 231.1L807.5 230.2M146.9 376.4L195.3 409.0M181.7 408.8L195.3 409.0M195.3 409.0L200.2 416.1M179.6 413.5L181.7 408.8M656.6 785.9L664.7 779.8M656.6 785.9L656.7 784.5M656.6 785.9L656.7 784.5M656.6 785.9L661.1 780.9M656.6 785.9L661.1 780.9M655.6 785.2L656.6 785.9M655.6 785.2L656.6 785.9M651.2 163.5L653.1 162.3M651.2 163.5L653.1 162.3M649.1 161.9L653.1 162.3M649.1 161.9L653.1 162.3M450.1 863.7L452.4 858.7M568.7 361.6L572.7 361.7M572.7 361.7L581.7 356.4M572.7 361.7L581.7 356.4M708.5 270.1L729.0 271.8M661.1 780.9L667.9 794.7M666.4 787.1L667.3 785.8M667.3 785.8L668.5 790.1M661.1 780.9L668.5 790.1M668.5 790.1L690.9 788.9M667.9 794.7L668.5 790.1M618.7 599.6L624.7 594.8M621.0 583.6L626.9 593.1M624.7 594.8L626.9 593.1M621.0 583.6L626.9 593.1M615.2 566.9L621.0 583.6M321.2 419.3L359.1 449.7M359.1 449.7L367.5 457.9M332.9 568.6L334.4 570.1M200.4 464.0L238.4 464.7M477.4 245.2L482.8 251.1M449.2 35.4L446.6 39.4M449.2 35.4L446.6 39.4M449.2 35.4L446.6 39.4M488.5 263.4L488.7 266.2M488.5 263.4L488.7 266.2M487.9 258.0L488.1 260.8M653.2 608.0L655.6 605.3M270.2 544.1L286.9 565.0M286.9 565.0L284.8 572.5M592.4 673.7L598.3 687.1M575.5 640.0L580.2 657.4M580.2 657.4L592.4 673.7M575.5 640.0L580.2 657.4M580.2 657.4L614.8 665.8M704.4 605.9L705.9 606.2M665.9 256.4L666.8 273.4M640.8 269.0L665.9 256.4M744.4 212.7L746.0 211.8M746.0 211.8L746.7 210.7M743.7 209.0L746.7 210.7M735.4 218.1L743.7 209.0M519.9 306.6L523.3 305.2M519.9 306.6L523.3 305.2M723.7 534.2L722.3 531.4M821.6 759.8L823.9 756.1M44.2 294.6L52.7 289.2M521.9 853.8L526.3 854.7M520.5 849.2L519.5 855.1M520.5 849.2L519.5 855.1M520.5 849.2L521.9 853.8M726.6 612.0L729.0 611.9M726.6 612.0L729.0 611.9M655.2 733.4L657.6 733.7M343.9 190.4L345.9 191.3M343.1 189.0L343.9 190.4M343.1 189.0L343.9 190.4M186.3 399.4L191.7 407.0M191.7 407.0L200.2 416.1M191.7 407.0L200.2 416.1M470.6 199.5L477.5 203.0M259.5 346.2L274.7 337.1M553.6 172.2L576.4 156.0M576.4 156.0L592.3 138.8M766.9 775.7L772.1 801.0M766.9 775.7L772.1 801.0M568.0 96.1L569.7 93.0M554.4 102.4L568.0 96.1M475.9 266.3L477.4 268.9M473.5 267.9L477.4 268.9M152.1 427.1L191.7 407.0M191.7 407.0L152.1 427.1M473.2 736.7L499.3 731.1M499.3 731.1L518.3 727.5M498.9 255.1L498.9 254.0M498.9 255.1L498.9 254.0M498.9 255.1L498.9 254.0M493.5 251.0L496.2 251.9M496.2 251.9L498.0 253.3M498.0 253.3L498.9 254.0M654.7 569.0L656.4 568.1M481.6 227.6L490.8 237.7M296.3 510.9L283.5 530.9M296.3 510.9L318.8 520.0M289.9 788.0L299.0 796.4M252.6 523.6L279.8 542.1M477.2 272.0L481.8 261.9M481.4 260.8L481.8 261.9M477.2 272.0L481.8 261.9M480.5 263.5L482.0 257.4M477.2 272.0L480.5 263.5M480.5 263.5L482.0 257.4M477.2 272.0L480.5 263.5M480.5 263.5L482.0 257.4M477.2 272.0L481.4 260.8M481.4 260.8L482.0 257.4M488.8 249.2L490.2 247.4M486.7 247.8L488.8 249.2M486.0 249.4L486.7 247.8M517.2 729.7L580.5 737.5M517.7 757.7L517.2 729.7M518.3 727.5L517.2 729.7M518.3 727.5L517.2 729.7M479.2 681.2L517.2 729.7M662.3 638.2L665.5 636.9M752.7 688.0L772.5 657.4M743.9 677.7L769.2 677.5M539.7 563.1L544.8 559.4M395.7 203.8L396.6 201.9M722.7 781.8L732.7 811.0M340.6 188.8L347.0 182.8M347.0 182.8L346.6 146.2M346.6 146.2L347.0 182.8M299.1 506.8L314.2 525.4M314.2 525.4L334.4 570.1M653.0 604.5L655.6 605.3M517.7 757.7L529.7 758.2M477.2 33.6L481.6 33.6M481.6 33.6L482.7 28.1M488.4 799.2L490.2 806.1M490.2 806.1L508.2 805.5M665.9 256.4L683.1 243.0M683.1 243.0L684.0 242.1M104.2 360.0L121.9 365.2M538.0 96.5L540.9 97.6M538.0 96.5L540.9 97.6M490.9 253.7L492.6 255.7M658.2 548.4L666.0 557.2M294.8 193.0L309.4 217.8M309.4 217.8L294.8 193.0M655.0 626.9L662.3 638.2M493.7 215.0L499.9 191.8M499.9 191.8L494.4 190.1M512.7 172.5L518.0 168.0M348.4 190.8L362.4 188.5M362.4 188.5L365.7 190.1M660.6 568.4L662.6 565.1M660.6 568.4L662.7 572.4M475.0 26.9L477.3 35.0M477.3 35.0L475.0 26.9M407.8 116.9L413.5 137.4M521.3 99.3L533.3 98.0M156.9 255.7L162.3 290.8M530.3 807.4L546.3 791.5M546.3 791.5L549.1 793.0M546.3 791.5L549.1 793.0M851.4 260.8L854.7 258.6M851.4 260.8L854.7 258.6M708.5 270.1L736.1 245.2M558.1 117.4L565.8 103.0M430.1 766.5L441.3 769.7M429.6 768.3L430.1 766.5M714.3 620.2L712.4 627.8M660.1 554.0L660.3 552.4M181.7 408.8L183.8 412.0M646.8 724.2L647.5 718.0M765.0 572.1L763.9 565.1M500.3 239.4L500.2 242.4M500.2 242.4L502.9 239.1M629.7 463.4L630.7 467.0M498.6 245.9L500.2 242.4M656.8 783.2L661.1 780.9M656.6 785.9L658.0 787.7M458.5 521.7L476.6 545.4M476.6 545.4L488.0 599.6M693.8 436.7L697.0 432.8M748.5 233.7L749.0 224.4M744.6 215.4L750.8 220.4M517.0 252.4L517.9 255.3M490.9 253.7L493.2 253.4M226.7 776.4L230.8 780.7M519.9 306.6L523.3 305.2M519.9 306.6L523.3 305.2M523.3 305.2L530.4 303.2M340.9 350.2L344.1 351.3M340.9 350.2L344.1 351.3M209.7 329.3L213.0 331.6M209.7 329.3L213.0 331.6M448.1 353.8L451.5 331.6M448.1 353.8L451.5 331.6M440.6 495.0L504.7 509.6M321.2 419.3L338.0 417.7M296.1 394.1L321.2 419.3M296.1 394.1L321.2 419.3M296.1 394.1L321.2 419.3M228.1 424.4L264.5 415.9M712.4 627.8L718.6 648.8M712.4 627.8L716.8 629.3M725.0 653.3L716.8 629.3M714.3 620.2L714.5 618.6M704.1 521.4L723.7 534.2M698.2 520.8L704.1 521.4M647.1 407.8L671.0 407.4M544.8 559.4L548.0 557.2M544.8 559.4L548.0 557.2M549.5 568.1L548.0 557.2M513.1 658.3L531.7 647.9M548.7 584.0L575.5 640.0M761.9 570.7L765.0 572.1M738.3 415.9L781.3 407.9M738.3 415.9L781.3 407.9M728.3 466.4L743.8 453.3M293.6 395.4L296.1 394.1M274.7 337.1L291.1 267.2M274.7 337.1L293.1 388.4M293.1 388.4L296.1 394.1M190.8 279.4L209.7 329.3M190.8 279.4L241.3 283.1M162.3 290.8L190.8 279.4M241.3 283.1L291.1 267.2M66.6 306.3L112.3 297.0M112.3 297.0L98.1 268.5M140.9 292.4L162.3 290.8M133.1 296.0L140.9 292.4M98.1 268.5L127.6 296.5M127.6 296.5L133.1 296.0M133.1 296.0L140.9 292.4M723.7 534.2L741.2 536.9M741.2 536.9L756.5 530.8M756.5 530.8L772.6 533.1M501.3 370.1L497.1 371.0M501.3 370.1L497.1 371.0M427.5 548.1L450.5 560.1M427.5 548.1L440.6 495.0M320.0 460.0L355.1 482.2M320.0 460.0L326.1 462.7M355.1 482.2L373.2 492.8M355.1 482.2L373.2 492.8M712.4 627.8L717.9 622.7M712.4 627.8L717.9 622.7M305.5 225.8L310.9 231.4M305.5 225.8L310.9 231.4M291.1 267.2L305.5 225.8M41.6 295.5L44.2 294.6M41.6 295.5L44.2 294.6M44.2 294.6L45.3 298.9M45.3 298.9L45.8 300.7M45.8 300.7L54.0 340.6M44.2 294.6L66.6 306.3M66.3 288.8L66.6 306.3M104.2 360.0L107.4 353.8M54.0 340.6L64.9 352.9M64.9 352.9L104.2 360.0M54.0 340.6L104.2 360.0M24.0 299.1L44.2 294.6M24.0 299.1L41.6 295.5M482.7 25.6L482.7 28.1M446.6 39.4L459.9 39.7M439.4 62.0L456.4 48.9M456.4 48.9L459.9 39.7M439.4 62.0L446.6 39.4M666.0 557.2L723.7 534.2M745.7 377.3L781.3 407.9M787.1 400.5L792.0 391.9M686.5 350.0L714.9 366.5M714.9 366.5L745.7 377.3M719.3 208.3L750.8 220.4M688.7 784.5L688.8 786.4M732.7 811.0L738.2 801.6M732.7 811.0L738.2 801.6M688.7 784.5L688.8 786.4M673.7 763.0L692.9 761.2M673.7 763.0L674.7 766.8M475.8 613.1L488.0 599.6M475.8 613.1L488.0 599.6M488.0 599.6L497.6 597.8M488.0 599.6L497.6 597.8M719.4 752.7L723.3 746.4M719.4 752.7L729.5 739.8M719.4 752.7L734.8 725.4M738.7 690.1L743.9 677.7M724.7 763.6L724.3 755.0M724.3 755.0L729.5 739.8M733.2 719.4L737.3 719.3M737.3 719.3L734.8 725.4M729.3 712.3L734.8 708.9M734.8 708.9L752.7 688.0M729.3 712.3L734.8 708.9M734.8 708.9L729.5 739.8M488.0 599.6L513.1 658.3M488.0 599.6L513.1 658.3M513.1 658.3L513.9 653.8M745.3 752.2L778.5 752.3M778.5 752.3L815.0 758.8M815.0 758.8L815.1 748.3M815.0 758.8L815.1 748.3M665.5 636.9L663.4 637.6M647.2 685.6L650.1 700.5M647.2 685.6L649.0 703.7M647.2 685.6L652.8 668.5M662.0 645.3L663.4 645.5M663.4 645.5L663.4 637.6M663.4 637.6L662.3 638.2M661.2 653.7L662.2 654.0M652.8 668.5L658.8 665.3M658.8 665.3L663.2 666.1M725.0 653.3L739.3 637.1M725.0 653.3L728.4 655.0M711.8 642.1L713.3 640.9M711.8 642.1L713.3 640.9M711.8 642.1L713.3 640.9M711.8 642.1L713.3 640.9M711.8 642.1L712.4 627.8M648.2 539.9L660.0 535.8M748.5 233.7L754.3 232.1M766.9 775.7L784.2 785.1M766.9 775.7L784.2 785.1M536.8 77.7L551.8 102.0M521.8 157.4L528.8 169.7M758.9 610.2L760.0 611.4M766.9 617.3L774.2 620.3M774.2 620.3L785.4 616.6M666.0 557.2L684.6 558.2M765.0 572.1L762.4 576.7M758.9 610.2L763.5 579.4M763.5 579.4L765.0 572.1M104.2 360.0L146.9 376.4M200.2 416.1L205.2 406.9M186.3 399.4L200.2 416.1M448.1 353.8L451.5 331.6M440.6 495.0L479.5 430.6M230.8 780.7L270.8 730.2M270.8 730.2L269.4 747.7M269.4 747.7L289.9 788.0M270.8 730.2L289.9 788.0M340.6 188.8L347.0 182.8M347.0 182.8L384.1 192.5M340.6 188.8L348.4 190.8M365.7 190.1L378.0 202.0M516.3 286.5L523.3 305.2M483.0 215.6L493.7 215.0M483.0 215.6L493.7 215.0M508.2 253.1L510.3 252.0M750.8 220.4L779.9 226.9M724.7 763.6L766.9 775.7M670.2 747.1L673.7 763.0M638.7 751.0L642.8 748.9M638.7 751.0L642.8 748.9M636.7 747.0L638.7 751.0M636.7 747.0L638.7 751.0M723.7 534.2L723.9 551.8M772.6 533.1L798.9 535.9M783.7 549.1L788.2 577.8M772.6 533.1L783.7 549.1M477.2 272.0L482.8 268.7M477.2 272.0L488.5 263.4M477.2 272.0L488.5 263.4M551.8 102.0L554.4 102.4M551.8 102.0L554.4 102.4M551.8 102.0L554.4 102.4M655.6 605.3L659.0 615.5M659.0 615.5L662.3 638.2M652.5 582.4L662.7 572.4M652.5 582.4L662.7 572.4M662.7 572.4L666.0 557.2M655.6 605.3L662.7 572.4M655.6 605.3L662.0 587.3M662.0 587.3L662.7 572.4M762.4 576.7L767.7 587.8M765.0 572.1L772.1 589.9M767.7 587.8L772.1 589.9M765.0 572.1L788.2 577.8M772.1 589.9L788.2 577.8M788.2 577.8L797.2 589.0M662.7 572.4L668.7 564.0M662.7 572.4L684.6 558.2M666.0 557.2L668.7 564.0M704.4 605.9L712.4 627.8M662.7 572.4L704.4 605.9M708.3 581.3L711.3 580.0M711.3 580.0L727.9 580.6M727.9 580.6L737.0 589.6M666.9 417.2L697.0 432.8M647.1 407.8L671.0 407.4M647.1 407.8L666.9 417.2M681.1 518.2L698.2 520.8M681.1 518.2L711.2 502.4M711.2 502.4L723.7 534.2M697.0 432.8L704.9 473.0M704.9 473.0L711.2 502.4M645.2 477.7L657.5 466.0M645.2 477.7L657.5 466.0M657.5 466.0L697.0 432.8M640.7 483.6L645.2 477.7M604.4 481.1L630.7 467.0M815.0 758.8L816.3 762.7M815.0 758.8L816.3 762.7M815.0 758.8L819.3 760.4M815.0 758.8L823.9 756.1M815.1 748.3L823.9 756.1M815.1 748.3L823.9 756.1M823.9 756.1L835.5 749.8M602.9 315.7L608.5 304.5M602.9 315.7L629.4 357.5M629.4 357.5L636.8 386.2M636.8 386.2L647.1 407.8M488.5 263.4L491.9 262.2M494.0 265.4L506.2 260.8M523.3 305.2L550.4 332.7M550.4 332.7L581.7 356.4M581.7 356.4L592.4 360.4M592.4 360.4L595.8 362.5M595.8 362.5L605.1 375.7M581.7 356.4L598.2 358.2M598.2 358.2L599.9 357.2M581.7 356.4L587.8 350.7M581.7 356.4L587.8 350.7M605.1 375.7L647.1 407.8M624.7 594.8L626.6 597.7M626.6 597.7L632.5 595.0M632.5 595.0L646.9 587.6M591.4 378.6L595.8 362.5M510.3 252.0L517.0 252.4M517.9 255.3L539.0 261.8M479.2 681.2L513.1 658.3M450.5 560.1L475.8 613.1M440.6 495.0L488.0 599.6M440.6 495.0L458.5 521.7M510.4 318.5L523.3 305.2M510.4 318.5L510.5 341.7M510.5 341.7L512.3 342.9M543.7 444.8L575.5 408.3M537.3 439.4L538.4 439.3M538.4 439.3L543.7 444.8M575.5 408.3L593.8 393.0M591.4 378.6L593.8 393.0M531.5 563.7L536.0 551.6M536.0 551.6L552.6 516.5M563.5 525.4L603.0 535.2M552.6 516.5L556.0 488.4M519.4 511.0L552.6 516.5M504.7 509.6L519.4 511.0M531.5 563.7L548.7 584.0M252.6 523.6L270.2 544.1M288.6 637.0L334.4 570.1M313.6 617.9L334.4 570.1M334.4 570.1L374.8 623.7M238.4 464.7L244.8 434.9M232.8 478.7L238.4 464.7M291.7 517.5L299.1 506.8M291.7 517.5L296.3 510.9M291.7 517.5L296.3 510.9M292.7 547.9L292.1 548.7M292.1 548.7L334.4 570.1M252.6 523.6L291.7 517.5M232.8 478.7L252.6 523.6M264.5 415.9L271.1 414.1M267.4 436.7L284.0 467.1M244.8 434.9L267.4 436.7M200.4 464.0L238.4 464.7M267.4 436.7L321.2 419.3M284.0 467.1L299.1 506.8M486.7 247.8L490.8 237.7M486.7 247.8L490.8 237.7M488.5 263.4L494.0 265.4M491.9 262.2L494.0 265.4M575.5 640.0L585.7 633.1M384.7 688.8L417.6 734.0M580.5 737.5L611.2 719.4M611.2 719.4L641.4 728.8M611.2 719.4L641.4 728.8M622.5 702.7L646.4 706.8M646.4 706.8L649.0 703.7M646.4 706.8L649.0 703.7M650.1 700.5L649.0 703.7M371.5 652.3L384.7 688.8M371.5 652.3L374.8 623.7M513.1 658.3L533.8 627.6M550.6 657.4L575.5 640.0M575.5 640.0L610.4 614.0M270.2 544.1L279.8 542.1M279.8 542.1L291.7 517.5M284.7 611.7L288.6 637.0M299.2 633.4L313.6 617.9M384.9 720.2L417.6 734.0M366.6 710.9L384.9 720.2M299.2 633.4L312.7 655.3M312.7 655.3L322.5 664.8M338.0 680.3L338.9 678.8M338.9 678.8L366.6 710.9M461.1 741.2L473.2 736.7M502.2 744.2L518.3 727.5M441.3 769.7L480.5 765.0M480.5 765.0L480.9 767.7M441.3 769.7L461.1 741.2M475.0 26.9L477.3 35.0M475.0 26.9L477.3 35.0M477.3 35.0L475.0 26.9M564.1 789.8L579.3 784.3M546.3 791.5L564.1 789.8M519.4 767.4L527.5 772.7M527.5 772.7L546.3 791.5M508.2 805.5L546.3 791.5M508.2 805.5L530.3 807.4M490.2 806.1L508.2 805.5M580.0 769.4L589.0 771.7M580.0 769.4L589.0 771.7M580.0 769.4L589.0 771.7M579.3 784.3L589.0 771.7M562.5 769.3L580.0 769.4M562.5 769.3L580.0 769.4M654.2 654.3L662.3 638.2M658.3 641.2L662.3 638.2M614.8 665.8L624.5 677.9M624.5 677.9L647.2 685.6M366.1 266.6L445.0 244.8M340.9 350.2L344.1 351.3M325.5 265.0L366.1 266.6M291.1 267.2L325.5 265.0M341.7 218.3L378.0 202.0M341.7 218.3L378.0 202.0M378.0 202.0L388.2 211.0M366.1 266.6L383.7 236.7M335.6 304.3L353.9 310.2M353.9 310.2L357.6 310.6M357.6 310.6L366.1 266.6M355.1 482.2L367.5 457.9M367.5 457.9L440.6 495.0M464.4 623.0L465.5 622.7M465.5 622.7L474.5 616.2M474.5 616.2L476.3 615.3M476.3 615.3L475.8 613.1M504.9 695.8L512.5 691.9M512.5 691.9L513.1 658.3M427.7 645.5L460.4 640.6M427.7 645.5L431.5 616.9M520.5 548.5L536.0 551.6M717.9 757.3L719.4 752.7M209.7 329.3L216.6 328.2M216.6 328.2L219.6 328.9M219.6 328.9L220.9 330.1M220.9 330.1L220.7 334.0M124.9 322.2L133.1 296.0M258.2 340.9L259.5 346.2M344.1 351.3L377.8 350.6M436.5 423.5L479.5 430.6M440.6 495.0L445.3 461.2M445.3 461.2L460.8 440.0M460.8 440.0L479.5 430.6M459.0 363.1L479.5 430.6M440.6 495.0L445.1 413.3M792.1 772.8L799.5 774.3M784.2 785.1L792.1 772.8M422.3 776.6L441.3 769.7M429.6 768.3L441.3 769.7M422.3 776.6L439.5 814.5M422.3 776.6L436.6 839.4M436.6 839.4L439.5 814.5M289.9 788.0L329.2 842.2M329.2 842.2L355.0 815.2M355.0 815.2L364.5 812.0M355.0 815.2L364.5 812.0M355.0 815.2L364.5 812.0M364.5 812.0L368.2 767.8M413.2 751.7L417.6 734.0M230.8 780.7L231.0 789.1M230.8 780.7L231.0 789.1M270.8 730.2L293.3 745.5M270.8 730.2L293.3 745.5M331.1 804.8L355.0 815.2M289.9 788.0L299.4 827.1M289.9 788.0L299.0 796.4M439.4 62.0L445.0 87.7M445.0 87.7L461.6 110.9M461.6 110.9L479.5 144.5M482.7 28.1L483.7 25.4M482.7 28.1L483.7 25.4M480.6 26.0L482.7 28.1M480.6 26.0L482.7 28.1M495.2 24.0L492.8 28.6M482.7 28.1L492.8 28.6M492.8 28.6L489.7 26.3M482.7 28.1L483.8 30.5M482.7 28.1L483.8 30.5M478.2 45.5L482.7 28.1M477.3 35.0L482.7 28.1M477.3 35.0L482.7 28.1M478.2 45.5L479.3 56.9M478.2 45.5L479.3 56.9M477.0 46.1L478.2 45.5M527.3 77.3L536.8 77.7M512.1 65.5L523.2 69.9M512.1 65.5L523.2 69.9M509.9 68.0L512.1 65.5M498.0 70.3L512.1 65.5M496.0 69.8L498.0 70.3M496.0 69.8L498.0 70.3M528.8 169.7L553.6 172.2M528.8 169.7L553.6 172.2M528.8 169.7L553.6 172.2M479.5 144.5L481.0 150.8M479.5 144.5L481.0 150.8M483.7 145.1L486.0 128.1M486.0 128.1L498.5 107.1M479.5 144.5L483.7 145.1M479.5 144.5L483.7 145.1M431.6 135.2L479.5 144.5M449.2 159.9L448.8 156.6M448.8 156.6L452.4 132.1M449.2 159.9L479.5 144.5M590.5 232.3L614.7 216.8M553.6 172.2L563.9 204.6M563.9 204.6L578.5 222.9M578.5 222.9L597.5 215.7M597.5 215.7L614.7 216.8M597.5 215.7L614.7 216.8M608.5 304.5L640.8 269.0M614.7 216.8L622.4 232.1M622.4 232.1L627.7 234.6M622.3 240.7L625.3 238.8M625.3 238.8L633.9 256.7M633.9 256.7L665.9 256.4M519.8 153.3L521.8 157.4M519.8 153.3L528.8 169.7M518.0 168.0L521.8 157.4M518.0 168.0L528.8 169.7M731.3 323.0L756.3 308.9M476.6 274.9L477.2 272.0M516.3 286.5L523.3 305.2M516.3 286.5L523.3 305.2M489.4 221.2L492.1 216.0M492.1 216.0L493.7 215.0M489.4 221.2L489.5 228.9M489.5 228.9L490.8 237.7M488.2 229.9L489.5 228.9M490.8 237.7L499.6 230.7M499.6 230.7L509.5 207.9M520.8 195.1L528.8 169.7M509.5 207.9L520.8 195.1M493.7 215.0L509.5 207.9M460.0 260.1L460.5 263.4M456.7 240.9L464.7 243.6M445.0 244.8L464.7 243.6M445.0 244.8L456.7 240.9M445.0 244.8L449.6 244.9M445.0 244.8L449.6 244.9M445.0 244.8L449.6 244.9M449.6 244.9L467.3 237.6M449.6 244.9L464.7 234.5M464.7 234.5L467.3 237.6M750.5 276.2L765.5 255.7M765.5 255.7L773.2 243.8M773.2 243.8L779.9 226.9M750.5 276.2L752.4 277.5M808.7 330.6L810.2 329.7M793.6 303.8L780.5 317.0M780.5 317.0L799.6 323.6M551.8 102.0L556.1 126.9M554.9 152.4L556.1 126.9M553.6 172.2L554.9 152.4M743.7 209.0L746.7 210.7M746.7 210.7L750.8 220.4M743.7 209.0L746.2 208.5M746.2 208.5L750.8 220.4M748.5 233.7L749.0 224.4M749.0 224.4L750.8 220.4M749.0 224.4L750.8 220.4M729.0 271.8L750.5 276.2M729.0 271.8L738.9 253.8M736.1 245.2L738.9 253.8M736.1 245.2L738.9 253.8M736.1 245.2L736.4 243.6M736.1 245.2L736.4 243.6M684.0 242.1L736.1 245.2M718.4 184.0L718.3 191.4M643.4 144.0L653.1 162.3M643.4 144.0L653.1 162.3M653.1 162.3L680.5 187.3M719.3 208.3L718.3 191.4M680.5 187.3L693.0 194.9M693.0 194.9L719.3 208.3M719.3 208.3L735.4 218.1M643.4 144.0L646.3 149.8M646.3 149.8L654.2 124.3M781.3 407.9L787.1 400.5M789.7 382.4L835.1 380.3M789.7 382.4L792.0 391.9M788.5 386.7L792.0 391.9M781.3 407.9L788.5 386.7M835.1 380.3L839.3 378.8M839.3 378.8L837.5 365.1M837.5 365.1L837.9 361.1M837.9 361.1L837.6 352.8M837.9 361.1L837.6 352.8M819.7 367.3L835.1 380.3M819.7 367.3L835.1 380.3M819.7 367.3L828.2 365.6M828.2 365.6L837.5 365.1M810.2 361.7L819.7 367.3M840.0 306.5L842.1 326.7M841.1 340.4L842.1 326.7M841.1 340.4L842.1 326.7M840.5 337.4L841.1 340.4M840.5 337.4L841.1 340.4M837.6 352.8L841.1 340.4M817.6 352.5L824.6 331.8M817.6 352.5L841.1 340.4M554.4 102.4L568.0 96.1M610.4 614.0L626.6 597.7M585.7 633.1L626.6 597.7M483.2 283.0L481.7 280.5M481.7 280.5L487.5 278.5M483.2 283.0L486.3 283.7M483.2 283.0L486.3 283.7M486.3 283.7L492.9 281.9M486.3 283.7L492.9 281.9M486.3 283.7L492.9 281.9M473.5 267.9L473.8 261.5M475.9 266.3L477.2 272.0M473.5 267.9L475.9 266.3M460.5 263.4L467.3 269.0M467.3 269.0L468.8 268.9M468.8 268.9L470.3 269.5M470.3 269.5L473.5 267.9M486.3 283.7L497.1 287.2M497.1 287.2L503.7 289.8M492.9 281.9L495.6 284.6M492.9 281.9L495.6 284.6M491.9 262.2L506.2 260.8M491.9 262.2L506.2 260.8M500.7 261.0L506.2 260.8M500.7 261.0L506.2 260.8M514.7 284.4L516.3 286.5M513.0 272.2L514.7 284.4M491.4 239.0L490.8 237.7M491.4 239.0L490.8 237.7M107.4 353.8L124.9 322.2M848.6 288.4L851.8 276.6M842.1 326.7L848.6 288.4M840.0 306.5L848.6 288.4M848.0 313.5L851.4 301.3M837.6 277.4L841.2 276.7M841.2 276.7L851.4 260.8M837.6 277.4L851.8 276.6M837.6 277.4L843.3 276.3M843.3 276.3L851.8 276.6M837.6 277.4L848.6 288.4M851.4 260.8L851.8 276.6M493.2 253.4L497.3 254.9M864.0 272.6L876.0 250.6M851.4 260.8L864.0 272.6M848.6 288.4L856.2 285.7M856.2 285.7L856.4 288.9M842.1 326.7L842.4 325.0M842.4 325.0L848.0 313.5M492.1 248.8L493.5 246.9M493.5 246.9L500.2 242.4M506.5 243.6L510.3 252.0M500.2 242.4L506.5 243.6M500.2 242.4L510.3 252.0M490.8 237.7L493.7 239.2M490.8 237.7L499.3 241.8M499.3 241.8L501.3 241.4M501.3 241.4L500.2 242.4M498.6 245.9L500.2 242.4M492.1 248.8L498.6 245.9M492.1 248.8L493.5 251.0M493.2 253.4L493.5 251.0M489.4 251.4L493.5 251.0M489.3 253.0L493.5 251.0M497.3 254.9L498.9 254.0M493.5 251.0L506.9 251.2M506.9 251.2L510.3 252.0M493.5 251.0L506.9 251.2M506.9 251.2L510.3 252.0M487.2 256.4L487.9 258.0M487.2 256.4L487.9 258.0M488.1 260.8L491.9 262.2M488.1 260.8L488.5 263.4M487.9 258.0L488.1 260.8M486.6 258.2L488.1 260.8M486.0 260.1L486.6 258.2M486.0 260.1L488.1 260.8M488.1 260.8L488.5 263.4M486.0 260.1L488.1 260.8M727.3 813.5L732.7 811.0M727.3 813.5L738.2 801.6M715.9 802.4L727.3 813.5M699.5 795.9L715.9 802.4M699.5 795.9L699.8 782.4M699.5 795.9L699.8 782.4M690.9 788.9L699.8 782.4M690.9 788.9L699.8 782.4M688.8 786.4L690.9 788.9M688.8 786.4L690.9 788.9M661.1 780.9L667.3 785.8M667.3 785.8L665.9 781.0M665.9 781.0L671.7 776.6M680.1 779.0L681.6 778.5M680.1 779.0L681.6 778.5M673.7 763.0L681.6 778.5M671.7 776.6L681.6 778.5M681.6 778.5L691.0 780.6M688.8 786.4L691.0 780.6M691.0 780.6L696.4 777.4M692.9 761.2L719.4 752.7M699.8 782.4L719.4 752.7M707.7 781.3L724.7 763.6M482.0 257.4L484.8 257.1M673.7 763.0L680.8 759.1M719.4 752.7L724.7 763.6M441.2 852.9L441.9 846.3M436.6 839.4L441.9 846.3M428.5 847.6L436.6 839.4M515.8 726.8L518.3 727.5M271.3 616.5L288.6 637.0M288.6 637.0L291.5 648.7M285.3 647.9L291.5 648.7M285.3 647.9L288.6 637.0M283.3 657.7L282.7 655.4M282.7 655.4L285.3 647.9M288.6 637.0L293.0 654.6M288.6 637.0L293.0 654.6M283.3 657.7L293.0 654.6M283.3 657.7L289.4 675.0M283.3 657.7L289.4 675.0M275.3 672.1L289.4 675.0M289.4 652.7L293.0 654.6M285.3 647.9L287.0 649.9M571.6 285.2L608.5 304.5M539.0 261.8L571.6 285.2M383.7 236.7L388.2 211.0M395.7 203.8L395.0 188.1M395.7 203.8L395.0 188.1M395.7 203.8L389.1 202.5M389.1 202.5L395.0 188.1M378.0 202.0L395.7 203.8M378.0 202.0L395.7 203.8M395.7 203.8L398.9 207.4M395.7 203.8L398.9 207.4M398.9 207.4L410.9 207.3M410.9 207.3L421.3 226.9M421.3 226.9L449.6 244.9M336.1 191.5L340.6 188.8M336.1 191.5L340.6 188.8M490.0 254.2L491.4 258.6M488.8 255.6L490.3 257.0M490.3 257.0L491.4 258.6M488.5 263.4L490.3 257.0M488.8 255.6L491.4 258.6M488.8 255.6L493.2 253.4M488.8 255.6L490.3 257.0M482.8 251.1L486.2 253.9M340.6 188.8L343.9 190.4M343.9 190.4L365.7 190.1M365.7 190.1L395.0 188.1M378.0 202.0L387.2 201.2M387.2 201.2L384.1 192.5M384.1 192.5L395.0 188.1M486.0 249.4L487.9 251.6M486.0 249.4L487.2 252.4M486.0 249.4L487.4 250.7M486.0 249.4L487.4 250.7M486.4 251.3L486.7 247.8M486.2 253.9L486.4 251.3M486.0 249.4L486.7 247.8M484.4 249.0L486.0 249.4M484.4 249.0L485.6 252.1M481.5 246.5L484.4 249.0M483.9 256.8L484.2 255.7M482.0 257.4L483.9 256.8M482.0 257.4L484.8 257.1M483.0 256.0L484.2 255.7M482.0 257.4L483.0 256.0M482.0 257.4L483.0 256.0M479.8 255.8L482.0 257.4M479.8 255.8L483.1 254.0M479.8 255.8L482.3 254.9M479.7 252.8L479.8 255.8M475.2 251.4L477.8 249.5M475.2 251.4L477.8 249.5M477.4 245.2L482.8 251.1M485.6 252.1L486.2 253.9M482.8 251.1L485.6 252.1M482.8 251.1L483.7 252.9M479.7 252.8L482.4 253.3M479.7 252.8L482.4 253.3M482.4 253.3L486.2 253.9M479.7 252.8L480.6 251.4M480.6 251.4L482.8 251.1M477.8 249.5L479.7 252.8M477.6 251.7L479.7 252.8M477.6 251.7L477.8 249.5M464.7 243.6L477.8 249.5M477.4 245.2L477.8 249.5M477.4 245.2L480.1 246.8M480.1 246.8L482.8 251.1M480.1 246.8L481.5 246.5M490.8 237.7L474.7 236.7M727.0 614.8L728.0 614.6M487.9 258.0L486.0 260.1M490.6 276.4L490.7 274.2M200.4 464.0L158.9 455.1M499.3 731.1L499.0 729.0M498.0 253.3L498.9 254.0M430.8 774.3L441.3 769.7M264.5 415.9L265.3 433.1M265.3 433.1L267.4 436.7M264.5 415.9L265.3 433.1M422.3 776.6L430.8 774.3M502.2 744.2L480.5 765.0M608.5 304.5L659.9 334.3M671.0 407.4L678.2 413.3M479.2 681.2L478.8 642.5M478.8 642.5L477.0 629.6M215.8 423.3L219.5 423.9M288.6 637.0L288.2 634.2M503.3 669.7L504.7 675.1M503.3 666.5L513.1 658.3M536.5 644.9L575.5 640.0M536.5 644.9L531.7 647.9M479.2 681.2L430.8 727.6M264.5 415.9L321.2 419.3M697.0 432.8L678.2 413.3M444.2 371.6L432.8 369.9M752.4 277.5L756.3 308.9M554.4 102.4L554.6 96.7M835.3 288.2L837.6 277.4M127.1 367.6L125.7 367.0M690.9 788.9L692.7 793.1M690.9 788.9L692.7 793.1M700.1 792.2L699.5 795.9M477.8 273.4L475.6 273.3M508.7 285.5L503.4 280.3M508.7 285.5L516.3 286.5M690.9 788.9L699.0 787.1M699.0 787.1L700.1 792.2M436.6 839.4L452.4 858.7M695.8 801.9L698.0 798.5M695.8 801.9L698.0 798.5M698.0 798.5L699.5 795.9M698.0 798.5L699.5 795.9M487.9 242.5L491.4 239.0M675.4 304.9L677.0 312.4M282.7 655.4L283.5 655.0M706.4 297.6L743.6 293.1M763.0 310.9L767.2 320.2M766.9 318.3L763.5 320.3M780.5 317.0L763.0 310.9M690.9 788.9L700.1 792.2M739.5 797.7L747.5 791.4M745.5 789.4L742.2 785.2M792.1 772.8L793.8 769.1M581.7 356.4L592.4 360.4M635.7 483.6L645.2 477.7M604.4 481.1L635.7 483.6M722.3 774.1L724.7 763.6M471.3 272.0L470.3 269.5M470.3 269.5L471.3 272.0M661.1 780.9L659.4 784.7M659.4 784.7L661.1 780.9M712.4 627.8L716.8 629.3M445.4 315.1L451.5 331.6M445.4 315.1L448.6 318.4M448.6 318.4L451.5 331.6M851.4 301.3L849.7 290.0M659.0 615.5L655.5 614.4M478.2 45.5L481.6 33.6M646.9 587.6L642.3 587.9M646.9 587.6L652.5 582.4M642.3 587.9L641.4 588.4M641.4 588.4L633.8 594.2M642.3 587.9L641.4 588.4M633.8 594.2L632.5 595.0M632.5 595.0L633.8 594.2M632.5 595.0L633.8 594.2M632.5 595.0L626.9 593.1M707.6 612.2L707.0 610.3M707.6 612.2L707.0 610.3M704.4 605.9L705.7 608.4M684.6 558.2L697.6 556.6M697.6 556.6L701.1 564.2M658.3 641.2L655.3 642.4M655.3 642.4L662.3 638.2M654.2 654.3L655.3 642.4M662.0 645.3L663.4 645.5M707.0 610.3L707.6 612.2M708.2 613.3L708.9 614.4M708.9 614.4L708.2 613.3M708.2 613.3L708.9 614.4M705.7 608.4L707.0 610.3M707.0 610.3L705.7 608.4M708.2 613.3L707.6 612.2M661.2 653.7L658.8 665.3M655.2 733.4L654.7 734.5M559.4 520.5L563.5 525.4M512.2 659.1L550.6 657.4M477.0 629.6L475.8 613.1M689.9 792.7L690.8 794.5M464.4 623.0L475.8 613.1M431.5 616.9L464.4 623.0M460.4 640.6L465.5 622.7M460.4 640.6L460.5 641.8M476.3 615.3L474.5 616.2M743.0 755.4L745.3 752.2M738.2 755.8L743.0 755.4M729.5 739.8L734.2 732.7M722.7 781.8L722.3 774.1M322.5 664.8L338.9 678.8M338.0 417.7L344.1 351.3M602.6 144.7L601.1 145.8M279.8 542.1L292.1 548.7M517.7 757.7L519.4 767.4M758.9 610.2L760.9 610.8M756.2 586.8L763.5 579.4M478.8 642.5L475.8 613.1M663.4 645.5L661.2 653.7M477.8 273.4L477.2 272.0M451.5 331.6L456.7 324.7M517.9 255.3L517.0 256.7M511.2 257.4L513.5 257.4M511.2 257.4L509.0 258.0M508.2 253.1L508.5 256.4M503.3 669.7L503.3 666.5M763.0 310.9L756.3 308.9M810.2 329.7L824.6 331.8M417.6 734.0L430.8 727.6M598.3 687.1L601.8 690.1M718.6 648.8L725.0 653.3M478.2 45.5L490.0 55.6M477.2 272.0L477.8 273.4M734.8 708.9L737.5 694.4M734.8 708.9L737.3 719.3M734.8 725.4L734.2 732.7M833.3 266.3L841.2 276.7M431.6 260.6L422.1 270.0M493.7 215.0L492.1 216.0M305.5 225.8L307.7 222.3M164.8 351.7L148.1 375.8M601.8 690.1L622.5 702.7M510.5 341.7L506.7 369.9M760.9 610.8L766.9 617.3M793.9 240.0L805.2 231.1M387.2 201.2L389.1 202.5M399.7 193.1L395.0 188.1M344.1 351.3L360.4 337.1M348.2 343.2L344.1 351.3M515.9 83.2L522.4 86.3M512.8 85.7L515.9 83.2M440.8 309.4L445.4 315.1M719.2 649.7L718.6 648.8M482.8 268.7L488.5 263.4M760.0 611.4L760.9 610.8M714.0 567.3L711.3 580.0M723.9 551.8L697.6 556.6M650.1 700.5L649.0 703.7M649.0 703.7L648.7 702.7M659.3 752.1L658.7 744.8M649.0 670.1L652.8 668.5M460.0 260.1L445.0 244.8M510.3 252.0L508.2 253.1M474.7 236.7L473.8 235.0M491.4 239.0L490.8 237.7M504.6 252.3L510.3 252.0M493.7 239.2L499.3 241.8M506.9 251.2L498.9 254.0M487.1 245.8L491.4 239.0M490.8 237.7L491.4 239.0M491.4 239.0L490.8 237.7M710.3 615.7L712.4 627.8M706.4 297.6L689.3 302.1M689.3 302.1L675.4 304.9M738.1 760.7L738.2 755.8M435.3 249.6L434.0 237.8M344.4 341.7L348.2 343.2M451.5 331.6L472.1 279.8M471.3 272.0L475.6 273.3M477.2 272.0L480.0 279.4M743.7 209.0L745.7 210.1M743.9 677.7L712.4 627.8M719.3 208.3L738.9 208.1M739.5 206.6L738.9 208.1M45.8 300.7L54.0 340.6M506.7 369.9L501.3 370.1M477.2 272.0L477.8 273.4M632.4 451.0L637.5 452.2M506.2 260.8L508.5 256.4M554.4 102.4L564.9 100.1M707.6 612.2L707.0 610.3M750.8 220.4L749.0 224.4M477.2 272.0L476.6 274.9M666.0 557.2L684.6 558.2M310.0 635.8L344.5 643.3M472.2 236.3L467.3 237.6M672.0 574.4L669.2 574.8M512.2 659.1L513.1 658.3M513.1 658.3L512.2 659.1M512.2 659.1L513.1 658.3M509.9 82.3L515.9 83.2M515.9 83.2L522.4 86.3M489.1 56.3L490.0 55.6M474.3 277.3L473.4 278.5M474.3 277.3L473.4 278.5M472.1 279.8L456.7 324.7M444.2 371.6L448.1 353.8M650.1 700.5L648.7 702.7M648.7 702.7L649.0 703.7M498.9 254.0L504.6 252.3M499.9 191.8L512.7 172.5M484.6 245.7L491.4 239.0M487.9 242.5L490.8 237.7M477.2 272.0L482.8 268.7M491.4 277.9L490.6 276.4M491.4 277.9L490.6 276.4M493.0 279.6L491.4 277.9M714.5 618.6L710.3 615.7M431.5 317.7L445.4 315.1M849.7 290.0L853.9 291.9M467.3 237.6L475.3 242.6M750.1 201.8L746.2 208.5M456.4 48.9L477.0 46.1M506.2 260.8L509.8 268.1M625.3 238.8L622.4 232.1M608.5 304.5L675.4 304.9M747.5 791.4L766.9 775.7M635.7 483.6L635.4 482.8M743.7 757.0L743.0 755.4M560.1 519.0L559.4 520.5M148.1 375.8L127.1 367.6M205.2 406.9L215.8 423.3M445.0 244.8L435.3 249.6M509.8 268.1L513.0 272.2M474.7 236.7L472.2 236.3M752.7 688.0L743.9 677.7M662.7 572.4L669.2 574.8M640.7 483.6L635.7 483.6M719.4 752.7L738.2 755.8M437.9 259.5L431.6 260.6M448.8 156.6L447.5 157.4M835.1 380.3L839.3 378.8M686.5 350.0L659.9 334.3M293.1 388.4L285.1 387.5M357.6 310.6L348.2 343.2M444.2 371.6L445.1 413.3M798.2 769.5L793.8 769.1M756.3 308.9L743.6 293.1M767.2 320.2L767.6 323.2M473.4 278.5L472.1 279.8M476.6 274.9L474.3 277.3M738.9 208.1L743.7 209.0M480.0 279.4L481.7 280.5M477.7 281.5L480.0 279.4M517.0 256.7L513.5 257.4M508.5 256.4L511.2 257.4M481.5 246.5L484.4 249.0M477.8 249.5L479.7 252.8M477.8 249.5L479.7 252.8M467.3 269.0L468.8 268.9M493.0 279.6L492.9 281.9M503.7 289.8L508.7 285.5M848.6 288.4L849.7 290.0M401.4 193.7L399.7 193.1M399.7 193.1L401.4 193.7M475.3 242.6L477.4 245.2M477.4 245.2L477.8 249.5M477.4 245.2L477.8 249.5M477.4 245.2L477.8 249.5M477.4 245.2L477.8 249.5M487.9 242.5L484.3 241.9M707.7 781.3L699.0 787.1M662.7 572.4L660.6 568.4M275.3 672.1L264.1 673.7M435.3 249.6L431.6 260.6M552.6 516.5L560.1 519.0M552.6 516.5L559.4 520.5M312.5 225.2L312.4 226.6M693.8 800.0L695.8 801.9M694.3 802.1L695.8 801.9M691.7 795.8L692.7 793.1M747.5 791.4L745.5 789.4M642.3 587.9L641.4 588.4M598.2 358.2L595.8 362.5M655.5 614.4L654.2 616.6M717.9 622.7L728.0 614.6M728.0 614.6L729.0 611.9M792.0 391.9L819.9 382.9M819.9 382.9L835.1 380.3M520.0 717.3L512.5 691.9M737.0 589.6L737.6 593.3M490.0 55.6L498.0 70.3M521.8 157.4L525.0 131.1M525.0 131.1L528.3 122.6M376.0 392.1L378.7 392.8M505.7 372.8L506.7 369.9M848.6 288.4L851.8 283.9M472.2 236.3L477.4 245.2M458.5 325.9L456.7 324.7M660.6 568.4L656.4 568.1M449.6 244.9L448.0 242.0M710.3 615.7L708.9 614.4M217.4 348.3L205.2 406.9M186.3 399.4L148.1 375.8M191.7 407.0L127.1 367.6M104.2 360.0L125.7 367.0" fill="none" stroke="#166a5a" stroke-width="1.2" stroke-opacity="0.7" stroke-linecap="round" stroke-linejoin="round"/><path d="M338.6 190.9L336.1 191.5M449.2 38.0L449.2 35.4M837.3 377.1L839.3 378.8M377.0 394.5L376.0 392.1M645.3 147.4L646.3 149.8M481.8 225.1L481.6 227.6M808.4 264.1L810.1 262.2M723.3 761.4L724.7 763.6M519.7 728.8L517.2 729.7M754.7 532.7L756.5 530.8M660.6 783.4L661.1 780.9M282.3 612.7L284.7 611.7M287.4 572.5L284.8 572.5M293.3 519.5L291.7 517.5M372.4 495.3L373.2 492.8M438.2 496.0L440.6 495.0M291.1 636.4L288.6 637.0M384.1 722.7L384.9 720.2M474.7 29.4L475.0 26.9M441.6 767.1L441.3 769.7M642.7 730.9L641.4 728.8M363.2 809.8L364.5 812.0M323.6 462.1L326.1 462.7M288.1 789.9L289.9 788.0M286.9 674.3L289.4 675.0M268.4 731.1L270.8 730.2M231.6 786.5L231.0 789.1M201.8 414.0L200.2 416.1M638.7 748.4L638.7 751.0M545.9 443.4L543.7 444.8M452.2 260.3L454.0 258.4M339.9 419.5L338.0 417.7M523.7 100.2L521.3 99.3M594.9 138.7L592.3 138.8M823.1 333.8L824.6 331.8M838.0 280.0L837.6 277.4M653.1 126.6L654.2 124.3M608.5 307.1L608.5 304.5M766.8 778.3L766.9 775.7M791.2 770.3L792.1 772.8M647.3 479.1L645.2 477.7M449.2 39.9L446.6 39.4M782.3 225.8L779.9 226.9M412.0 139.5L413.5 137.4M666.8 258.9L665.9 256.4M782.8 616.8L785.4 616.6M44.5 297.2L44.2 294.6M774.1 617.7L774.2 620.3M745.6 455.2L743.8 453.3M645.7 410.0L647.1 407.8M502.8 242.6L500.2 242.4M104.9 354.4L107.4 353.8M837.5 306.1L840.0 306.5M668.5 792.2L667.9 794.7M720.6 190.0L718.3 191.4M734.7 600.5L732.3 599.6M481.4 432.4L479.5 430.6M479.3 273.5L477.2 272.0M298.9 630.9L299.2 633.4M665.3 572.5L662.7 572.4M668.5 556.6L666.0 557.2M485.5 286.2L486.3 283.7M580.0 766.8L580.0 769.4M690.1 784.2L688.8 786.4M507.7 262.9L506.2 260.8M508.7 250.0L510.3 252.0M518.2 850.4L520.5 849.2M633.3 467.5L630.7 467.0M839.9 351.7L837.6 352.8M450.5 354.8L448.1 353.8M480.8 142.2L479.5 144.5M668.1 748.6L670.2 747.1M779.6 405.9L781.3 407.9M260.2 343.7L259.5 346.2M467.9 235.1L467.3 237.6M521.3 304.4L519.9 306.6M650.4 672.3L649.0 670.1M498.9 369.1L497.1 371.0M270.5 411.6L271.1 414.1M834.3 377.9L835.1 380.3M414.6 749.6L413.2 751.7M764.6 575.4L762.4 576.7M762.9 573.7L765.0 572.1M452.2 134.7L452.4 132.1M435.3 370.7L432.8 369.9M715.0 627.3L712.4 627.8M549.8 559.0L548.0 557.2M551.5 514.2L552.6 516.5M446.3 247.0L445.0 244.8M522.5 302.8L523.3 305.2M581.7 353.8L581.7 356.4M753.4 219.7L750.8 220.4M741.2 254.8L738.9 253.8M756.7 306.4L756.3 308.9M478.3 613.8L475.8 613.1M684.4 560.8L684.6 558.2M647.6 701.3L650.1 700.5M493.1 236.6L490.8 237.7M615.5 219.3L614.7 216.8M641.6 145.8L643.4 144.0M551.2 104.6L551.8 102.0M721.3 535.4L723.7 534.2M510.5 658.5L513.1 658.3M698.5 564.6L701.1 564.2M736.6 592.2L737.0 589.6M645.9 558.5L646.7 556.0M647.9 585.2L646.9 587.6M662.0 635.6L662.3 638.2M481.4 217.6L483.0 215.6M458.0 37.9L459.9 39.7M474.7 34.9L477.3 35.0M527.3 171.8L528.8 169.7M537.1 80.3L536.8 77.7M524.4 67.5L523.2 69.9M459.1 210.3L458.9 207.7M378.2 204.6L378.0 202.0M396.8 190.0L395.0 188.1M243.1 284.9L241.3 283.1M310.6 228.9L310.9 231.4M223.1 332.9L220.7 334.0M133.6 298.6L133.1 296.0M344.7 353.8L344.1 351.3M454.0 331.5L451.5 331.6M500.0 367.8L501.3 370.1M447.8 243.1L449.6 244.9M815.3 750.8L815.1 748.3M736.1 800.0L738.2 801.6M509.7 803.4L508.2 805.5M320.7 421.8L321.2 419.3M524.4 67.5L537.1 80.3M133.6 298.6L223.1 332.9M734.7 600.5L736.6 592.2M721.3 535.4L754.7 532.7M638.0 154.0L653.1 126.6M566.1 289.5L564.7 297.1M645.7 410.0L633.3 467.5M782.3 225.8L808.4 264.1M666.8 258.9L741.2 254.8M738.5 554.0L721.3 535.4M668.5 792.2L690.1 784.2M762.9 573.7L738.5 554.0M493.1 236.6L481.8 225.1M493.1 236.6L481.8 225.1M480.8 142.2L481.4 217.6M633.3 467.5L667.7 553.0M474.7 34.9L474.7 29.4M474.7 34.9L474.7 29.4M753.4 219.7L741.2 254.8M338.3 509.2L372.4 495.3M293.3 519.5L338.3 509.2M645.9 558.5L647.9 585.2M791.2 770.3L815.3 750.8M523.7 100.2L537.1 80.3M523.7 100.2L537.1 80.3M638.7 748.4L642.7 730.9M509.7 803.4L519.7 728.8M510.5 658.5L519.7 728.8M597.6 276.1L615.5 219.3M593.7 289.4L597.6 276.1M551.2 104.6L552.5 104.4M449.2 38.0L449.2 39.9M660.6 783.4L668.5 792.2M834.3 377.9L837.3 377.1M293.3 519.5L372.4 495.3M293.3 519.5L323.6 462.1M293.3 519.5L323.6 462.1M287.4 572.5L293.3 519.5M287.4 572.5L293.3 519.5M436.6 371.4L450.5 354.8M436.6 371.4L450.5 354.8M436.6 371.4L454.0 331.5M436.6 371.4L454.0 331.5M418.4 377.7L436.6 371.4M418.4 377.7L436.6 371.4M435.3 370.7L436.6 371.4M435.3 370.7L436.6 371.4M386.5 549.4L438.2 496.0M375.5 394.4L418.4 377.7M320.7 421.8L394.5 385.3M320.7 421.8L375.5 394.4M394.5 385.3L418.4 377.7M320.7 421.8L339.9 419.5M339.9 419.5L380.4 407.5M339.9 419.5L380.4 407.5M320.7 421.8L339.9 419.5M774.1 617.7L782.8 616.8M769.1 589.7L774.1 617.7M762.9 573.7L769.1 589.7M721.3 535.4L745.6 455.2M645.7 410.0L721.3 535.4M645.7 410.0L721.3 535.4M645.7 410.0L721.3 535.4M745.6 455.2L779.6 405.9M721.3 535.4L738.4 516.4M498.9 369.1L500.0 367.8M489.9 333.3L500.0 367.8M498.9 369.1L500.0 367.8M489.9 333.3L500.0 367.8M498.9 369.1L500.0 367.8M498.9 369.1L500.0 367.8M481.4 432.4L500.0 367.8M372.4 495.3L438.2 496.0M372.4 495.3L438.2 496.0M320.7 421.8L323.6 462.1M320.7 421.8L323.6 462.1M438.2 496.0L510.5 658.5M438.2 496.0L481.4 432.4M478.3 613.8L481.4 432.4M715.0 627.3L738.0 623.5M715.0 627.3L738.0 623.5M223.1 332.9L243.1 284.9M236.3 219.1L243.1 284.9M236.3 219.1L243.1 284.9M223.1 332.9L243.1 284.9M248.0 223.5L310.6 228.9M248.0 223.5L310.6 228.9M449.2 39.9L474.7 34.9M412.0 139.5L480.8 142.2M449.2 39.9L480.8 142.2M458.0 37.9L474.7 34.9M449.2 39.9L458.0 37.9M452.2 134.7L480.8 142.2M470.3 83.0L480.8 142.2M665.3 572.5L675.2 573.7M665.3 572.5L668.5 556.6M668.5 556.6L675.2 573.7M665.3 572.5L675.2 573.7M684.4 560.8L698.5 564.6M684.4 560.8L698.5 564.6M675.2 573.7L736.6 592.2M675.2 573.7L736.6 592.2M698.5 564.6L736.6 592.2M698.5 564.6L736.6 592.2M736.1 800.0L766.8 778.3M736.1 800.0L766.8 778.3M690.1 784.2L736.1 800.0M690.1 784.2L736.1 800.0M791.2 770.3L815.3 750.8M766.8 778.3L791.2 770.3M766.8 778.3L791.2 770.3M668.1 748.6L720.8 763.4M720.8 763.4L723.3 761.4M478.3 613.8L510.5 658.5M640.7 143.7L641.6 145.8M640.7 143.7L641.6 145.8M640.7 143.7L641.6 145.8M640.7 143.7L641.6 145.8M507.3 663.3L510.5 658.5M580.0 766.8L642.7 730.9M509.7 803.4L580.0 766.8M580.0 766.8L642.7 730.9M509.7 803.4L580.0 766.8M642.7 730.9L690.1 784.2M642.7 730.9L690.1 784.2M642.7 730.9L668.1 748.6M642.7 730.9L647.6 701.3M648.2 672.5L650.7 598.1M650.7 598.1L675.2 573.7M642.7 730.9L647.6 701.3M645.9 558.5L647.9 585.2M642.7 730.9L647.6 701.3M662.0 635.6L675.2 573.7M650.7 598.1L675.2 573.7M648.2 672.5L662.0 635.6M642.7 730.9L647.6 701.3M648.2 672.5L650.7 598.1M647.6 701.3L648.2 672.5M647.6 701.3L648.2 672.5M647.6 701.3L648.2 672.5M648.2 672.5L675.2 573.7M675.2 573.7L715.0 627.3M642.7 730.9L647.6 701.3M642.7 730.9L648.2 672.5M675.2 573.7L715.0 627.3M436.6 371.4L438.2 496.0M608.5 307.1L645.7 410.0M645.7 410.0L647.3 479.1M581.7 353.8L645.7 410.0M593.7 289.4L645.7 410.0M593.7 289.4L645.7 410.0M564.0 332.4L581.7 353.8M638.0 154.0L641.6 145.8M615.5 219.3L638.0 154.0M638.0 154.0L641.6 145.8M638.0 154.0L720.6 190.0M720.6 190.0L753.4 219.7M720.6 190.0L753.4 219.7M638.0 154.0L720.6 190.0M741.2 254.8L753.4 219.7M740.1 289.4L742.2 280.1M593.7 289.4L740.1 289.4M593.7 289.4L740.1 289.4M740.1 289.4L741.2 254.8M740.1 289.4L741.2 254.8M741.2 254.8L838.0 280.0M779.6 405.9L834.3 377.9M837.5 306.1L838.0 280.0M837.5 306.1L839.9 351.7M834.3 377.9L839.9 351.7M834.3 377.9L839.9 351.7M594.9 138.7L638.0 154.0M551.2 104.6L594.9 138.7M551.2 104.6L638.0 154.0M537.1 80.3L551.2 104.6M551.2 104.6L638.0 154.0M507.0 116.9L523.7 100.2M474.7 34.9L507.0 116.9M474.7 34.9L507.0 116.9M474.7 34.9L524.4 67.5M507.0 116.9L523.7 100.2M474.7 34.9L537.1 80.3M480.8 142.2L507.0 116.9M449.2 39.9L470.3 83.0M480.8 142.2L507.0 116.9M507.0 116.9L527.3 171.8M507.0 116.9L527.3 171.8M508.7 250.0L527.3 171.8M508.7 250.0L511.4 202.8M511.4 202.8L527.3 171.8M480.8 142.2L481.4 217.6M397.0 171.8L459.1 210.3M397.0 171.8L412.0 139.5M397.0 171.8L412.0 139.5M397.0 171.8L481.4 217.6M459.1 210.3L481.4 217.6M397.0 171.8L481.4 217.6M459.1 210.3L481.4 217.6M480.8 142.2L481.4 217.6M397.0 171.8L459.1 210.3M675.2 573.7L684.4 560.8M675.2 573.7L684.4 560.8M675.2 573.7L684.4 560.8M675.2 573.7L684.4 560.8M736.6 592.2L762.9 573.7M762.9 573.7L764.6 575.4M762.9 573.7L764.6 575.4M736.6 592.2L762.9 573.7M736.6 592.2L762.9 573.7M481.4 432.4L551.5 514.2M551.5 514.2L607.1 532.8M549.8 559.0L551.5 514.2M545.9 443.4L551.5 514.2M549.8 559.0L551.5 514.2M551.5 514.2L607.1 532.8M481.4 432.4L551.5 514.2M522.8 392.0L545.9 443.4M522.8 392.0L551.5 514.2M608.5 307.1L666.8 258.9M593.7 289.4L608.5 307.1M201.8 414.0L230.9 374.5M201.8 414.0L230.9 374.5M223.1 332.9L230.9 374.5M223.1 332.9L230.9 374.5M221.7 190.7L236.3 219.1M221.7 190.7L236.3 219.1M221.7 190.7L236.3 219.1M221.7 190.7L236.3 219.1M307.6 355.0L344.7 353.8M223.1 332.9L260.2 343.7M260.2 343.7L344.7 353.8M223.1 332.9L260.2 343.7M236.3 219.1L260.2 343.7M236.3 219.1L260.2 343.7M344.7 353.8L375.5 394.4M344.7 353.8L375.5 394.4M270.5 411.6L320.7 421.8M201.8 414.0L320.7 421.8M454.0 331.5L489.9 333.3M454.0 331.5L489.9 333.3M371.3 150.7L397.0 171.8M371.3 150.7L397.0 171.8M371.3 150.7L397.0 171.8M371.3 150.7L397.0 171.8M221.7 190.7L201.1 184.0M221.7 190.7L201.1 184.0M221.7 190.7L201.1 184.0M282.3 612.7L298.9 630.9M282.3 612.7L287.4 572.5M282.3 612.7L298.9 630.9M282.3 612.7L287.4 572.5M282.3 612.7L286.0 615.7M286.0 615.7L286.7 616.3M286.7 616.3L298.9 630.9M282.3 612.7L286.0 615.7M286.0 615.7L286.7 616.3M286.7 616.3L291.1 636.4M291.1 636.4L298.9 630.9M414.6 749.6L441.6 767.1M462.7 790.0L509.7 803.4M441.6 767.1L462.7 790.0M441.6 767.1L462.7 790.0M298.9 630.9L384.1 722.7M462.7 790.0L509.7 803.4M298.9 630.9L384.1 722.7M384.1 722.7L414.6 749.6M384.1 722.7L441.6 767.1M288.1 789.9L363.2 809.8M363.2 809.8L441.6 767.1M288.1 789.9L363.2 809.8M363.2 809.8L441.6 767.1M509.7 803.4L518.2 850.4M509.7 803.4L518.2 850.4M286.9 674.3L291.1 636.4M268.4 731.1L286.9 674.3M268.4 731.1L286.9 674.3M231.6 786.5L268.4 731.1M286.9 674.3L298.9 630.9M286.9 674.3L298.9 630.9M338.6 190.9L378.2 204.6M338.6 190.9L378.2 204.6M378.2 204.6L397.0 171.8M378.2 204.6L397.0 171.8M396.8 190.0L397.0 171.8M396.8 190.0L397.0 171.8M310.6 228.9L378.2 204.6M310.6 228.9L378.2 204.6M220.2 178.4L221.7 190.7M220.2 178.4L221.7 190.7M375.5 394.4L380.4 407.5M375.5 394.4L380.4 407.5M394.0 236.9L446.3 247.0M394.0 236.9L446.3 247.0M467.9 235.1L481.4 217.6M467.9 235.1L481.4 217.6M446.3 247.0L452.2 260.3M479.3 273.5L485.5 286.2M479.3 273.5L485.5 286.2M479.3 273.5L485.5 286.2M485.5 286.2L489.9 333.3M485.5 286.2L489.9 333.3M839.9 351.7L823.1 333.8M740.1 289.4L756.7 306.4M740.1 289.4L823.1 333.8M756.7 306.4L839.9 351.7M236.3 219.1L248.0 223.5M236.3 219.1L248.0 223.5M485.5 286.2L522.5 302.8M485.5 286.2L522.5 302.8M507.7 262.9L566.1 289.5M507.7 262.9L508.7 250.0M566.1 289.5L593.7 289.4M507.7 262.9L566.1 289.5M522.5 302.8L593.7 289.4M507.7 262.9L508.7 250.0M522.5 302.8L593.7 289.4M566.1 289.5L593.7 289.4M507.7 262.9L522.5 302.8M507.7 262.9L522.5 302.8M493.1 236.6L502.8 242.6M525.3 241.8L593.7 289.4M521.2 240.3L525.3 241.8M493.1 236.6L521.2 240.3M493.1 236.6L508.7 250.0M502.8 242.6L508.7 250.0M481.4 217.6L493.1 236.6M446.3 247.0L447.8 243.1M446.3 247.0L447.8 243.1M446.3 247.0L447.8 243.1M481.4 217.6L493.1 236.6M446.3 247.0L447.8 243.1M740.3 253.7L741.2 254.8M260.2 343.7L307.6 355.0M521.3 304.4L522.5 302.8M522.5 302.8L564.0 332.4M648.2 672.5L650.4 672.3M648.2 672.5L650.4 672.3M648.2 672.5L650.4 672.3M648.2 672.5L650.4 672.3M638.0 154.0L653.1 126.6M749.1 197.3L753.4 219.7M749.1 197.3L753.4 219.7M749.1 197.3L753.4 219.7M749.1 197.3L753.4 219.7M384.1 722.7L385.5 722.3M384.1 722.7L385.5 722.3M638.7 748.4L642.7 730.9M201.1 184.0L221.7 190.7M719.2 760.0L720.8 763.4M720.8 763.4L723.3 761.4M201.8 414.0L270.5 411.6M378.2 204.6L394.0 236.9M378.2 204.6L394.0 236.9M615.5 219.3L628.6 193.1M628.6 193.1L638.0 154.0M412.0 139.5L452.2 134.7M311.5 620.4L386.5 549.4M298.9 630.9L311.5 620.4M698.5 564.6L721.3 535.4M607.1 532.8L645.9 558.5M667.7 553.0L668.5 556.6M647.3 479.1L667.7 553.0M667.7 553.0L684.4 560.8M375.5 394.4L377.0 394.5M474.1 32.7L474.7 29.4M467.9 235.1L481.8 225.1M481.8 225.1L481.4 217.6M458.4 234.3L467.9 235.1M645.3 147.4L641.6 145.8M478.0 274.4L479.3 273.5M478.0 274.4L479.3 273.5M478.0 274.4L479.3 273.5M478.0 274.4L479.3 273.5M782.3 225.8L753.4 219.7M522.0 305.5L514.6 363.2M537.1 80.3L551.2 104.6M104.9 354.4L201.8 414.0M452.2 260.3L478.0 274.4M647.9 585.2L650.7 598.1M481.4 432.4L511.1 371.5M522.5 302.8L522.0 305.5M514.6 363.2L522.8 392.0M645.9 558.5L684.4 560.8M514.6 363.2L522.5 302.8M286.7 616.3L286.0 615.7M474.7 34.9L474.1 32.7M834.3 377.9L837.3 377.1M454.0 331.5L478.0 274.4M412.0 139.5L410.4 138.4M412.0 139.5L410.4 138.4M489.9 333.3L514.6 363.2M522.5 302.8L522.0 305.5M514.6 363.2L511.1 371.5M514.6 363.2L500.0 367.8M511.1 371.5L500.0 367.8M458.4 234.3L467.9 235.1M446.3 247.0L458.4 234.3M104.9 354.4L44.5 297.2" fill="none" stroke="#d55e00" stroke-width="2.3" stroke-opacity="0.95" stroke-linecap="round" stroke-linejoin="round"/></svg>